<?xml version="1.0" encoding="UTF-8"?>
<svg width="16px" height="16px" viewBox="0 0 16 16" version="1.1" xmlns="http://www.w3.org/2000/svg" xmlns:xlink="http://www.w3.org/1999/xlink">
    <!-- Generator: sketchtool 48.1 (47250) - http://www.bohemiancoding.com/sketch -->
    <title>BD2E9D2F-67B6-4467-8627-05B076C2BFEF</title>
    <desc>Created with sketchtool.</desc>
    <defs></defs>
    <g id="Guide" stroke="none" stroke-width="1" fill="none" fill-rule="evenodd" transform="translate(-314.000000, -1771.000000)">
        <g id="Language" transform="translate(284.000000, 1615.000000)" fill-rule="nonzero">
            <g id="China" transform="translate(30.000000, 150.000000)">
                <g id="cn" transform="translate(0.000000, 5.000000)">
                    <polygon id="Shape" fill="#DE2910" points="0 1 16 1 16 17 0 17"></polygon>
                    <g id="a-link" transform="translate(1.600000, 2.600000)" fill="#FFDE00">
                        <polygon id="a" points="4.68 1.656 0.9912 4.344 2.4 0 3.8112 4.344 0.1152 1.656"></polygon>
                    </g>
                    <g id="a-link" transform="translate(7.725327, 2.723169) rotate(-120.953924) translate(-7.725327, -2.723169) translate(6.225327, 1.723169)" fill="#FFDE00">
                        <polygon id="a" points="2.2238345 1.0510738 0.995067834 1.94646655 1.46434957 0.499447906 1.93443077 1.94646655 0.703265731 1.0510738"></polygon>
                    </g>
                    <g id="a-link" transform="translate(9.475666, 4.064194) rotate(-98.106000) translate(-9.475666, -4.064194) translate(8.475666, 3.064194)" fill="#FFDE00">
                        <polygon id="a" points="1.60846726 0.85585433 0.378867261 1.75185433 0.848467261 0.30385433 1.31886726 1.75185433 0.0868672615 0.85585433"></polygon>
                    </g>
                    <g id="a-link" transform="translate(9.429926, 6.545114) rotate(-74.046738) translate(-9.429926, -6.545114) translate(8.429926, 5.545114)" fill="#FFDE00">
                        <polygon id="a" points="1.75437942 0.930476888 0.524122372 1.82695567 0.993973306 0.378181922 1.46462467 1.82695567 0.23196634 0.930476888"></polygon>
                    </g>
                    <g id="a-link" transform="translate(8.095998, 8.166922) rotate(-51.295429) translate(-8.095998, -8.166922) translate(7.095998, 7.166922)" fill="#FFDE00">
                        <polygon id="a" points="1.67378799 0.697889454 0.44478757 1.59345255 0.914158584 0.146158619 1.38432921 1.59345255 0.152929955 0.697889454"></polygon>
                    </g>
                </g>
            </g>
        </g>
    </g>
</svg>