<?xml version="1.0" encoding="UTF-8"?>
<svg width="24px" height="24px" viewBox="0 0 24 24" version="1.1" xmlns="http://www.w3.org/2000/svg" xmlns:xlink="http://www.w3.org/1999/xlink">
    <!-- Generator: sketchtool 48.1 (47250) - http://www.bohemiancoding.com/sketch -->
    <title>CACACF5F-43F4-478A-8EC6-067B271BCA80</title>
    <desc>Created with sketchtool.</desc>
    <defs>
        <filter x="-43.8%" y="-31.2%" width="187.5%" height="187.5%" filterUnits="objectBoundingBox" id="filter-1">
            <feOffset dx="0" dy="2" in="SourceAlpha" result="shadowOffsetOuter1"></feOffset>
            <feGaussianBlur stdDeviation="2" in="shadowOffsetOuter1" result="shadowBlurOuter1"></feGaussianBlur>
            <feColorMatrix values="0 0 0 0 0   0 0 0 0 0   0 0 0 0 0  0 0 0 0.24 0" type="matrix" in="shadowBlurOuter1" result="shadowMatrixOuter1"></feColorMatrix>
            <feMerge>
                <feMergeNode in="shadowMatrixOuter1"></feMergeNode>
                <feMergeNode in="SourceGraphic"></feMergeNode>
            </feMerge>
        </filter>
        <polygon id="path-2" points="0 0 16 0 16 16 0 16"></polygon>
    </defs>
    <g id="Guide" stroke="none" stroke-width="1" fill="none" fill-rule="evenodd" transform="translate(-310.000000, -1737.000000)">
        <g id="Language" transform="translate(284.000000, 1615.000000)">
            <g id="Kor" transform="translate(30.000000, 118.000000)">
                <g id="kr" filter="url(#filter-1)" transform="translate(0.000000, 6.000000)">
                    <mask id="mask-3" fill="white">
                        <use xlink:href="#path-2"></use>
                    </mask>
                    <g id="Shape"></g>
                    <g id="Group" mask="url(#mask-3)" fill-rule="nonzero">
                        <g transform="translate(-3.750000, -0.031250)" id="Shape">
                            <polygon fill="#FFFFFF" points="22.8315625 16.0175 0.01375 16.0175 0.01375 0.0175 22.8315625 0.0175"></polygon>
                            <path d="M11.6209688,8.03190625 C11.6209688,9.97365314 10.0468719,11.54775 8.105125,11.54775 C6.16337811,11.54775 4.58928125,9.97365314 4.58928125,8.03190625 C4.58928125,6.09015936 6.16337811,4.5160625 8.105125,4.5160625 C10.0468719,4.5160625 11.6209688,6.09015936 11.6209688,8.03190625 Z" fill="#FFFFFF"></path>
                            <path d="M16.0315937,8.2359375 C16.0358564,9.87778845 15.1715809,11.3967678 13.765328,12.2189393 C12.3590751,13.0411109 10.6252686,13.0411109 9.21901576,12.2189393 C7.81276287,11.3967678 6.94848739,9.87778845 6.95275,8.2359375 C6.94848739,6.59408655 7.81276287,5.07510723 9.21901576,4.25293568 C10.6252686,3.43076413 12.3590751,3.43076413 13.765328,4.25293568 C15.1715809,5.07510723 16.0358564,6.59408655 16.0315938,8.2359375 Z" fill="#C70000"></path>
                            <path d="M2.20571875,3.9825 L4.82009375,0.9584375 L5.4395,1.49390625 L2.825125,4.518 L2.20571875,3.9825 Z M3.0619375,4.72271875 L5.6763125,1.69865625 L6.2956875,2.234125 L3.6813125,5.2581875 L3.0619375,4.72271875 Z" fill="#000000"></path>
                            <polygon fill="#000000" points="2.20571875 3.9825 4.82009375 0.9584375 5.4395 1.49390625 2.825125 4.518"></polygon>
                            <path d="M2.20571875,3.9825 L4.82009375,0.9584375 L5.4395,1.49390625 L2.825125,4.518 L2.20571875,3.9825 Z M3.93646875,5.47875 L6.55084375,2.4546875 L7.17021875,2.9901875 L4.55584375,6.01425 L3.93646875,5.47875 Z" fill="#000000"></path>
                            <polygon fill="#000000" points="2.20571875 3.9825 4.82009375 0.9584375 5.4395 1.49390625 2.825125 4.518"></polygon>
                            <path d="M2.20571875,3.9825 L4.82009375,0.9584375 L5.4395,1.49390625 L2.825125,4.518 L2.20571875,3.9825 Z M18.1066563,0.9574375 L20.7004687,3.99915625 L20.0774375,4.53040625 L17.483625,1.48871875 L18.1066563,0.9574375 Z M16.3658437,2.44190625 L18.9596562,5.483625 L18.3366563,6.014875 L15.7428437,2.9731875 L16.3658437,2.44190625 Z" fill="#000000"></path>
                            <polygon fill="#FFFFFF" points="16.7984375 4.1934375 19.25475 2.07425 19.7122813 2.60403125 17.0874063 4.964 16.7984375 4.19340625"></polygon>
                            <path d="M19.819625,11.6566562 L17.306625,14.6513125 L16.6905,14.1388125 L19.2035312,11.1441875 L19.819625,11.6566562 Z M17.2454063,1.691875 L19.8392188,4.7335625 L19.2162188,5.26484375 L16.6224063,2.22315625 L17.2454063,1.691875 Z M20.6710938,12.364875 L18.1580625,15.3595312 L17.5419687,14.8470625 L20.055,11.8524062 L20.6710938,12.364875 Z M18.9496875,10.9330312 L16.4366562,13.9277187 L15.8205625,13.4152187 L18.3335625,10.4205625 L18.9496875,10.9330312 Z" fill="#000000"></path>
                            <path d="M7.01875,7.4275 C7.16225,8.5829375 7.37178125,9.87046875 9.14996875,10.0042188 C9.81646875,10.0441563 11.113,9.84565625 11.558125,8.02953125 C12.142125,6.284875 13.9010937,5.78328125 15.098125,6.729125 C15.7768125,7.1718125 15.9645937,7.8749375 16.0132188,8.40278125 C15.958875,10.097875 14.9859062,11.5652813 13.7375,12.2196563 C12.3021875,13.0727813 10.31375,13.0905938 8.571875,11.7980938 C7.786875,11.0615313 6.69003125,9.70371875 7.01875,7.42746875 L7.01875,7.4275 Z" fill="#3D5897"></path>
                            <polygon fill="#FFFFFF" points="17.3721875 11.6121875 19.832625 13.7265937 19.3766563 14.25775 16.6530313 12.0124062 17.3721875 11.6121875"></polygon>
                            <polygon fill="#000000" points="3.69103125 11.1936563 6.28484375 14.235375 5.6618125 14.766625 3.068 11.7249375"></polygon>
                            <polygon fill="#FFFFFF" points="3.244125 13.6953125 5.7004375 11.576125 6.15796875 12.1059063 3.53309375 14.465875 3.244125 13.6952813"></polygon>
                            <path d="M4.55225,10.45925 L7.14609375,13.5009375 L6.5230625,14.0321875 L3.92925,10.9905 L4.55225,10.45925 Z M2.81146875,11.9437187 L5.40528125,14.9854062 L4.78228125,15.5166562 L2.1884375,12.475 L2.81146875,11.9437187 Z" fill="#000000"></path>
                        </g>
                    </g>
                </g>
            </g>
        </g>
    </g>
</svg>