<?xml version="1.0" encoding="UTF-8"?>
<svg width="16px" height="16px" viewBox="0 0 16 16" version="1.1" xmlns="http://www.w3.org/2000/svg" xmlns:xlink="http://www.w3.org/1999/xlink">
    <!-- Generator: sketchtool 48.1 (47250) - http://www.bohemiancoding.com/sketch -->
    <title>79F1F851-5E12-40BB-8B27-705695B7BDCB</title>
    <desc>Created with sketchtool.</desc>
    <defs></defs>
    <g id="Guide" stroke="none" stroke-width="1" fill="none" fill-rule="evenodd" transform="translate(-314.000000, -1867.000000)">
        <g id="Language" transform="translate(284.000000, 1615.000000)">
            <g id="Portugal" transform="translate(30.000000, 247.000000)">
                <g id="pt" transform="translate(0.000000, 5.000000)">
                    <polygon id="Shape" fill="#FF0000" fill-rule="nonzero" points="6.4059144 0 15.970428 0 15.970428 15.9377432 6.4059144 15.9377432"></polygon>
                    <polygon id="Shape" fill="#006600" fill-rule="nonzero" points="0.0295719844 0 6.4059144 0 6.4059144 15.9377432 0.0295719844 15.9377432"></polygon>
                    <g id="Group" stroke-linecap="round" stroke-linejoin="round" transform="translate(2.832685, 4.389105)" fill="#FFFF00" stroke="#000000">
                        <path d="M6.3433463,5.77705837 C5.27346304,5.74480934 0.367066148,2.68227237 0.333385214,2.19461479 L0.604357977,1.74278599 C1.09101946,2.44992996 6.10677043,5.42829572 6.59937743,5.3227393 L6.3433463,5.77690272" id="Shape" stroke-width="0.652"></path>
                        <path d="M0.547330739,1.68140078 C0.451361868,1.93976654 1.82764202,2.79059922 3.48354864,3.79772763 C5.13933074,4.80473152 6.5671284,5.42711284 6.67296498,5.3378677 C6.67940856,5.32635019 6.72501167,5.24784436 6.72080934,5.24846693 C6.70098054,5.27835019 6.65270039,5.28781323 6.57736965,5.2660856 C6.12996109,5.13705837 4.9631751,4.60149416 3.51819455,3.72522957 C2.07321401,2.84890272 0.816062257,2.04136965 0.620669261,1.69824125 C0.607128405,1.67445914 0.597447471,1.63106615 0.59940856,1.59738521 L0.594677043,1.5972607 L0.553058366,1.67000778 L0.547330739,1.68140078 Z M6.36856031,5.79122179 C6.35038132,5.82412451 6.31657588,5.82524514 6.25229572,5.81817899 C5.85207782,5.77385214 4.63766537,5.18328405 3.20068482,4.32308171 C1.52862257,3.32217899 0.14770428,2.41017899 0.297525292,2.17179767 L0.338303502,2.09976654 L0.346303502,2.10225681 C0.211610895,2.50621012 3.07159533,4.14154086 3.24,4.24575875 C4.89478599,5.27100389 6.28996109,5.86972763 6.41338521,5.7140856 L6.36846693,5.79137743 L6.36846693,5.79125292 L6.36856031,5.79122179 Z" id="Shape" stroke-width="0.652"></path>
                        <path d="M3.57833463,2.48996109 C4.64924514,2.48155642 5.97077043,2.34365759 6.73133074,2.04052918 L6.56740856,1.77431907 C6.11785214,2.02309728 4.7890428,2.18670817 3.56924514,2.2111751 C2.12644358,2.1979144 1.10810895,2.0635642 0.59785214,1.72121401 L0.443143969,2.00466926 C1.38116732,2.40155642 2.34235019,2.4859144 3.5783035,2.48996109" id="Shape" stroke-width="0.652"></path>
                        <path d="M6.77547082,2.04656809 C6.74932296,2.08840467 6.25329183,2.25948638 5.52264591,2.38568093 C5.02723735,2.46119844 4.38101167,2.52575875 3.57456809,2.52656809 C2.80837354,2.52728405 2.18250584,2.47271595 1.70863813,2.40852918 C0.941634241,2.28824903 0.545774319,2.12090272 0.399439689,2.06175875 C0.413447471,2.03396109 0.422474708,2.01444358 0.435922179,1.98845136 C0.857214008,2.15617121 1.25491051,2.25730739 1.72084047,2.32899611 C2.1915642,2.39274708 2.80989883,2.44806226 3.57229572,2.4473463 C4.37500389,2.44653696 5.01410117,2.37705837 5.50661479,2.3037821 C6.25587549,2.18294163 6.66521401,2.02742412 6.72264591,1.95514397 L6.7755642,2.04653696 L6.77550195,2.04653696 L6.77547082,2.04656809 Z M6.63165759,1.77659144 C6.55041245,1.84180545 6.14580545,1.98530739 5.43383658,2.09898833 C4.95875486,2.16709728 4.35461479,2.22804669 3.58278599,2.22879377 C2.84952529,2.22950973 2.25042802,2.18007782 1.79477043,2.11371206 C1.07175097,2.01929961 0.686910506,1.84896498 0.548233463,1.79931518 C0.562023346,1.77543969 0.576093385,1.75175097 0.590505837,1.72796887 C0.698459144,1.78235019 1.06982101,1.93310506 1.80270817,2.03694942 C2.25319844,2.1008249 2.85319844,2.14838911 3.58284825,2.14767315 C4.35100389,2.14689494 4.94823346,2.08479377 5.42035798,2.01702724 C6.136,1.91856809 6.52105837,1.7355642 6.57948638,1.68974319 L6.63165759,1.77659144 Z M0.0617898833,3.78023346 C0.720466926,4.13447471 2.18343969,4.31305837 3.56787549,4.32529183 C4.82838911,4.3273463 6.47059922,4.13049027 7.08470039,3.8050428 L7.06779767,3.45049027 C6.87567315,3.75069261 5.11582879,4.03869261 3.55417899,4.02689494 C1.99252918,4.0151284 0.542381323,3.7739144 0.0589571984,3.4616965 L0.0617587549,3.78014008 L0.0617898833,3.78023346 Z" id="Shape" stroke-width="0.652"></path>
                        <path d="M7.11828794,3.72918288 L7.11828794,3.81378988 C7.02602335,3.92414008 6.44731518,4.09092607 5.72155642,4.20840467 C5.16924514,4.29307393 4.44915175,4.35694942 3.55184436,4.35694942 C2.699393,4.35694942 2.01961089,4.29618677 1.49238911,4.21525292 C0.659081712,4.09385214 0.126038911,3.88140078 0.0190817121,3.81796109 L0.0195175097,3.71928405 C0.340918288,3.93301167 1.21173541,4.08933852 1.50409339,4.13718288 C2.02782879,4.21758755 2.70359533,4.27788327 3.5517821,4.27788327 C4.44485603,4.27788327 5.16093385,4.21444358 5.70978988,4.13033463 C6.23047471,4.0551284 6.97220233,3.85951751 7.11822568,3.72927626 L7.11828794,3.72918288 Z M7.11866148,3.42848249 L7.11866148,3.51302724 C7.02639689,3.62331518 6.44765759,3.79007004 5.72192996,3.90754864 C5.16961868,3.9922179 4.44949416,4.05612451 3.5522179,4.05612451 C2.69973541,4.05612451 2.01995331,3.99542412 1.49276265,3.91439689 C0.659455253,3.79312062 0.126412451,3.580607 0.0194552529,3.51719844 L0.0198910506,3.4185214 C0.3412607,3.63215564 1.21201556,3.78851362 1.50440467,3.83626459 C2.02817121,3.91676265 2.70393774,3.97712062 3.55215564,3.97712062 C4.44522957,3.97712062 5.16130739,3.91361868 5.71016342,3.82944747 C6.23081712,3.75427237 6.97257588,3.55863035 7.11859922,3.42842023 L7.11859922,3.42848249 L7.11866148,3.42848249 Z M3.56488716,5.71610895 C2.05002335,5.70708171 0.752031128,5.30319066 0.477883268,5.23642023 L0.677789883,5.54932296 C1.16196109,5.75299611 2.42826459,6.05649805 3.57942412,6.02287938 C4.73055253,5.98932296 5.73662257,5.90014008 6.44563424,5.55501946 L6.65055253,5.23072374 C6.16743969,5.45827237 4.52311284,5.71383658 3.56485603,5.71614008 L3.56488716,5.71610895 Z" id="Shape" stroke-width="0.652"></path>
                        <path d="M6.52258366,5.48233463 C6.49271518,5.5280794 6.46205951,5.57330533 6.43063035,5.61799222 C6.0962179,5.73590661 5.56930739,5.85970428 5.3469572,5.89581323 C4.89279377,5.98941634 4.19010117,6.0585214 3.56641245,6.05883268 C2.22446693,6.03922179 1.12600778,5.77649805 0.609214008,5.55237354 L0.567501946,5.48071595 L0.574350195,5.46994553 L0.64507393,5.49733852 C1.56407782,5.82614786 2.59620233,5.95732296 3.57400778,5.98088716 C4.19514397,5.98306615 4.81696498,5.9096965 5.3197821,5.81976654 C6.09083268,5.66527626 6.40261479,5.5488249 6.4983035,5.49603113 L6.52258366,5.48239689 L6.52258366,5.48233463 Z M6.70026459,5.18929183 C6.7010428,5.19022568 6.70182101,5.19106615 6.70259922,5.19203113 C6.67971622,5.23071295 6.6565561,5.26923015 6.63312062,5.30757977 C6.45475486,5.37133074 5.97070817,5.51296498 5.26393774,5.61179767 C4.79825681,5.67520623 4.50876265,5.73662257 3.58238132,5.75467704 C1.84635019,5.71047471 0.722428016,5.37101946 0.45540856,5.28731518 L0.41581323,5.21136187 C1.42188327,5.47402335 2.44952529,5.65736965 3.58238132,5.67610895 C4.42994553,5.65805447 4.79053696,5.59564202 5.25242023,5.53266926 C6.07657588,5.40451362 6.49182879,5.2688249 6.61646693,5.22963424 C6.61475162,5.22720494 6.61292341,5.22485736 6.61098833,5.22259922 L6.70032685,5.18919844 L6.70032685,5.1892607 L6.70026459,5.18929183 Z" id="Shape" stroke-width="0.626"></path>
                        <path d="M6.71844358,3.50038911 C6.72336187,4.49696498 6.21338521,5.39122179 5.80264591,5.78571206 C5.2214786,6.34384436 4.45098833,6.70287938 3.55119066,6.71943969 C2.54636576,6.73789883 1.59897276,6.08286381 1.3448716,5.79508171 C0.848062257,5.23246693 0.443548638,4.51803891 0.430568093,3.5551751 C0.492108949,2.46754864 0.919097276,1.70994553 1.53799222,1.19041245 C2.15691829,0.670879377 2.98101167,0.417867704 3.66733074,0.435953307 C4.4591751,0.456809339 5.38415564,0.845291829 6.02331518,1.61649805 C6.44199222,2.12171206 6.6233463,2.67007004 6.71841245,3.50038911 L6.71844358,3.50038911 Z M3.55971984,0.088311284 C5.48943191,0.088311284 7.07651362,1.65861479 7.07651362,3.58409339 C7.07651362,5.50950973 5.48943191,7.07990661 3.55971984,7.07990661 C1.63000778,7.07990661 0.0560933852,5.50957198 0.0560933852,3.58412451 C0.0560933852,1.65864591 1.63000778,0.0883424125 3.55971984,0.0883424125 L3.55971984,0.088311284 Z" id="Shape" stroke-width="0.652"></path>
                        <path d="M3.56918288,0.0762645914 C5.50057588,0.0762645914 7.07579767,1.65176654 7.07579767,3.58337743 C7.07579767,5.5149572 5.50054475,7.09039689 3.56918288,7.09039689 C1.63766537,7.09039689 0.0624435798,5.51498833 0.0624435798,3.5833463 C0.0624435798,1.65173541 1.63772763,0.0762645914 3.56915175,0.0762645914 L3.56918288,0.0762645914 Z M0.139579767,3.58340856 C0.139579767,5.46978988 1.68859144,7.01329183 3.56912062,7.01329183 C5.44958755,7.01329183 6.99863035,5.46978988 6.99863035,3.58343969 C6.99863035,1.69705837 5.44958755,0.153525292 3.56908949,0.153525292 C1.68852918,0.153525292 0.13951751,1.69712062 0.13951751,3.58343969 L0.139579767,3.58340856 Z" id="Shape" stroke-width="0.652"></path>
                        <path d="M3.57198444,0.367782101 C5.33329183,0.367782101 6.78406226,1.81354086 6.78406226,3.58023346 C6.78406226,5.34701946 5.3332607,6.79268482 3.57198444,6.79268482 C1.81067704,6.79268482 0.359844358,5.34701946 0.359844358,3.58023346 C0.359844358,1.81354086 1.8107393,0.367782101 3.57198444,0.367782101 Z M0.437042802,3.58023346 C0.437042802,5.30452918 1.85294942,6.71548638 3.57198444,6.71548638 C5.29098833,6.71548638 6.70692607,5.30452918 6.70692607,3.58023346 C6.70692607,1.85590661 5.29101946,0.444918288 3.57198444,0.444918288 C1.85294942,0.444918288 0.437042802,1.85587549 0.437042802,3.58023346 Z" id="Shape" stroke-width="0.652"></path>
                        <polygon id="Shape" stroke-width="0.652" points="7.07828794 3.7191284 7.07828794 3.45858366 6.86611673 3.26101167 5.66194553 2.94225681 3.92653696 2.76513619 1.83688716 2.87140856 0.349354086 3.22558755 0.0490272374 3.448 0.0490272374 3.70854475 0.809805447 3.36725292 2.61606226 3.08392218 4.35153307 3.08392218 5.62655253 3.22561868 6.512 3.4381323"></polygon>
                        <path d="M3.57055253,3.04037354 C4.39872374,3.03881712 5.20224125,3.11881712 5.8395642,3.24292607 C6.49721401,3.37438132 6.96006226,3.53883268 7.11831907,3.72354864 L7.1181323,3.81500389 C6.92731518,3.58515175 6.30449805,3.41662257 5.82474708,3.32028016 C5.19228016,3.1972607 4.39414786,3.11782101 3.57055253,3.1193463 C2.70144747,3.12096498 1.89223346,3.20326848 1.26901167,3.32488716 C0.768871595,3.42412451 0.102007782,3.6212607 0.0186770428,3.81571984 L0.0186770428,3.72046693 C0.0644357977,3.58589883 0.561058366,3.38477821 1.25774319,3.24529183 C1.88566537,3.12286381 2.69640467,3.04196109 3.57058366,3.04037354 L3.57055253,3.04037354 Z M3.57092607,2.73957977 C4.39906615,2.73802335 5.20258366,2.8180856 5.83987549,2.9421323 C6.49761868,3.07364981 6.96040467,3.23807004 7.11863035,3.42275486 L7.11847471,3.51427237 C6.92765759,3.28442023 6.3048716,3.11589105 5.82515175,3.01957977 C5.19262257,2.89649805 4.39449027,2.81705837 3.5709572,2.81864591 C2.70185214,2.82020233 1.89656031,2.90256809 1.27324514,3.02409339 C0.790661479,3.11561089 0.0964669261,3.32056031 0.0190817121,3.51498833 L0.0190817121,3.41973541 C0.0647782101,3.28656809 0.571455253,3.07825681 1.25811673,2.94449805 C1.88603891,2.82207004 2.69677821,2.74122957 3.5709572,2.73957977 L3.57092607,2.73957977 Z M3.55392996,1.20538521 C4.85898833,1.19884825 5.99735409,1.38789105 6.51816342,1.65466148 L6.70814008,1.98331518 C6.25543969,1.73936187 5.02733074,1.4856965 3.55576654,1.52361089 C2.35676265,1.53098833 1.07561089,1.65559533 0.432840467,1.99856809 L0.659642023,1.61926848 C1.1871751,1.34564981 2.43128405,1.20687938 3.55396109,1.20544747 L3.55392996,1.20538521 Z" id="Shape" stroke-width="0.652"></path>
                        <path d="M3.57126848,1.47673152 C4.31564202,1.47470817 5.03492607,1.51670039 5.60691051,1.61992218 C6.13961089,1.71906615 6.64762646,1.86785992 6.72028016,1.94789105 L6.77656031,2.04740856 C6.59990661,1.93204669 6.16028016,1.80361089 5.59579767,1.69659144 C5.02894942,1.59000778 4.3101323,1.55470817 3.56996109,1.55666926 C2.72980545,1.55377432 2.0770428,1.5981323 1.5168249,1.69581323 C0.924326848,1.80663035 0.513245136,1.96507393 0.411891051,2.04028016 L0.467081712,1.93506615 C0.664124514,1.8345214 0.976715953,1.71343191 1.50210117,1.61880156 C2.08140078,1.51296498 2.74107393,1.48121401 3.57126848,1.47670039 L3.57120623,1.47670039 L3.57126848,1.47673152 Z M3.5709572,1.17618677 C4.28329961,1.17431907 4.98667704,1.21403891 5.53491051,1.31259144 C5.96728405,1.39676265 6.39489494,1.52818677 6.55150195,1.64510506 L6.6338677,1.77596887 C6.49378988,1.62032685 5.96672374,1.47277821 5.50141634,1.39019455 C4.95738521,1.29640467 4.28323735,1.25926848 3.57089494,1.25332296 C2.82331518,1.25540856 2.13245136,1.30119844 1.59632685,1.39881712 C1.08488716,1.49615564 0.754801556,1.61142412 0.615159533,1.70138521 L0.687595331,1.59206226 C0.880280156,1.49058366 1.19165759,1.39741634 1.5837821,1.32124514 C2.12385992,1.22287938 2.8189572,1.1783035 3.57092607,1.17618677 L3.5709572,1.17618677 Z M5.31308949,5.04108949 C4.66785992,4.92062257 4.02144747,4.9031284 3.56996109,4.90848249 C1.39508171,4.93394553 0.692513619,5.35501946 0.606785992,5.48249027 L0.444233463,5.21758755 C0.998007782,4.8162179 2.18228794,4.5911284 3.58175875,4.61416342 C4.30845136,4.62605447 4.93553307,4.6743035 5.46309728,4.77649805 L5.31305837,5.04115175 L5.31308949,5.04108949 Z" id="Shape" stroke-width="0.652"></path>
                        <path d="M3.55744747,4.87106615 C4.16245914,4.88009339 4.75629572,4.90508949 5.32949416,5.01198444 L5.28796887,5.0852607 C4.75561089,4.98698833 4.18807782,4.94938521 3.55950195,4.9524358 C2.7568249,4.94621012 1.94499611,5.02113619 1.23819455,5.22396887 C1.01519066,5.28603891 0.645976654,5.42941634 0.608342412,5.54789105 L0.567035019,5.47981323 C0.578957198,5.40977432 0.802054475,5.26440467 1.2191751,5.14720623 C2.0288249,4.91536187 2.78602335,4.87629572 3.55741634,4.87097276 L3.55741634,4.87109728 L3.55744747,4.87106615 Z M3.58490272,4.56663035 C4.21173541,4.57833463 4.85905058,4.60731518 5.4882179,4.73192218 L5.44494942,4.80818677 C4.87679377,4.69543969 4.33397665,4.65783658 3.58857588,4.64638132 C2.78337743,4.64784436 1.92924514,4.70521401 1.1526537,4.93101946 C0.901914397,5.00401556 0.469198444,5.16192996 0.454754864,5.28694163 L0.413509728,5.21378988 C0.422910506,5.10023346 0.797478599,4.95212451 1.13450584,4.85407004 C1.91707393,4.6265214 2.77341634,4.56806226 3.58493385,4.56659922 L3.58490272,4.56663035 Z" id="Shape" stroke-width="0.626"></path>
                        <polygon id="Shape" stroke-width="0.652" points="6.67417899 5.25783658 6.4128249 5.66331518 5.66194553 4.99645136 3.71399222 3.68603891 1.5181323 2.4818677 0.378054475 2.09189105 0.621011673 1.64136965 0.703501946 1.59635798 1.41189105 1.7734786 3.74941634 2.97764981 5.09525292 3.82764202 6.22863813 4.64227237 6.68902724 5.17350973"></polygon>
                        <path d="M0.336964981,2.10250584 C0.536933852,1.96687938 2.00650584,2.62154086 3.54418677,3.54873152 C5.07775875,4.47859922 6.54319066,5.52930739 6.41092607,5.72594553 L6.36743969,5.79436576 L6.34751751,5.81011673 C6.35175097,5.80706615 6.37378988,5.78010895 6.34533852,5.70720623 C6.27996887,5.49220233 5.24046693,4.66272374 3.51570428,3.62129183 C1.8343035,2.61864591 0.432964981,2.01438132 0.292856031,2.18711284 L0.337058366,2.10253696 L0.336996109,2.10253696 L0.336964981,2.10250584 Z M6.72762646,5.25207782 C6.85410117,5.0023035 5.49101946,3.97550195 3.80105837,2.97571984 C2.07218677,1.99585992 0.826178988,1.41911284 0.598568093,1.5911284 L0.548015564,1.68314397 C0.547579767,1.68824903 0.549883268,1.67691829 0.560560311,1.66863813 C0.601898833,1.63252918 0.670505837,1.63501946 0.701447471,1.63439689 C1.09335409,1.64031128 2.212607,2.15536187 3.78297276,3.05562646 C4.47103502,3.45640467 6.68968093,4.8793463 6.68121401,5.27943969 C6.68183658,5.3138677 6.68407782,5.32096498 6.6711284,5.33796109 L6.7275642,5.25214008 L6.7275642,5.25207782 L6.72762646,5.25207782 Z" id="Shape" stroke-width="0.652"></path>
                    </g>
                    <g id="Group" transform="translate(4.279981, 5.525080)">
                        <path d="M0.0212503658,2.83373627 C0.0212503658,3.40997536 0.257235678,3.93121141 0.639529758,4.31212422 C1.0225676,4.69385162 1.54309531,4.93475994 2.12032608,4.93475994 C2.70046106,4.93475994 3.22697429,4.69909338 3.60838294,4.3188535 C3.98982701,3.93864904 4.22616649,3.41387126 4.22627274,2.83557797 L4.22620191,2.83557797 L4.22620191,0.0308838649 L0.0207545239,0.0259254462 L0.0211795312,2.83373627 L0.0212503658,2.83373627 Z" id="Shape" stroke="#000000" stroke-width="0.7623126" fill="#FFFFFF" fill-rule="nonzero"></path>
                        <path d="M0.0998767191,2.83763217 L0.0998767191,2.83922595 C0.0998767191,3.39021252 0.327963978,3.89196907 0.694001528,4.25627118 C1.06071201,4.62121079 1.56576237,4.84809386 2.11827188,4.84809386 C2.67361477,4.84809386 3.17760261,4.62283998 3.54275473,4.25928164 C3.90790685,3.8957233 4.13415241,3.39393133 4.13422324,2.84103223 L4.13415241,2.84103223 L4.13415241,0.120064567 L0.102249677,0.119356221 L0.0997704672,2.83763217 L0.0998767191,2.83763217 Z M3.32352179,0.93402441 L3.32366346,2.66557505 L3.32224677,2.84878862 C3.32224677,2.89695611 3.31934255,2.95192372 3.31374662,2.99870995 C3.28095022,3.27248549 3.15507722,3.51109168 2.96856984,3.69671363 C2.75025775,3.91403403 2.4489984,4.04883219 2.1168906,4.04883219 C1.78658908,4.04883219 1.49220068,3.90935895 1.27296774,3.6911177 C1.04806804,3.46728051 0.917732463,3.1603544 0.917732463,2.84298018 L0.917272038,0.929668085 L3.32352179,0.933988992 L3.32352179,0.934059827 L3.32352179,0.93402441 Z" id="Shape" stroke="#000000" stroke-width="0.57685446" fill="#FF0000" fill-rule="nonzero"></path>
                        <g id="e" transform="translate(0.177086, 0.141669)">
                            <g id="d">
                                <path d="M0.248275107,0.673990767 C0.248912618,0.556653331 0.328388986,0.523467343 0.328813993,0.523538178 C0.328813993,0.523538178 0.411761254,0.557751267 0.412398765,0.673990767 L0.248275107,0.673990767 Z M0.0428549043,0.355979131 L0.618208557,0.355979131 C0.630321266,0.355979131 0.64027352,0.378532323 0.64027352,0.405979131 C0.64027352,0.43342594 0.630356683,0.455908209 0.618208557,0.455908209 L0.0428549043,0.455908209 C0.0307421958,0.455908209 0.0207899412,0.433496862 0.0207899412,0.405908209 C0.0207899412,0.378461401 0.0307067785,0.355908209 0.0428549043,0.355908209 L0.0428549043,0.355979131 Z M0.0548967782,0.406236159 L0.605210417,0.406236159 C0.616791866,0.406236159 0.626283696,0.428750363 0.626283696,0.456236159 C0.626283696,0.483792977 0.616791866,0.506236159 0.605210417,0.506236159 L0.0548967782,0.506236159 C0.0433153289,0.506236159 0.0338234988,0.483792977 0.0338234988,0.456236159 C0.0338234988,0.428750363 0.0433153289,0.406236159 0.0548967782,0.406236159 Z M0.232691505,0.0312405926 L0.276148503,0.0313195816 L0.276148503,0.0656797711 L0.307846965,0.0656797711 L0.307846965,0.0305296921 L0.352366482,0.0307271645 L0.352366482,0.0657587601 L0.384100361,0.0657587601 L0.384100361,0.0306086811 L0.428655295,0.0306086811 L0.42858446,0.109992567 C0.42858446,0.122512315 0.419588472,0.130529692 0.409104958,0.130529692 L0.25291477,0.130529692 C0.242431256,0.130529692 0.232726922,0.121208997 0.232726922,0.109795095 L0.232585253,0.0312010981 L0.232691505,0.0312405926 Z M0.396319321,0.126439676 L0.406129907,0.354881108 L0.253729367,0.354349849 L0.263823291,0.125837583 L0.396283904,0.126439676 L0.396319321,0.126439676 Z" id="Shape" stroke="#000000" stroke-width="0.56889" fill="#FFFF00" fill-rule="nonzero"></path>
                                <g id="a-link" transform="translate(0.411159, 0.212504)"></g>
                                <g id="b-link" transform="translate(0.411159, 0.141669)"></g>
                                <g id="c-link" transform="translate(0.483127, 0.247921)"></g>
                            </g>
                            <g id="d-link" transform="translate(0.000000, 1.640528)">
                                <g id="d">
                                    <path d="M0.248275107,0.673990767 C0.248912618,0.556653331 0.328388986,0.523467343 0.328813993,0.523538178 C0.328813993,0.523538178 0.411761254,0.557751267 0.412398765,0.673990767 L0.248275107,0.673990767 Z M0.0428549043,0.355979131 L0.618208557,0.355979131 C0.630321266,0.355979131 0.64027352,0.378532323 0.64027352,0.405979131 C0.64027352,0.43342594 0.630356683,0.455908209 0.618208557,0.455908209 L0.0428549043,0.455908209 C0.0307421958,0.455908209 0.0207899412,0.433496862 0.0207899412,0.405908209 C0.0207899412,0.378461401 0.0307067785,0.355908209 0.0428549043,0.355908209 L0.0428549043,0.355979131 Z M0.0548967782,0.406236159 L0.605210417,0.406236159 C0.616791866,0.406236159 0.626283696,0.428750363 0.626283696,0.456236159 C0.626283696,0.483792977 0.616791866,0.506236159 0.605210417,0.506236159 L0.0548967782,0.506236159 C0.0433153289,0.506236159 0.0338234988,0.483792977 0.0338234988,0.456236159 C0.0338234988,0.428750363 0.0433153289,0.406236159 0.0548967782,0.406236159 Z M0.232691505,0.0312405926 L0.276148503,0.0313195816 L0.276148503,0.0656797711 L0.307846965,0.0656797711 L0.307846965,0.0305296921 L0.352366482,0.0307271645 L0.352366482,0.0657587601 L0.384100361,0.0657587601 L0.384100361,0.0306086811 L0.428655295,0.0306086811 L0.42858446,0.109992567 C0.42858446,0.122512315 0.419588472,0.130529692 0.409104958,0.130529692 L0.25291477,0.130529692 C0.242431256,0.130529692 0.232726922,0.121208997 0.232726922,0.109795095 L0.232585253,0.0312010981 L0.232691505,0.0312405926 Z M0.396319321,0.126439676 L0.406129907,0.354881108 L0.253729367,0.354349849 L0.263823291,0.125837583 L0.396283904,0.126439676 L0.396319321,0.126439676 Z" id="Shape" stroke="#000000" stroke-width="0.56889" fill="#FFFF00" fill-rule="nonzero"></path>
                                    <g id="a-link" transform="translate(0.411159, 0.212504)"></g>
                                    <g id="b-link" transform="translate(0.411159, 0.141669)"></g>
                                    <g id="c-link" transform="translate(0.483127, 0.247921)"></g>
                                </g>
                            </g>
                            <g id="d-link" transform="translate(0.706602, 3.705113) rotate(-45.202000) translate(-0.706602, -3.705113) translate(0.370138, 3.333232)">
                                <g id="d">
                                    <path d="M0.248275107,0.673990767 C0.248912618,0.556653331 0.328388986,0.523467343 0.328813993,0.523538178 C0.328813993,0.523538178 0.411761254,0.557751267 0.412398765,0.673990767 L0.248275107,0.673990767 Z M0.0428549043,0.355979131 L0.618208557,0.355979131 C0.630321266,0.355979131 0.64027352,0.378532323 0.64027352,0.405979131 C0.64027352,0.43342594 0.630356683,0.455908209 0.618208557,0.455908209 L0.0428549043,0.455908209 C0.0307421958,0.455908209 0.0207899412,0.433496862 0.0207899412,0.405908209 C0.0207899412,0.378461401 0.0307067785,0.355908209 0.0428549043,0.355908209 L0.0428549043,0.355979131 Z M0.0548967782,0.406236159 L0.605210417,0.406236159 C0.616791866,0.406236159 0.626283696,0.428750363 0.626283696,0.456236159 C0.626283696,0.483792977 0.616791866,0.506236159 0.605210417,0.506236159 L0.0548967782,0.506236159 C0.0433153289,0.506236159 0.0338234988,0.483792977 0.0338234988,0.456236159 C0.0338234988,0.428750363 0.0433153289,0.406236159 0.0548967782,0.406236159 Z M0.232691505,0.0312405926 L0.276148503,0.0313195816 L0.276148503,0.0656797711 L0.307846965,0.0656797711 L0.307846965,0.0305296921 L0.352366482,0.0307271645 L0.352366482,0.0657587601 L0.384100361,0.0657587601 L0.384100361,0.0306086811 L0.428655295,0.0306086811 L0.42858446,0.109992567 C0.42858446,0.122512315 0.419588472,0.130529692 0.409104958,0.130529692 L0.25291477,0.130529692 C0.242431256,0.130529692 0.232726922,0.121208997 0.232726922,0.109795095 L0.232585253,0.0312010981 L0.232691505,0.0312405926 Z M0.396319321,0.126439676 L0.406129907,0.354881108 L0.253729367,0.354349849 L0.263823291,0.125837583 L0.396283904,0.126439676 L0.396319321,0.126439676 Z" id="Shape" stroke="#000000" stroke-width="0.56889" fill="#FFFF00" fill-rule="nonzero"></path>
                                    <g id="a-link" transform="translate(0.411159, 0.212504)"></g>
                                    <g id="b-link" transform="translate(0.411159, 0.141669)"></g>
                                    <g id="c-link" transform="translate(0.483127, 0.247921)"></g>
                                </g>
                            </g>
                        </g>
                        <g id="d-link" transform="translate(1.796152, 0.141669)">
                            <g id="d">
                                <path d="M0.248275107,0.673990767 C0.248912618,0.556653331 0.328388986,0.523467343 0.328813993,0.523538178 C0.328813993,0.523538178 0.411761254,0.557751267 0.412398765,0.673990767 L0.248275107,0.673990767 Z M0.0428549043,0.355979131 L0.618208557,0.355979131 C0.630321266,0.355979131 0.64027352,0.378532323 0.64027352,0.405979131 C0.64027352,0.43342594 0.630356683,0.455908209 0.618208557,0.455908209 L0.0428549043,0.455908209 C0.0307421958,0.455908209 0.0207899412,0.433496862 0.0207899412,0.405908209 C0.0207899412,0.378461401 0.0307067785,0.355908209 0.0428549043,0.355908209 L0.0428549043,0.355979131 Z M0.0548967782,0.406236159 L0.605210417,0.406236159 C0.616791866,0.406236159 0.626283696,0.428750363 0.626283696,0.456236159 C0.626283696,0.483792977 0.616791866,0.506236159 0.605210417,0.506236159 L0.0548967782,0.506236159 C0.0433153289,0.506236159 0.0338234988,0.483792977 0.0338234988,0.456236159 C0.0338234988,0.428750363 0.0433153289,0.406236159 0.0548967782,0.406236159 Z M0.232691505,0.0312405926 L0.276148503,0.0313195816 L0.276148503,0.0656797711 L0.307846965,0.0656797711 L0.307846965,0.0305296921 L0.352366482,0.0307271645 L0.352366482,0.0657587601 L0.384100361,0.0657587601 L0.384100361,0.0306086811 L0.428655295,0.0306086811 L0.42858446,0.109992567 C0.42858446,0.122512315 0.419588472,0.130529692 0.409104958,0.130529692 L0.25291477,0.130529692 C0.242431256,0.130529692 0.232726922,0.121208997 0.232726922,0.109795095 L0.232585253,0.0312010981 L0.232691505,0.0312405926 Z M0.396319321,0.126439676 L0.406129907,0.354881108 L0.253729367,0.354349849 L0.263823291,0.125837583 L0.396283904,0.126439676 L0.396319321,0.126439676 Z" id="Shape" stroke="#000000" stroke-width="0.56889" fill="#FFFF00" fill-rule="nonzero"></path>
                                <g id="a-link" transform="translate(0.411159, 0.212504)"></g>
                                <g id="b-link" transform="translate(0.411159, 0.141669)"></g>
                                <g id="c-link" transform="translate(0.483127, 0.247921)"></g>
                            </g>
                        </g>
                        <g id="e-link" transform="translate(3.445818, 2.248997) scale(-1, 1) translate(-3.445818, -2.248997) translate(2.826015, 0.141669)">
                            <g id="e">
                                <g id="d">
                                    <path d="M0.248275107,0.673990767 C0.248912618,0.556653331 0.328388986,0.523467343 0.328813993,0.523538178 C0.328813993,0.523538178 0.411761254,0.557751267 0.412398765,0.673990767 L0.248275107,0.673990767 Z M0.0428549043,0.355979131 L0.618208557,0.355979131 C0.630321266,0.355979131 0.64027352,0.378532323 0.64027352,0.405979131 C0.64027352,0.43342594 0.630356683,0.455908209 0.618208557,0.455908209 L0.0428549043,0.455908209 C0.0307421958,0.455908209 0.0207899412,0.433496862 0.0207899412,0.405908209 C0.0207899412,0.378461401 0.0307067785,0.355908209 0.0428549043,0.355908209 L0.0428549043,0.355979131 Z M0.0548967782,0.406236159 L0.605210417,0.406236159 C0.616791866,0.406236159 0.626283696,0.428750363 0.626283696,0.456236159 C0.626283696,0.483792977 0.616791866,0.506236159 0.605210417,0.506236159 L0.0548967782,0.506236159 C0.0433153289,0.506236159 0.0338234988,0.483792977 0.0338234988,0.456236159 C0.0338234988,0.428750363 0.0433153289,0.406236159 0.0548967782,0.406236159 Z M0.232691505,0.0312405926 L0.276148503,0.0313195816 L0.276148503,0.0656797711 L0.307846965,0.0656797711 L0.307846965,0.0305296921 L0.352366482,0.0307271645 L0.352366482,0.0657587601 L0.384100361,0.0657587601 L0.384100361,0.0306086811 L0.428655295,0.0306086811 L0.42858446,0.109992567 C0.42858446,0.122512315 0.419588472,0.130529692 0.409104958,0.130529692 L0.25291477,0.130529692 C0.242431256,0.130529692 0.232726922,0.121208997 0.232726922,0.109795095 L0.232585253,0.0312010981 L0.232691505,0.0312405926 Z M0.396319321,0.126439676 L0.406129907,0.354881108 L0.253729367,0.354349849 L0.263823291,0.125837583 L0.396283904,0.126439676 L0.396319321,0.126439676 Z" id="Shape" stroke="#000000" stroke-width="0.56889" fill="#FFFF00" fill-rule="nonzero"></path>
                                    <g id="a-link" transform="translate(0.411159, 0.212504)"></g>
                                    <g id="b-link" transform="translate(0.411159, 0.141669)"></g>
                                    <g id="c-link" transform="translate(0.483127, 0.247921)"></g>
                                </g>
                                <g id="d-link" transform="translate(0.000000, 1.640528)">
                                    <g id="d">
                                        <path d="M0.248275107,0.673990767 C0.248912618,0.556653331 0.328388986,0.523467343 0.328813993,0.523538178 C0.328813993,0.523538178 0.411761254,0.557751267 0.412398765,0.673990767 L0.248275107,0.673990767 Z M0.0428549043,0.355979131 L0.618208557,0.355979131 C0.630321266,0.355979131 0.64027352,0.378532323 0.64027352,0.405979131 C0.64027352,0.43342594 0.630356683,0.455908209 0.618208557,0.455908209 L0.0428549043,0.455908209 C0.0307421958,0.455908209 0.0207899412,0.433496862 0.0207899412,0.405908209 C0.0207899412,0.378461401 0.0307067785,0.355908209 0.0428549043,0.355908209 L0.0428549043,0.355979131 Z M0.0548967782,0.406236159 L0.605210417,0.406236159 C0.616791866,0.406236159 0.626283696,0.428750363 0.626283696,0.456236159 C0.626283696,0.483792977 0.616791866,0.506236159 0.605210417,0.506236159 L0.0548967782,0.506236159 C0.0433153289,0.506236159 0.0338234988,0.483792977 0.0338234988,0.456236159 C0.0338234988,0.428750363 0.0433153289,0.406236159 0.0548967782,0.406236159 Z M0.232691505,0.0312405926 L0.276148503,0.0313195816 L0.276148503,0.0656797711 L0.307846965,0.0656797711 L0.307846965,0.0305296921 L0.352366482,0.0307271645 L0.352366482,0.0657587601 L0.384100361,0.0657587601 L0.384100361,0.0306086811 L0.428655295,0.0306086811 L0.42858446,0.109992567 C0.42858446,0.122512315 0.419588472,0.130529692 0.409104958,0.130529692 L0.25291477,0.130529692 C0.242431256,0.130529692 0.232726922,0.121208997 0.232726922,0.109795095 L0.232585253,0.0312010981 L0.232691505,0.0312405926 Z M0.396319321,0.126439676 L0.406129907,0.354881108 L0.253729367,0.354349849 L0.263823291,0.125837583 L0.396283904,0.126439676 L0.396319321,0.126439676 Z" id="Shape" stroke="#000000" stroke-width="0.56889" fill="#FFFF00" fill-rule="nonzero"></path>
                                        <g id="a-link" transform="translate(0.411159, 0.212504)"></g>
                                        <g id="b-link" transform="translate(0.411159, 0.141669)"></g>
                                        <g id="c-link" transform="translate(0.483127, 0.247921)"></g>
                                    </g>
                                </g>
                                <g id="d-link" transform="translate(0.706602, 3.705113) rotate(-45.202000) translate(-0.706602, -3.705113) translate(0.370138, 3.333232)">
                                    <g id="d">
                                        <path d="M0.248275107,0.673990767 C0.248912618,0.556653331 0.328388986,0.523467343 0.328813993,0.523538178 C0.328813993,0.523538178 0.411761254,0.557751267 0.412398765,0.673990767 L0.248275107,0.673990767 Z M0.0428549043,0.355979131 L0.618208557,0.355979131 C0.630321266,0.355979131 0.64027352,0.378532323 0.64027352,0.405979131 C0.64027352,0.43342594 0.630356683,0.455908209 0.618208557,0.455908209 L0.0428549043,0.455908209 C0.0307421958,0.455908209 0.0207899412,0.433496862 0.0207899412,0.405908209 C0.0207899412,0.378461401 0.0307067785,0.355908209 0.0428549043,0.355908209 L0.0428549043,0.355979131 Z M0.0548967782,0.406236159 L0.605210417,0.406236159 C0.616791866,0.406236159 0.626283696,0.428750363 0.626283696,0.456236159 C0.626283696,0.483792977 0.616791866,0.506236159 0.605210417,0.506236159 L0.0548967782,0.506236159 C0.0433153289,0.506236159 0.0338234988,0.483792977 0.0338234988,0.456236159 C0.0338234988,0.428750363 0.0433153289,0.406236159 0.0548967782,0.406236159 Z M0.232691505,0.0312405926 L0.276148503,0.0313195816 L0.276148503,0.0656797711 L0.307846965,0.0656797711 L0.307846965,0.0305296921 L0.352366482,0.0307271645 L0.352366482,0.0657587601 L0.384100361,0.0657587601 L0.384100361,0.0306086811 L0.428655295,0.0306086811 L0.42858446,0.109992567 C0.42858446,0.122512315 0.419588472,0.130529692 0.409104958,0.130529692 L0.25291477,0.130529692 C0.242431256,0.130529692 0.232726922,0.121208997 0.232726922,0.109795095 L0.232585253,0.0312010981 L0.232691505,0.0312405926 Z M0.396319321,0.126439676 L0.406129907,0.354881108 L0.253729367,0.354349849 L0.263823291,0.125837583 L0.396283904,0.126439676 L0.396319321,0.126439676 Z" id="Shape" stroke="#000000" stroke-width="0.56889" fill="#FFFF00" fill-rule="nonzero"></path>
                                        <g id="a-link" transform="translate(0.411159, 0.212504)"></g>
                                        <g id="b-link" transform="translate(0.411159, 0.141669)"></g>
                                        <g id="c-link" transform="translate(0.483127, 0.247921)"></g>
                                    </g>
                                </g>
                            </g>
                        </g>
                        <g id="f" transform="translate(1.841698, 2.125037)" fill="#003399" fill-rule="nonzero">
                            <path d="M0.0225253877,0.403969453 L0.0225253877,0.404146539 C0.0222318258,0.478808399 0.0502232039,0.550811537 0.100868403,0.605670841 C0.149212985,0.657627986 0.215797464,0.689893124 0.288650802,0.689893124 C0.361858312,0.689893124 0.428336539,0.657840489 0.476468618,0.606131266 C0.524565279,0.554422043 0.55445746,0.483162483 0.55445746,0.404500712 L0.55445746,0.0231274814 L0.0234816542,0.0226670568 L0.0224899704,0.403934036" id="Shape"></path>
                        </g>
                        <g id="f-link" transform="translate(1.841698, 1.203621)" fill="#003399" fill-rule="nonzero">
                            <g id="f">
                                <path d="M0.0225253877,0.403969453 L0.0225253877,0.404146539 C0.0222318258,0.478808399 0.0502232039,0.550811537 0.100868403,0.605670841 C0.149212985,0.657627986 0.215797464,0.689893124 0.288650802,0.689893124 C0.361858312,0.689893124 0.428336539,0.657840489 0.476468618,0.606131266 C0.524565279,0.554422043 0.55445746,0.483162483 0.55445746,0.404500712 L0.55445746,0.0231274814 L0.0234816542,0.0226670568 L0.0224899704,0.403934036" id="Shape"></path>
                            </g>
                        </g>
                        <g id="f-link" transform="translate(1.105054, 2.125037)" fill="#003399" fill-rule="nonzero">
                            <g id="f">
                                <path d="M0.0225253877,0.403969453 L0.0225253877,0.404146539 C0.0222318258,0.478808399 0.0502232039,0.550811537 0.100868403,0.605670841 C0.149212985,0.657627986 0.215797464,0.689893124 0.288650802,0.689893124 C0.361858312,0.689893124 0.428336539,0.657840489 0.476468618,0.606131266 C0.524565279,0.554422043 0.55445746,0.483162483 0.55445746,0.404500712 L0.55445746,0.0231274814 L0.0234816542,0.0226670568 L0.0224899704,0.403934036" id="Shape"></path>
                            </g>
                        </g>
                        <g id="f-link" transform="translate(2.576430, 2.125037)" fill="#003399" fill-rule="nonzero">
                            <g id="f">
                                <path d="M0.0225253877,0.403969453 L0.0225253877,0.404146539 C0.0222318258,0.478808399 0.0502232039,0.550811537 0.100868403,0.605670841 C0.149212985,0.657627986 0.215797464,0.689893124 0.288650802,0.689893124 C0.361858312,0.689893124 0.428336539,0.657840489 0.476468618,0.606131266 C0.524565279,0.554422043 0.55445746,0.483162483 0.55445746,0.404500712 L0.55445746,0.0231274814 L0.0234816542,0.0226670568 L0.0224899704,0.403934036" id="Shape"></path>
                            </g>
                        </g>
                        <g id="f-link" transform="translate(1.841698, 3.038236)" fill="#003399" fill-rule="nonzero">
                            <g id="f">
                                <path d="M0.0225253877,0.403969453 L0.0225253877,0.404146539 C0.0222318258,0.478808399 0.0502232039,0.550811537 0.100868403,0.605670841 C0.149212985,0.657627986 0.215797464,0.689893124 0.288650802,0.689893124 C0.361858312,0.689893124 0.428336539,0.657840489 0.476468618,0.606131266 C0.524565279,0.554422043 0.55445746,0.483162483 0.55445746,0.404500712 L0.55445746,0.0231274814 L0.0234816542,0.0226670568 L0.0224899704,0.403934036" id="Shape"></path>
                            </g>
                        </g>
                    </g>
                </g>
            </g>
        </g>
    </g>
</svg>