<?xml version="1.0" encoding="UTF-8"?>
<svg width="16px" height="16px" viewBox="0 0 16 16" version="1.1" xmlns="http://www.w3.org/2000/svg" xmlns:xlink="http://www.w3.org/1999/xlink">
    <!-- Generator: sketchtool 48.1 (47250) - http://www.bohemiancoding.com/sketch -->
    <title>D791845D-33E6-4A9E-8D0D-AFA799AA5BFE</title>
    <desc>Created with sketchtool.</desc>
    <defs>
        <polygon id="path-1" points="0.000643863179 0 15.9703823 0 15.9703823 15.9697384 0.000643863179 15.9697384"></polygon>
    </defs>
    <g id="Guide" stroke="none" stroke-width="1" fill="none" fill-rule="evenodd" transform="translate(-314.000000, -1707.000000)">
        <g id="Language" transform="translate(284.000000, 1615.000000)">
            <g id="Arab" transform="translate(30.000000, 86.000000)">
                <g id="sa" transform="translate(0.000000, 6.000000)">
                    <mask id="mask-2" fill="white">
                        <use xlink:href="#path-1"></use>
                    </mask>
                    <g id="Shape"></g>
                    <g id="Group" mask="url(#mask-2)" fill-rule="nonzero">
                        <g transform="translate(-8.112676, 0.000000)" id="Shape">
                            <polygon fill="#199D00" points="0 0 24.7235506 0 24.7235506 16.482367 0 16.482367"></polygon>
                            <path d="M6.23064441,4.67231878 C6.2021028,5.05738137 6.16784621,5.73500382 6.49502814,5.80451379 C6.89075647,5.8425582 6.67255765,5.1347328 6.81579735,5.0063786 C6.84287699,4.9429491 6.89281651,4.94261684 6.89693661,5.02262639 L6.89693661,5.62303032 C6.89331491,5.81826958 7.02166911,5.87578476 7.12138201,5.9161218 C7.22514856,5.9081142 7.29442593,5.91156976 7.33509524,6.01254527 L7.38377215,7.05110784 C7.38377215,7.05110784 7.62443212,7.1199865 7.63589529,6.4669517 C7.64739167,6.08351721 7.55930807,5.76254864 7.61094214,5.68795502 C7.6127696,5.61465723 7.70636882,5.61027132 7.77129351,5.64598987 C7.87472779,5.7189554 7.92081303,5.80906583 8.08156313,5.77301501 C8.32617706,5.70563155 8.47320458,5.58664724 8.47682628,5.3988175 C8.46253886,5.22032442 8.44253647,5.04179812 8.36518504,4.86330504 C8.37598367,4.83084269 8.3179701,4.74674627 8.3287355,4.71428392 C8.37269424,4.78312935 8.4395793,4.77741438 8.45479707,4.71428392 C8.41316419,4.57709146 8.34857176,4.44564719 8.24384164,4.38876332 C8.15728645,4.31250837 8.03062681,4.32809162 7.98424253,4.48711393 C7.96274495,4.67035841 8.05029693,4.88805883 8.1837348,5.06555511 C8.21207705,5.13489894 8.25188247,5.25012864 8.23437207,5.35389519 C8.16336692,5.39439836 8.09236176,5.37751927 8.03288622,5.31472108 C8.03288622,5.31472108 7.83817858,5.16869035 7.83817858,5.136228 C7.88984588,4.80542437 7.84964174,4.76791159 7.82100045,4.6761066 C7.80099806,4.54938051 7.74085799,4.50874442 7.69214785,4.42218924 C7.64343771,4.37055516 7.57754945,4.37055516 7.54605067,4.42218924 C7.45999388,4.57137649 7.50013156,4.89164729 7.56229846,5.03508635 C7.60722076,5.16702902 7.67586684,5.2498296 7.64343771,5.2498296 C7.61672356,5.32439 7.56150102,5.30717865 7.52133011,5.22112186 C7.46398107,5.04326009 7.45248468,4.77787956 7.45248468,4.65836362 C7.43527332,4.51020639 7.41636741,4.19418859 7.31884746,4.11387999 C7.25937191,4.03287364 7.17118863,4.07238002 7.14038761,4.14630912 C7.13397488,4.29336987 7.13331035,4.44039739 7.14985718,4.57592853 C7.21674224,4.81363133 7.23774142,5.02262639 7.27020377,5.26604417 C7.27920817,5.59209639 7.08167628,5.40752286 7.0907139,5.24587564 C7.13626751,5.03591702 7.12443886,4.70544566 7.08396891,4.6216815 C7.05187205,4.53791734 7.01399377,4.51725042 6.93594459,4.53103945 C6.87397705,4.52725162 6.71452279,4.70135879 6.66976662,4.99016404 C6.66976662,4.99016404 6.6315893,5.13881967 6.61530829,5.27079556 C6.59341199,5.41994959 6.4952275,5.52521133 6.42638207,5.2498296 C6.3668733,5.04967281 6.33029086,4.55692294 6.23064441,4.67231878 Z" fill="#FFFFFF"></path>
                            <path d="M7.12576792,6.57487157 C6.58267981,7.97480619 8.39751448,8.16987932 8.6003294,6.63222061 C8.61943467,6.56912337 8.69595544,6.50599291 8.70934574,6.60926105 C8.66724769,8.00152034 7.30555683,8.09717961 7.07416707,7.6591871 C7.01681803,7.55595218 6.99957345,7.32645634 6.99382525,7.18873225 C6.95940254,6.91527767 6.81599671,7.02043973 6.79303715,7.2920004 C6.7700776,7.44308156 6.7758258,7.48521284 6.7758258,7.63054581 C6.84849228,8.73021202 8.60228976,8.25783002 8.88720751,7.34941589 C9.03828868,6.84639901 8.86232082,6.47542447 8.94455655,6.47728516 C9.11859727,6.66474941 9.36145019,6.50217185 9.41501141,6.43714748 C9.43797096,6.40461868 9.49538645,6.38361949 9.53552414,6.42568431 C9.67128786,6.52327072 9.91041941,6.47728516 9.96009311,6.30517158 C9.98880086,6.13687906 10.0117604,5.96283834 10.0175086,5.78311588 C9.9065319,5.81757182 9.82432939,5.84046492 9.81668728,5.88638403 L9.79372773,6.03553805 C9.78419171,6.0833843 9.68849922,6.08524499 9.68471139,6.02404166 C9.64264656,5.83278959 9.46860585,5.80793612 9.36341056,6.10441671 C9.29263799,6.16176575 9.16451638,6.17326214 9.15109285,6.08720535 C9.1683042,5.88831117 9.08796238,5.86149734 8.92734519,5.95522946 C8.87571112,5.56126215 8.82411027,5.18450619 8.77244297,4.79053887 C8.83939449,4.78861173 8.90063104,4.83831867 8.96183436,4.76183113 C8.89481639,4.55340092 8.7533377,4.1269048 8.6748898,4.09630314 C8.63664603,4.05041727 8.604084,4.07909179 8.55441029,4.09055495 C8.47028064,4.11733556 8.39183274,4.19000204 8.4166862,4.33154718 C8.5161333,4.93587185 8.5811909,5.39679068 8.68063799,6.00114856 C8.69592221,6.07192114 8.63664603,6.16555358 8.56015849,6.15601756 C8.43010973,6.06803363 8.39768061,5.89020508 8.17576042,5.89781397 C8.01511001,5.89974111 7.83146681,6.07378182 7.80857371,6.2421408 C7.78179311,6.37594415 7.77219063,6.52127713 7.80850726,6.6379688 C7.92141111,6.77373252 8.05717483,6.76040867 8.17576042,6.72977379 C8.27328037,6.6896361 8.35358897,6.59208292 8.38804491,6.61500925 C8.41100446,6.643717 8.39372665,6.96495137 7.92901999,7.2116918 C7.64789007,7.3379195 7.4241092,7.36662725 7.30369614,7.13709818 C7.22910252,6.99365912 7.30941111,6.44861064 7.12576792,6.57487157 Z" fill="#FFFFFF"></path>
                            <path d="M9.42936528,5.15177803 C9.53838162,5.11160712 10.054822,4.52067276 10.054822,4.52067276 C10.0280082,4.49771321 10.0040851,4.48050185 9.97730447,4.4575423 C9.94859672,4.43268883 9.95148743,4.40783536 9.97730447,4.38294867 C10.1054261,4.30838827 10.0643248,4.14484715 9.99740654,4.07028675 C9.88646306,4.02054659 9.78987345,4.03679438 9.71910088,4.07314423 C9.62922303,4.15920102 9.60822385,4.29689188 9.67899642,4.38294867 C9.74787508,4.41547747 9.81668728,4.48528647 9.77076818,4.52353024 C9.55948049,4.74920504 8.98093963,5.13838772 9.04789115,5.15177803 C9.06217857,5.17091653 9.41793534,5.16995296 9.42936528,5.15177803 Z M6.31072042,7.24305767 C6.1170428,7.5515995 6.10019694,8.01255156 6.20705355,8.14997661 C6.26383774,8.21490131 6.35713792,8.24334324 6.42614949,8.22300859 C6.54782515,8.17024481 6.60108732,7.92370374 6.57221344,7.83352686 C6.53161059,7.76996445 6.49961341,7.7598968 6.45907701,7.81395642 C6.37345216,7.98779778 6.33789974,7.86854765 6.33039054,7.77139319 C6.31726605,7.58715192 6.33461031,7.41746388 6.3546127,7.28309568 C6.37591093,7.14537159 6.35424721,7.18746964 6.31072042,7.24305767 Z M14.5871241,6.74897874 C14.3998592,6.34590734 14.1406256,5.94758735 14.058124,5.79457905 C13.9756557,5.64150429 13.3529568,4.73780833 13.2612847,4.63616828 C13.0590014,4.39577412 13.5897625,4.7362799 13.1941338,4.2590136 C13.0432852,4.12959616 13.0345134,4.12172146 12.9093157,4.01612746 C12.8461521,3.97130483 12.6919476,3.88943459 12.6646354,4.02513185 C12.6509128,4.14478069 12.6583223,4.20967216 12.6784244,4.30928539 C12.6938415,4.37570528 12.7905973,4.4869478 12.8381777,4.55140733 C13.4699475,5.40061173 14.0301473,6.25822245 14.5703779,7.33649076 C14.6556705,7.29595436 14.6370304,6.81642865 14.5871241,6.74897874 Z" fill="#FFFFFF"></path>
                            <path d="M13.765099,8.09764478 C13.728284,8.13897862 13.8560069,8.31577714 14.0220068,8.31561101 C14.2996147,8.28338125 14.543996,8.127449 14.7702689,7.71696809 C14.8307744,7.62124237 14.9371327,7.41650031 14.940256,7.25767736 C14.9614213,6.32650303 14.8936391,5.60193145 14.7541208,4.92892749 C14.7451828,4.86337149 14.750632,4.7863191 14.7617297,4.76664898 C14.7797052,4.74518462 14.840676,4.76674866 14.8730054,4.71371907 C14.9204529,4.66527475 14.7470103,4.26399759 14.6481281,4.10942763 C14.6130076,4.04041607 14.6007802,3.99433083 14.542667,4.11753492 C14.4815301,4.21767976 14.4404621,4.39241824 14.4452799,4.55569355 C14.577721,5.47258046 14.6183903,6.27470283 14.7049455,7.19162296 C14.7119895,7.28030465 14.6989647,7.40915724 14.6400208,7.46052551 C14.4219881,7.68819389 14.1072993,7.96842669 13.765099,8.09764478 Z M17.5150485,8.0926608 C17.315822,8.20782405 17.3155895,8.34029834 17.4766718,8.34508297 C17.7542797,8.31285321 18.0822923,8.28979397 18.3085652,7.94819172 C18.369104,7.852466 18.4410063,7.59359788 18.4441296,7.43477492 C18.4652949,6.5036006 18.4319686,5.80856743 18.2924503,5.13556347 C18.2835124,5.07000747 18.2545056,4.91912566 18.2656032,4.89945554 C18.2835788,4.8533703 18.374088,4.90447275 18.4064174,4.85144316 C18.4538649,4.80299883 18.1721369,4.44109515 18.0732547,4.2865252 C18.0381342,4.21751363 18.0259068,4.17142839 17.9677936,4.29463248 C17.9066567,4.39477733 17.885292,4.57443333 17.90978,4.73279111 C18.0569737,5.72842497 18.1665549,6.47642127 18.1891489,7.35888546 C18.1764896,7.44264962 18.1733331,7.48780451 18.1340593,7.59333206 C18.0471718,7.70470749 17.9509145,7.84396 17.8606379,7.91127701 C17.7703946,7.97856079 17.5778467,8.04278773 17.5150485,8.0926608 Z" fill="#FFFFFF"></path>
                            <path d="M17.664568,7.20019541 C17.6622754,6.96734368 17.6678574,6.76628977 17.6601821,6.59261455 C17.65254,6.41893932 17.6218387,6.27752709 17.5617318,6.15425655 C17.5048479,6.0220813 17.5401678,5.91585599 17.5134536,5.77507506 C17.4867727,5.63432735 17.4933516,5.42353806 17.4530145,5.25650814 C17.4419501,5.19128441 17.408059,4.98238903 17.4185253,4.96235341 C17.4349725,4.91573655 17.4976046,4.96381538 17.5282062,4.909789 C17.5740256,4.85984948 17.3692836,4.33008522 17.2654174,4.17880469 C17.2280707,4.11098928 17.1602553,4.13421465 17.076624,4.2444936 C16.9990733,4.3170604 17.0278475,4.4825619 17.0574523,4.64002256 C17.2566455,5.6795487 17.4052347,6.62042518 17.3728056,7.60997857 C17.3628709,7.69410822 17.6666281,7.35901837 17.664568,7.20019541 Z M16.1926314,5.91067264 C16.0673341,5.90838001 15.8049107,5.66685615 15.7283235,5.52534424 C15.6993832,5.44417175 15.7179568,5.36499286 15.7434748,5.31860858 C15.7898591,5.28843887 15.8612297,5.25454778 15.9145916,5.28704335 C15.9145916,5.28704335 15.9699138,5.36446123 15.9592149,5.3742963 C16.0276283,5.40705768 16.0566684,5.38821822 16.0636127,5.36037437 C16.0682644,5.31166423 16.0433777,5.28262422 16.0431119,5.22896333 C16.0721187,5.083431 16.2384509,5.06080371 16.3010829,5.15360549 C16.3469356,5.21019032 16.3637482,5.33040401 16.3706926,5.4115765 C16.3699616,5.45304324 16.3028107,5.40439956 16.2646666,5.41436753 C16.2264893,5.42436872 16.2173188,5.46839391 16.2143616,5.50823256 C16.2074505,5.61376011 16.1949573,5.78308266 16.1926314,5.91067264 Z M13.8803952,7.45836578 C13.9149176,7.14198248 13.8676362,6.57852649 13.8644796,6.39182645 C13.8518203,5.9507771 13.7797851,5.09891457 13.7454953,4.95660522 C13.7068529,4.68833398 13.8558407,4.98604395 13.8352071,4.83011171 C13.7868956,4.56220596 13.6383065,4.38062281 13.4636344,4.13524467 C13.4073154,4.05543448 13.4092093,4.03915346 13.3222554,4.15481511 C13.2260313,4.37311361 13.3090977,4.52326443 13.3339512,4.69325151 C13.4599131,5.24713825 13.5334102,5.75680045 13.5676336,6.26061477 C13.6018569,6.76446231 13.6123565,7.30917853 13.5811236,7.83980668 C13.6755202,7.84352805 13.8272991,7.68709741 13.8803952,7.45836578 Z" fill="#FFFFFF"></path>
                            <path d="M18.0908648,6.95166075 C17.8699414,6.58095203 17.5365461,6.17947551 17.4474657,6.03018858 C17.3584185,5.88086842 16.6051059,4.90892511 16.5091144,4.81137193 C16.2335333,4.52186892 16.6355082,4.76425667 16.4563506,4.54064192 C16.3048375,4.37427654 16.2606462,4.32204439 16.1309629,4.22199922 C16.0659386,4.17996762 16.0265319,4.09972548 16.0051672,4.236486 C15.9966612,4.35663324 15.9877897,4.49561993 15.9958638,4.59689449 C15.9953986,4.65318028 16.0540102,4.75894042 16.1043485,4.82127344 C16.7725014,5.64216882 17.5012595,6.48037523 18.0879408,7.53408911 C18.171406,7.48986456 18.1436618,7.01688448 18.0908648,6.95166075 Z" fill="#FFFFFF"></path>
                            <path d="M15.5221195,11.6711612 C15.81757,11.6820263 16.0109486,11.6846512 16.2737375,11.7159174 C16.2737375,11.7159174 16.5003426,11.6935227 16.5812825,11.6812953 C16.9233499,11.6486669 16.9385012,12.1698587 16.9385012,12.1698587 C16.9347466,12.475543 16.8167591,12.491525 16.6661431,12.5238212 C16.5800863,12.534786 16.534865,12.4722868 16.4896437,12.405734 C16.4328595,12.429491 16.3557074,12.4329133 16.2622079,12.419955 C16.1391034,12.4122464 16.0159658,12.4127448 15.8928614,12.4050363 C15.7620485,12.3935066 15.692472,12.4186591 15.5616591,12.4071295 C15.5347123,12.4494602 15.4996583,12.5080718 15.4196488,12.4891991 C15.353096,12.4818561 15.2742493,12.2949899 15.2974747,12.1529464 C15.3455203,12.0510737 15.3323294,12.0838351 15.3273122,12.0390789 C14.1192941,12.0083111 12.8997133,11.9544509 11.7149206,11.9698348 C10.7877667,11.9736891 9.87210918,12.0121654 8.95645166,12.0506418 C8.46785511,12.0429332 8.09468762,11.9659805 7.83691597,11.5889587 C7.86000843,11.5889587 9.08341034,11.6582029 9.44122716,11.6351104 C10.1029341,11.6274019 10.7069265,11.5735748 11.3801963,11.5543367 C12.7074976,11.5773959 14.0232694,11.5774291 15.3504378,11.6697325 C15.2234792,11.5828783 15.2189271,11.3777043 15.4143325,11.3275654 C15.4309458,11.3161355 15.4395182,11.4295709 15.4687576,11.4274444 C15.6250886,11.4157155 15.5565422,11.6275015 15.5221527,11.6711612 L15.5221195,11.6711612 Z M10.1932439,4.35500513 C9.99209029,4.92992429 10.3084736,5.55880338 10.5278353,5.49756683 C10.6860934,5.56308961 10.7868696,5.26202375 10.8516614,4.9321837 C10.8959856,4.8396145 10.929478,4.82974621 10.9522382,4.87732665 C10.9463903,5.31595046 10.983737,5.41310492 11.0965079,5.54624374 C11.3480662,5.74032007 11.5561641,5.57103075 11.5724784,5.55468329 L11.7683489,5.35881272 C11.8119422,5.31296007 11.869989,5.31026872 11.9315578,5.35067221 C11.9913988,5.40506409 11.9829925,5.4990288 12.1111141,5.56418608 C12.2189343,5.60731416 12.4494602,5.57415405 12.5028552,5.48125259 C12.5747243,5.35808174 12.5919689,5.31578433 12.6252619,5.26906778 C12.6765637,5.2007872 12.764016,5.23115628 12.764016,5.25272032 C12.7558423,5.29079795 12.7045072,5.32890882 12.739528,5.39748843 C12.800532,5.44324141 12.8146201,5.41380268 12.8507041,5.40363535 C12.9783273,5.34263139 13.0741527,5.06502348 13.0741527,5.06502348 C13.0798012,4.96175534 13.0219206,4.97029456 12.9843745,4.99155956 C12.9353986,5.02149669 12.9322088,5.03106594 12.8832329,5.06100307 C12.8208334,5.07027328 12.6997891,5.11164034 12.639948,5.01897147 C12.5788444,4.90756282 12.5780137,4.75212897 12.5312972,4.63975675 C12.5312972,4.63158301 12.4502244,4.46275887 12.5256819,4.45196024 C12.5637595,4.45903749 12.6449985,4.48053508 12.6579236,4.41212159 C12.6978619,4.34543589 12.5723984,4.15660935 12.486541,4.06118267 C12.4120138,3.97937888 12.3087457,3.96951059 12.209066,4.05304216 C12.139257,4.1172691 12.1492914,4.18903847 12.1356021,4.25705324 C12.1178259,4.33516888 12.1216137,4.43126009 12.2008923,4.53452824 C12.2705684,4.67192006 12.3976932,4.84885149 12.3559606,5.09765196 C12.3559606,5.09765196 12.2816993,5.21524076 12.152315,5.19985686 C12.0983883,5.18809466 12.010936,5.16520156 11.9642195,4.82017697 C11.9288664,4.55901621 11.9725594,4.19362374 11.8617156,4.0223076 C11.8216776,3.91887332 11.7924382,3.81899428 11.694885,3.99589248 C11.6686692,4.06536922 11.5561641,4.17079709 11.6377685,4.38763362 C11.7045207,4.52512512 11.7317,4.74887277 11.7013974,4.99780615 C11.655146,5.0685455 11.644879,5.09250185 11.5842406,5.16324119 C11.4990477,5.25484682 11.4066114,5.23145532 11.3358056,5.19726519 C11.2696515,5.15267515 11.2178513,5.12961591 11.1876483,4.98797109 C11.1930975,4.76219662 11.2056904,4.3926176 11.164423,4.31420292 C11.1035852,4.19275985 11.0032409,4.23668536 10.9603787,4.27336748 C10.7544405,4.46166239 10.6527007,4.77937475 10.5905338,5.03236177 C10.5334174,5.21673595 10.472646,5.16390572 10.4299167,5.08951146 C10.3258843,4.99202473 10.3188403,4.22967455 10.1932439,4.35500513 Z" fill="#FFFFFF"></path>
                            <path d="M10.7989641,5.60465603 C10.8903039,5.53996392 10.8476077,5.49474257 10.9842021,5.63130373 C11.1552192,5.92369746 11.2651327,6.30234733 11.2816131,6.6378359 C11.2744029,6.72050358 11.3326823,6.77283541 11.35933,6.75485984 C11.375179,6.5607835 11.8471291,6.29035254 12.279905,6.25081293 C12.3460923,6.23642583 12.3138958,6.10960005 12.3246944,6.04490794 C12.2987445,5.80464669 12.4596939,5.58591625 12.6853023,5.56847231 C12.9923489,5.61385979 13.0945538,5.77779963 13.0997372,6.02802885 C13.0665771,6.50841845 12.5661518,6.58985674 12.2849887,6.62816697 C12.2418606,6.64448121 12.2238851,6.66438392 12.2849887,6.68790832 L13.4630696,6.6932578 L13.5231764,6.72797955 C13.5303866,6.75605599 13.5059983,6.73263127 13.4594811,6.80921849 C13.4129972,6.88580571 13.3444175,7.06240487 13.3408623,7.18032593 C12.9898569,7.29319655 12.6268235,7.34263767 12.2578426,7.38726094 C12.1296545,7.45208596 12.0661254,7.53847501 12.0924408,7.63569593 C12.1355689,7.74351611 12.419523,7.85123662 12.419523,7.85635351 C12.4734497,7.89017814 12.5372447,7.96909122 12.404272,8.13080489 C11.8296187,8.10551948 11.3843164,7.860972 11.2301451,7.5158145 C11.1836944,7.47979691 11.1336552,7.51561514 11.1015916,7.56226523 C10.8772458,7.8514692 10.6564886,8.1119322 10.2739844,8.25018791 C10.0458841,8.30717146 9.81236783,8.21520035 9.70208888,8.06581374 C9.62825946,7.98078697 9.63108372,7.88692194 9.60397085,7.86658729 C9.48070031,7.92111207 8.41977627,8.3718968 8.55424416,8.16190495 C8.81244775,7.88555965 9.25944466,7.68254537 9.65420941,7.40978855 C9.68268457,7.31841551 9.73448477,7.00924238 9.89041702,6.9085659 C9.89942141,6.90933011 9.86569646,7.09011582 9.86908557,7.16637078 C9.87084657,7.22896961 9.8645003,7.25349081 9.87818964,7.23737593 C9.90483734,7.22039716 10.3838314,6.8440067 10.4208458,6.72857763 C10.4675624,6.66239032 10.4348674,6.49476233 10.4348674,6.48967867 C10.3450228,6.258156 10.2190277,6.23848588 10.1723111,6.12345553 C10.1302463,5.97064658 10.1492851,5.79620715 10.2366378,5.74759669 C10.3141886,5.67718961 10.40606,5.68589497 10.4907877,5.76284768 C10.5875435,5.84950255 10.6734673,6.01885832 10.6983208,6.14501957 C10.6817075,6.19492586 10.5717276,6.11185946 10.5335503,6.13661325 C10.6010999,6.20655515 10.6326319,6.28722924 10.6570202,6.38594535 C10.7194197,6.65019618 10.7003809,6.7529327 10.6375827,6.92381689 C10.4248995,7.37097993 10.1531062,7.50441779 9.91530371,7.67005219 C9.90895744,7.67231159 9.90473766,7.78352089 9.99418356,7.84366096 C10.0250178,7.87602363 10.1490526,7.89263691 10.2949172,7.84592037 C10.5767448,7.6922143 10.8693379,7.40909079 11.0145712,7.09367106 C11.0567357,6.85507114 10.998257,6.60208412 10.936223,6.38145976 C10.8427567,6.16581939 10.7326771,5.85794209 10.7326771,5.85285843 C10.7290554,5.71839054 10.7399869,5.67174046 10.7989641,5.60465603 Z M7.71454255,4.36098592 C7.85014014,4.4256448 8.1050543,4.39813321 8.0942889,4.17950245 C8.0942889,4.16016459 8.08937137,4.0947415 8.08744423,4.07703174 C8.0597665,4.01257221 7.98424253,4.02848774 7.96713086,4.09504053 C7.96174815,4.11683716 7.97673333,4.15232312 7.95699675,4.16328789 C7.9456665,4.17471782 7.90233906,4.16800606 7.9041333,4.10760017 C7.9041333,4.088362 7.88994556,4.06766185 7.88140633,4.0554677 C7.87283388,4.04985241 7.86738472,4.04829077 7.85186792,4.04829077 C7.83296201,4.04905498 7.83326105,4.05397251 7.82289436,4.0698548 C7.81850846,4.08603614 7.812428,4.10185198 7.812428,4.12019304 C7.81006891,4.14169062 7.80196163,4.14936596 7.78614579,4.15252248 C7.76846926,4.15252248 7.77245644,4.15448285 7.7581358,4.14534555 C7.7496298,4.13604211 7.7389973,4.13248687 7.7389973,4.11660457 C7.7389973,4.10015742 7.73527592,4.07354295 7.73032517,4.06267787 C7.72281596,4.05277635 7.71075472,4.04819109 7.69716506,4.0447023 C7.62310306,4.04496811 7.61798617,4.12943002 7.62223917,4.16149365 C7.61669033,4.16754089 7.61353381,4.319054 7.71454255,4.36098592 Z" fill="#FFFFFF"></path>
                            <path d="M11.6894358,6.04357888 C11.8250334,6.10823777 12.1477962,6.07102402 12.0691822,5.86209541 C12.0691822,5.84275756 12.0642647,5.77733446 12.0623375,5.75962471 C12.0346598,5.69516518 11.9591358,5.7110807 11.9420242,5.7776335 C11.9366414,5.79943012 11.9516266,5.83491609 11.9318901,5.84588085 C11.9205598,5.85731079 11.8772324,5.85059902 11.8790266,5.79019314 C11.8790266,5.77095496 11.8648389,5.75025482 11.8562996,5.73806067 C11.8477272,5.73244538 11.842278,5.73088373 11.8267612,5.73088373 C11.8078553,5.73164794 11.8081543,5.73656547 11.7977877,5.75244777 C11.7934018,5.7686291 11.7873213,5.78444494 11.7873213,5.80278601 C11.7849622,5.82428359 11.7768549,5.83195892 11.7610391,5.83511545 C11.7433626,5.83511545 11.7473497,5.83707581 11.7330291,5.82793851 C11.7245231,5.81863507 11.7138906,5.81507983 11.7138906,5.79919754 C11.7138906,5.78275039 11.7101692,5.75613592 11.7052185,5.74527083 C11.6977093,5.73536932 11.685648,5.73078405 11.6720584,5.72729526 C11.5979964,5.72756108 11.5928795,5.81202299 11.5971325,5.84408662 C11.5915836,5.85013385 11.5884271,6.00164696 11.6894358,6.04357888 Z M14.0069884,5.3471502 C14.142586,5.41180908 14.3975001,5.38429749 14.3867347,5.16566673 C14.3867347,5.14632887 14.3818172,5.08090578 14.37989,5.06319602 C14.3522123,4.9987365 14.2766883,5.01465202 14.2595767,5.08120482 C14.254194,5.10300144 14.2691791,5.1384874 14.2494426,5.14945217 C14.2381123,5.16088211 14.1947849,5.15417034 14.1965791,5.09376446 C14.1965791,5.07452628 14.1823914,5.05382613 14.1738521,5.04163198 C14.1652797,5.0360167 14.1598305,5.03445505 14.1443137,5.03445505 C14.1254078,5.03521926 14.1257069,5.04013679 14.1153402,5.05601908 C14.1109543,5.07220042 14.1048738,5.08801626 14.1048738,5.10635732 C14.1025147,5.12785491 14.0944074,5.13553024 14.0785916,5.13868676 C14.0609151,5.13868676 14.0649023,5.14064713 14.0505816,5.13150983 C14.0420756,5.12220639 14.0314431,5.11865115 14.0314431,5.10276885 C14.0314431,5.08632171 14.0277217,5.05970723 14.022771,5.04884215 C14.0152618,5.03894063 14.0032005,5.03435537 13.9896109,5.03086658 C13.9155489,5.03113239 13.910432,5.11559431 13.914685,5.14765793 C13.9091361,5.15370517 13.9059796,5.30521828 14.0069884,5.3471502 Z M15.207464,7.09586402 C14.9711567,7.36217489 15.0753552,7.80265939 15.128717,7.89755444 C15.2066333,8.05342023 15.269365,8.15339895 15.4209778,8.23048456 C15.5590674,8.33212461 15.666655,8.26859543 15.7259644,8.19742414 C15.8649179,8.05342023 15.8665792,7.68576835 15.9318029,7.61290251 C15.9775559,7.47906593 16.0927524,7.5019258 16.1486727,7.56123521 C16.2028652,7.63915149 16.2666934,7.68939005 16.3463043,7.73178714 C16.4759211,7.84611973 16.6306904,7.86701923 16.7831671,7.76282074 C16.8873656,7.70437522 16.9551145,7.62885125 17.0161185,7.47893302 C17.0839007,7.29764891 17.0461221,6.46010703 17.0325656,5.96370223 C17.0273491,5.92476071 16.8978652,5.28106257 16.8978652,5.27388563 C16.8978652,5.26667547 16.8807535,4.94537464 16.8664993,4.86882065 C16.8640073,4.83775382 16.8562987,4.82881587 16.8888608,4.83276983 C16.9233832,4.86180984 16.9281013,4.86363731 16.9496654,4.87320655 C16.98452,4.87958605 17.0157198,4.82027665 16.9946874,4.76568541 L16.6712268,4.16906931 C16.6452769,4.14351808 16.6117513,4.11544164 16.5705835,4.17627947 C16.5312433,4.21076864 16.4893446,4.27320135 16.4906404,4.35344349 C16.5002097,4.4948225 16.5250632,4.6386935 16.5346324,4.78007251 L16.6640499,5.50607283 C16.7047856,6.02360972 16.7149862,6.44714867 16.7557219,6.96468556 C16.750007,7.18381472 16.6818925,7.37486744 16.6179978,7.40244548 C16.6179978,7.40244548 16.5207769,7.45879772 16.4555864,7.39656438 C16.4081721,7.37752556 16.218382,7.08028076 16.218382,7.08028076 C16.1213605,6.99133326 16.0573993,7.01675158 15.9883545,7.08028076 C15.7979664,7.26412331 15.7118099,7.60805143 15.5824257,7.84525584 C15.5490662,7.89818574 15.4547692,7.94350677 15.3503049,7.84140155 C15.0849909,7.47893302 15.2404912,6.96325682 15.207464,7.09586402 Z M14.0681252,4.07756336 C14.1896015,4.1284 14.2752928,4.3744759 14.2473493,4.49462314 C14.2231604,4.64324554 14.1587341,4.80376305 14.1124162,4.78286354 C14.062078,4.76419021 14.1467393,4.63513826 14.0983614,4.4997068 C14.0714811,4.41155674 13.9057138,4.25050761 13.9231578,4.20302685 C13.8889344,4.10354653 13.9936313,4.06001974 14.0681252,4.07756336 Z" fill="#FFFFFF"></path>
                            <path d="M15.5985406,7.24206088 C15.6240918,6.94657708 15.5809637,6.76638945 15.5732884,6.59271423 C15.5656463,6.419039 15.376853,5.09386414 15.338576,4.96245309 C15.292391,4.71398488 15.5220862,4.92912685 15.4970002,4.78462455 C15.4175223,4.60244332 15.2197578,4.33716247 15.1576573,4.17890437 C15.1203107,4.11108896 15.1359936,4.05078276 15.0523624,4.16106171 C14.9748116,4.41461358 14.9478981,4.62184763 14.9775029,4.7793083 C15.1766962,5.81883443 15.380973,6.68315692 15.3485439,7.67271031 C15.443007,7.67334162 15.5518905,7.45657154 15.5985406,7.24206088 Z M17.6742037,4.49655028 C17.7849478,4.55160669 17.8498061,4.85998238 17.8375787,4.94806599 C17.8155495,5.10898222 17.7568049,5.28275713 17.714574,5.26012984 C17.6686881,5.23992809 17.7237777,5.02149669 17.7017485,4.9535816 C17.6772606,4.85815492 17.5261462,4.68378194 17.5420285,4.63238045 C17.5108287,4.52469317 17.6062886,4.47757791 17.6742037,4.49655028 Z M9.4436527,6.68319015 C9.54957897,6.72362687 9.61167941,6.95023201 9.59998366,7.01499057 C9.57885157,7.13321067 9.52263223,7.26090034 9.48229519,7.24428706 C9.43836968,7.22943478 9.49110023,7.06891728 9.47000136,7.01901098 C9.46106342,6.89796663 9.31403589,6.83530134 9.31712596,6.78300273 C9.28968082,6.6868783 9.37862832,6.66920177 9.4436527,6.68319015 Z" fill="#FFFFFF"></path>
                            <path d="M12.0030946,7.02343012 C12.1398219,7.03210225 12.2081357,7.13939081 12.0800805,7.18437957 C11.9537531,7.22764055 11.8323433,7.26143196 11.8317784,7.44397868 C11.878495,7.69836122 11.7676844,7.61107505 11.7015968,7.57651942 C11.6237137,7.52059912 11.4051494,7.38596511 11.3740161,7.09523271 C11.3693312,7.02585566 11.423424,6.96747659 11.5105108,6.96787531 C11.6416893,7.00352741 11.835234,7.00611908 12.0030946,7.02343012 Z" fill="#1B9D00"></path>
                            <path d="M6.61241758,4.00446493 C6.76871531,4.05158019 6.7779523,4.28130863 6.76642268,4.3484595 C6.74558963,4.47103228 6.69023418,4.60340689 6.65046199,4.58616231 C6.60720101,4.57077841 6.64876743,4.4043798 6.62800083,4.35261282 C6.60484192,4.27991311 6.47276635,4.14710655 6.48775153,4.10796567 C6.45834602,4.02589606 6.54835677,3.98997815 6.61241758,4.00446493 Z M9.69883268,5.08765077 C9.57891802,5.15250901 9.53240084,5.34585436 9.60706092,5.45842594 C9.67680347,5.557574 9.78694951,5.52082542 9.80163565,5.52082542 C9.91912476,5.53551156 9.98883409,5.30056656 9.98883409,5.30056656 C9.98883409,5.30056656 9.99252223,5.23451216 9.85300391,5.35934434 C9.79429258,5.37034234 9.78694951,5.34831313 9.77226337,5.3152527 C9.760036,5.2540826 9.76246154,5.19291251 9.79060443,5.13170919 C9.81140426,5.07299786 9.76611646,5.0472805 9.69883268,5.08765077 Z M10.5982756,3.91541775 C10.5380027,3.95582125 10.4180548,4.08008858 10.4143999,4.22326183 C10.4107449,4.30403559 10.3956933,4.30380301 10.44859,4.35520449 C10.4868005,4.41029413 10.5253433,4.40534337 10.6024622,4.36493988 C10.6467532,4.33231139 10.6617384,4.31064768 10.6766571,4.25592353 C10.6950314,4.16415178 10.5796355,4.29945033 10.5649494,4.19731188 C10.5392653,4.10248328 10.6133605,4.06367466 10.683103,3.97190291 C10.6854289,3.90903826 10.6840666,3.86451467 10.5982756,3.91541775 Z M11.3229469,4.0443368 C11.2969637,4.10171907 11.2658304,4.40145586 11.2710138,4.40145586 C11.2502804,4.49076886 11.3644801,4.5289794 11.4164132,4.41418164 C11.494263,4.20372461 11.494263,4.11444485 11.4994796,4.02516508 C11.4752242,3.88916877 11.3835189,3.89342177 11.3229469,4.0443368 Z M15.8915988,6.36919916 C15.9071821,6.35361591 16.5353966,5.90715063 16.5353966,5.90715063 C16.5994242,5.88465625 16.5855687,6.13731101 16.5561632,6.13558322 C16.5682577,6.18575533 15.9366208,6.6149428 15.8915988,6.59763176 C15.8604655,6.62012614 15.829299,6.42458784 15.8915988,6.36919916 Z M16.4644247,6.36554424 C16.5751688,6.42060065 16.6192605,6.7445596 16.6070331,6.83264321 C16.6109538,7.00395935 16.5003094,7.1413844 16.4580784,7.11875712 C16.4121925,7.09855537 16.4620988,6.90607391 16.4400696,6.83815882 C16.4155816,6.74273214 16.3215505,6.56317582 16.3374328,6.51177433 C16.306233,6.40408705 16.3965096,6.34657188 16.4644247,6.36554424 Z M12.7277658,7.7603952 C12.7714588,7.69653376 12.906425,7.60462909 12.9094819,7.60462909 C12.9717485,7.57346258 13.0325863,7.62905061 13.0288981,7.62539569 C13.0392648,7.68769549 12.9894914,7.74567584 13.0050747,7.82877546 C13.0186976,7.86226783 13.0286655,7.89944835 13.090035,7.88526061 C13.1897811,7.80677948 13.2821842,7.80172904 13.3819303,7.79671183 C13.4583846,7.80133032 13.4614083,7.93074777 13.4130636,7.93171134 C13.2288888,7.97174935 13.146354,8.02105756 13.0148433,8.07126289 C12.9525435,8.10757952 12.899082,8.06149428 12.899082,8.05631094 C12.899082,8.0511276 12.8626324,8.02095788 12.888084,7.93842311 C12.8926028,7.8722358 12.8659551,7.8359524 12.8108322,7.8434616 C12.769299,7.86592276 12.7327166,7.88080825 12.71195,7.83306169 C12.7037763,7.79780831 12.7011181,7.7806634 12.7277658,7.7603952 Z M17.1256332,7.93483464 C17.1525467,7.96909122 17.1699575,8.00078936 17.1234735,8.05707515 C17.0794151,8.09744542 17.0483815,8.11967399 17.0043231,8.16004426 C16.9835232,8.19553022 16.9702326,8.24935725 17.0338615,8.26650216 C17.1513506,8.29952936 17.4230109,8.12332891 17.4230109,8.11964076 C17.4670693,8.08661356 17.4523832,8.02421408 17.4486951,8.02421408 C17.4230109,7.99484181 17.3651303,8.01228575 17.3261887,8.00753435 C17.3076483,8.00753435 17.2468437,7.99833059 17.275784,7.94450357 C17.2999398,7.9110112 17.3085787,7.89051041 17.3249594,7.84924302 C17.3433004,7.80887275 17.327551,7.78192601 17.2614634,7.7598968 C17.1941464,7.74766943 17.1672661,7.75378312 17.092606,7.7598968 C17.0522358,7.76846926 17.0384467,7.78651128 17.0311037,7.835454 C17.0339944,7.90968213 17.0791493,7.90546236 17.1256332,7.93483464 Z" fill="#FFFFFF"></path>
                            <path d="M12.7518219,6.10793873 C12.7345773,6.13770972 12.6763643,6.13624776 12.6217399,6.10468252 C12.5671154,6.07311729 12.536846,6.02334391 12.5540906,5.99353968 C12.5713352,5.96373546 12.6295149,5.96523065 12.6841394,5.99679589 C12.7387638,6.02836112 12.7690332,6.0781345 12.7518219,6.10793873 Z M9.88436978,4.38284899 C9.8517413,4.39082337 9.8090784,4.36175013 9.78910924,4.31789107 C9.76914008,4.27403201 9.77937386,4.23196719 9.81203556,4.22395958 C9.84469727,4.21595198 9.88732695,4.24505845 9.90729611,4.28895073 C9.92726527,4.33284302 9.91703149,4.37487462 9.88436978,4.38284899 Z" fill="#259F00"></path>
                        </g>
                    </g>
                </g>
            </g>
        </g>
    </g>
</svg>