<?xml version="1.0" encoding="UTF-8"?>
<svg width="41px" height="67px" viewBox="0 0 41 67" version="1.1" xmlns="http://www.w3.org/2000/svg" xmlns:xlink="http://www.w3.org/1999/xlink">
    <!-- Generator: sketchtool 47.1 (45422) - http://www.bohemiancoding.com/sketch -->
    <title>075663D9-8CB6-4A2E-A323-1F33E790C74E</title>
    <desc>Created with sketchtool.</desc>
    <defs>
        <polygon id="path-1" points="0 66.9575 40.328 66.9575 40.328 0.0005 0 0.0005"></polygon>
    </defs>
    <g id="Symbols" stroke="none" stroke-width="1" fill="none" fill-rule="evenodd">
        <g id="icons/Api">
            <g id="API">
                <path d="M1.0001,30.9773 L1.0001,56.8063 C1.0001,61.8603 5.0971,65.9573 10.1511,65.9573 L30.1761,65.9573 C35.2301,65.9573 39.3281,61.8603 39.3281,56.8063 L39.3281,30.9773 L1.0001,30.9773 Z" id="Stroke-1" stroke="#000000" stroke-width="2"></path>
                <path d="M7.819,30.9773 L4.015,20.1173 C1.392,12.6293 5.336,4.4343 12.822,1.8113 C20.31,-0.8107 28.505,3.1323 31.128,10.6203 L32.293,13.5423 L26.775,15.4753 L25.618,12.5773 C24.063,8.1373 19.204,5.7983 14.764,7.3543 C10.324,8.9093 7.986,13.7693 9.541,18.2083 L14.393,30.9773" id="Stroke-3" stroke="#000000" stroke-width="2"></path>
                <path d="M10.6212,50.4715 L15.1762,50.4715 L13.1162,45.4655 C13.0492,45.2805 12.9822,45.0965 12.8992,44.8125 C12.8152,45.0965 12.7482,45.2805 12.6812,45.4655 L10.6212,50.4715 Z M6.9042,54.6745 L11.8612,42.9525 L13.9542,42.9525 L18.8932,54.6745 L16.8842,54.6745 L15.8462,52.1465 L9.9682,52.1465 L8.9302,54.6745 L6.9042,54.6745 Z" id="Fill-5" fill="#000000"></path>
                <path d="M24.7018,44.6941 L22.3248,44.6941 L22.3248,48.9141 L24.7018,48.9141 C26.3088,48.9141 27.6658,48.5121 27.6658,46.8041 C27.6658,45.0961 26.3268,44.6941 24.7018,44.6941 L24.7018,44.6941 Z M24.6018,42.9531 C27.3808,42.9531 29.6088,43.8241 29.6088,46.8041 C29.6088,49.7861 27.3808,50.6561 24.6018,50.6561 L22.3248,50.6561 L22.3248,54.6741 L20.4148,54.6741 L20.4148,42.9531 L24.6018,42.9531 Z" id="Fill-7" fill="#000000"></path>
                <mask id="mask-2" fill="white">
                    <use xlink:href="#path-1"></use>
                </mask>
                <g id="Clip-10"></g>
                <polygon id="Fill-9" fill="#000000" mask="url(#mask-2)" points="31.515 54.6745 33.424 54.6745 33.424 42.9525 31.515 42.9525"></polygon>
            </g>
        </g>
    </g>
</svg>