<?xml version="1.0" encoding="UTF-8"?>
<svg width="28px" height="23px" viewBox="0 0 28 23" version="1.1" xmlns="http://www.w3.org/2000/svg" xmlns:xlink="http://www.w3.org/1999/xlink">
    <!-- Generator: sketchtool 47.1 (45422) - http://www.bohemiancoding.com/sketch -->
    <title>817B8B55-EED6-4B96-A39E-638DE362DA08</title>
    <desc>Created with sketchtool.</desc>
    <defs></defs>
    <g id="Layout" stroke="none" stroke-width="1" fill="none" fill-rule="evenodd">
        <g id="iPhone-SE" transform="translate(-148.000000, -889.000000)" fill="#000000">
            <g id="Socials" transform="translate(100.000000, 767.000000)">
                <g id="twitter" transform="translate(38.000000, 109.000000)">
                    <path d="M38,15.6937195 C36.9705637,16.1500417 35.8618758,16.4587058 34.7006316,16.5980217 C35.8869026,15.8872602 36.7978787,14.7610535 37.2258372,13.4196163 C36.1163151,14.0778215 34.8874985,14.5566679 33.5785961,14.8136098 C32.5308068,13.6974139 31.0375402,13 29.3857705,13 C26.2132046,13 23.6404481,15.5719223 23.6404481,18.7444881 C23.6404481,19.1949708 23.6921702,19.6329401 23.7897748,20.0533905 C19.0154928,19.8139673 14.7826242,17.5265165 11.9487546,14.0511262 C11.4548921,14.8995352 11.1712549,15.8864259 11.1712549,16.9392206 C11.1712549,18.9321893 12.1856751,20.6907401 13.7264927,21.7210106 C12.7846502,21.6909784 11.8995352,21.432368 11.1245382,21.002741 L11.1245382,21.0744846 C11.1245382,23.8583006 13.1041592,26.1791205 15.732809,26.7071863 C15.2497914,26.8389942 14.7425813,26.9090692 14.2186867,26.9090692 C13.8491241,26.9090692 13.4887379,26.8731975 13.1383625,26.8056251 C13.8691455,29.0880706 15.9905852,30.7490168 18.5049458,30.7957335 C16.5378382,32.3357168 14.061852,33.2542009 11.369801,33.2542009 C10.9059707,33.2542009 10.4496484,33.2275057 10,33.1741151 C12.5418901,34.804195 15.5617924,35.7552139 18.8052675,35.7552139 C29.3715886,35.7552139 35.1502801,27.0016685 35.1502801,19.4102014 C35.1502801,19.1616017 35.1444405,18.9138363 35.1327613,18.666905 C36.255631,17.8577047 37.2300083,16.8457872 38,15.6937195" id="Fill-15"></path>
                </g>
            </g>
        </g>
    </g>
</svg>