<?xml version="1.0" encoding="UTF-8"?>
<svg width="28px" height="28px" viewBox="0 0 28 28" version="1.1" xmlns="http://www.w3.org/2000/svg" xmlns:xlink="http://www.w3.org/1999/xlink">
    <!-- Generator: sketchtool 47.1 (45422) - http://www.bohemiancoding.com/sketch -->
    <title>21C89354-8CAF-40B7-91BB-54431D842E7B</title>
    <desc>Created with sketchtool.</desc>
    <defs></defs>
    <g id="Layout" stroke="none" stroke-width="1" fill="none" fill-rule="evenodd">
        <g id="iPhone-SE" transform="translate(-133.000000, -940.000000)">
            <g id="Socials" transform="translate(100.000000, 767.000000)">
                <g id="youtube" transform="translate(23.000000, 162.000000)">
                    <g id="Page-1" transform="translate(10.000000, 10.000000)">
                        <path d="M13.4676,16.0393 C13.4666,15.9733 13.4096,15.8513 13.3726,15.8493 C13.0916,15.8333 12.8316,15.8403 12.5106,15.8403 L12.5106,16.0793 C12.5106,16.8643 12.5036,17.6483 12.5116,18.4333 C12.5126,18.6013 12.4396,18.6903 12.2996,18.7503 C11.9806,18.8893 11.7466,18.7533 11.7356,18.3873 C11.7126,17.6233 11.7126,16.8583 11.7026,16.0933 C11.7016,16.0163 11.7026,15.9393 11.7026,15.8353 C11.4266,15.8353 11.1776,15.8423 10.9286,15.8333 C10.7776,15.8273 10.7366,15.8893 10.7386,16.0313 C10.7506,16.8423 10.7346,17.6543 10.7766,18.4643 C10.7916,18.7613 10.8886,19.0813 11.0376,19.3383 C11.3466,19.8743 12.0316,19.8893 12.4146,19.4043 C12.4676,19.3393 12.5106,19.2673 12.5576,19.2003 C12.6236,19.3613 12.6456,19.5893 12.7596,19.6523 C12.9016,19.7313 13.1186,19.6673 13.3026,19.6773 C13.4356,19.6833 13.4746,19.6263 13.4726,19.5023 C13.4676,19.1523 13.4706,18.8033 13.4706,18.4543 C13.4706,17.6483 13.4736,16.8443 13.4676,16.0393" id="Fill-1" fill="#000000"></path>
                        <path d="M10.4945,14.5159 C9.5715,14.5179 8.6505,14.5189 7.7275,14.5159 C7.6015,14.5159 7.5755,14.5719 7.5785,14.6839 C7.5845,14.8749 7.5985,15.0679 7.5835,15.2569 C7.5695,15.4349 7.6455,15.4869 7.8185,15.4779 C8.0845,15.4649 8.3405,15.4749 8.6615,15.4749 L8.6615,15.7439 L8.6615,18.9869 L8.6615,19.6729 C8.6615,19.6729 9.3035,19.6739 9.6235,19.6739 L9.6235,15.4739 C9.9445,15.4739 10.2095,15.4709 10.5035,15.4759 C10.6195,15.4779 10.6605,15.4429 10.6565,15.3189 C10.6485,15.1009 10.6495,14.8839 10.6555,14.6659 C10.6585,14.5539 10.6025,14.5159 10.4945,14.5159" id="Fill-3" fill="#000000"></path>
                        <path d="M13.5863,11.3724 C13.8213,11.3624 13.9863,11.2444 14.0593,11.0204 C14.2293,10.4974 14.2323,9.9714 14.0583,9.4514 C13.9763,9.2044 13.8033,9.0904 13.5713,9.0904 C13.3423,9.0904 13.1643,9.2034 13.0903,9.4554 C13.0173,9.7044 12.9393,9.9884 12.9393,10.2314 C12.9393,10.4754 13.0183,10.7684 13.0933,11.0234 C13.1653,11.2674 13.3543,11.3824 13.5863,11.3724" id="Fill-5" fill="#000000"></path>
                        <path d="M15.6742,18.4954 C15.6182,18.7404 15.4602,18.8244 15.1952,18.7874 C14.9802,18.7564 14.8742,18.6274 14.8742,18.3904 C14.8732,17.9744 14.8732,17.5594 14.8742,17.1444 C14.8752,16.9014 15.0102,16.7474 15.2472,16.7164 C15.4382,16.6904 15.6132,16.8044 15.6632,17.0294 C15.7192,17.2854 15.7252,18.2724 15.6742,18.4954 M16.3422,16.1954 C16.0832,15.7244 15.4292,15.6014 15.0772,16.0444 L15.0772,16.1174 C15.0772,16.1064 15.0262,16.1054 15.0332,16.0954 C15.0472,16.0754 15.0632,16.0624 15.0772,16.0444 L15.0772,14.2314 L14.2132,14.2314 C13.9512,14.2314 13.9162,14.1934 13.9162,14.4514 C13.9162,16.0344 13.9112,17.5984 13.9112,19.1814 C13.9112,19.6944 13.9092,19.6844 14.4312,19.6844 C14.7462,19.6844 14.7452,19.6804 14.8022,19.3684 C14.8042,19.3584 14.8202,19.3504 14.8582,19.3214 C14.8672,19.3414 14.8762,19.3674 14.8902,19.3894 C15.2592,19.9484 16.0452,19.8034 16.3442,19.3324 C16.4522,19.1624 16.5432,18.9724 16.5972,18.7784 C16.7502,18.2314 16.7742,17.6664 16.6682,17.1134 C16.6082,16.7964 16.4982,16.4774 16.3422,16.1954" id="Fill-7" fill="#000000"></path>
                        <g id="Group-11" transform="translate(0.000000, 0.267600)" fill="#000000">
                            <path d="M21.1727,18.284 C21.1727,19.442 20.2347,20.38 19.0767,20.38 L8.1907,20.38 C7.0327,20.38 6.0947,19.442 6.0947,18.284 L6.0947,15.097 C6.0947,13.94 7.0327,13.001 8.1907,13.001 L19.0767,13.001 C20.2347,13.001 21.1727,13.94 21.1727,15.097 L21.1727,18.284 Z M8.7017,6.49 C8.7467,6.492 8.8067,6.577 8.8297,6.636 C9.0997,7.314 9.3637,7.996 9.6297,8.676 C9.6557,8.743 9.6837,8.809 9.7267,8.913 C10.0327,8.132 10.3267,7.392 10.6117,6.648 C10.6587,6.525 10.7137,6.474 10.8517,6.479 C11.1797,6.49 11.5097,6.483 11.8717,6.483 C11.8387,6.566 11.8157,6.63 11.7877,6.692 C11.3047,7.766 10.8197,8.841 10.3407,9.917 C10.2947,10.021 10.2707,10.158 10.2687,10.272 C10.2617,10.851 10.2657,11.397 10.2657,12.039 L9.1677,12.039 C9.1637,12.039 9.1577,11.889 9.1567,11.82 C9.1567,11.299 9.1637,10.771 9.1517,10.25 C9.1487,10.098 9.1147,9.932 9.0527,9.793 C8.5957,8.758 8.1277,7.725 7.6627,6.692 C7.6367,6.633 7.6157,6.571 7.5817,6.485 C7.9697,6.485 8.3367,6.478 8.7017,6.49 L8.7017,6.49 Z M13.6307,7.83 C14.2967,7.849 14.7767,8.166 15.0457,8.768 C15.3787,9.513 15.3807,10.284 15.0987,11.041 C14.8257,11.775 14.2207,12.148 13.4657,12.098 C12.7087,12.048 12.1637,11.588 11.9647,10.802 C11.8957,10.53 11.8477,10.263 11.8367,9.966 C11.8547,9.527 11.9207,9.106 12.1217,8.716 C12.4367,8.104 12.9437,7.811 13.6307,7.83 L13.6307,7.83 Z M15.9177,7.955 C15.9177,7.937 15.9277,7.868 15.9357,7.868 L17.0027,7.868 L17.0027,8.137 C17.0027,8.81 17.0107,9.483 17.0127,10.156 C17.0127,10.314 17.0177,10.473 17.0367,10.63 C17.0577,10.807 17.0937,10.994 17.2887,11.07 C17.5027,11.153 17.7117,11.102 17.8837,10.964 C17.9427,10.918 17.9697,10.809 17.9697,10.729 C17.9767,9.871 17.9647,9.014 17.9647,8.156 L17.9647,7.868 L19.2477,7.868 L19.2477,12.023 C18.9267,12.023 18.6337,12.027 18.3727,12.017 C18.3347,12.016 18.2377,11.954 18.2247,11.91 C18.1817,11.768 18.1337,11.621 18.0927,11.443 C18.0267,11.537 17.9737,11.601 17.9287,11.662 C17.4697,12.286 16.5607,12.253 16.1947,11.572 C16.0497,11.302 15.9537,10.963 15.9417,10.658 C15.9057,9.762 15.9207,8.852 15.9177,7.955 L15.9177,7.955 Z M13.6337,0.732 C6.1047,0.732 -0.0003,6.836 -0.0003,14.366 C-0.0003,21.896 6.1047,28 13.6337,28 C21.1637,28 27.2677,21.896 27.2677,14.366 C27.2677,6.836 21.1637,0.732 13.6337,0.732 L13.6337,0.732 Z" id="Fill-9"></path>
                        </g>
                        <path d="M18.6581,17.365 C18.5201,17.365 18.3831,17.363 18.2451,17.361 C18.2331,17.36 18.2341,17.045 18.2891,16.916 C18.3551,16.762 18.4931,16.697 18.6581,16.716 C18.8261,16.736 18.8981,16.86 18.9331,17.01 C18.9341,17.016 18.9341,17.023 18.9361,17.03 C18.9911,17.344 18.9731,17.365 18.6581,17.365 M18.9571,15.813 C18.2561,15.624 17.6351,15.96 17.3621,16.691 C17.1391,17.288 17.1171,17.909 17.2631,18.521 C17.6131,19.979 18.9071,19.948 19.7311,19.418 C19.7861,19.382 19.8561,19.288 19.8451,19.24 C19.7941,19.019 19.7151,18.802 19.6411,18.567 C19.3941,18.696 19.1431,18.827 18.7961,18.79 C18.4811,18.756 18.1741,18.402 18.2261,18.081 L19.8991,18.081 C19.9091,17.439 19.9391,17.11 19.7831,16.644 C19.6441,16.23 19.4051,15.934 18.9571,15.813" id="Fill-12" fill="#000000"></path>
                        <path d="M15.0775,16.1175 L15.0775,16.0445 C15.0635,16.0625 15.0465,16.0755 15.0335,16.0955 C15.0265,16.1055 15.0775,16.1065 15.0775,16.1175" id="Fill-14" fill="#FFFFFF"></path>
                    </g>
                </g>
            </g>
        </g>
    </g>
</svg>