<?xml version="1.0" encoding="UTF-8"?>
<svg width="29px" height="29px" viewBox="0 0 29 29" version="1.1" xmlns="http://www.w3.org/2000/svg" xmlns:xlink="http://www.w3.org/1999/xlink">
    <!-- Generator: sketchtool 47.1 (45422) - http://www.bohemiancoding.com/sketch -->
    <title>C3925F86-7482-44DD-91DF-6D15F9F49AC5</title>
    <desc>Created with sketchtool.</desc>
    <defs></defs>
    <g id="Layout" stroke="none" stroke-width="1" fill="none" fill-rule="evenodd">
        <g id="iPhone-SE" transform="translate(-219.000000, -815.000000)" fill="#000000">
            <g id="Socials" transform="translate(100.000000, 767.000000)">
                <g id="fb" transform="translate(109.000000, 38.000000)">
                    <path d="M31.186,10 L17.057,10 C13.16,10 10,13.16 10,17.057 L10,31.185 C10,35.083 13.16,38.242 17.057,38.242 L25.37,38.242 L25.37,29.175 L23.473,29.175 L23.473,26.279 L25.37,26.279 L25.37,24.54 C25.37,22.178 26.44,20.773 29.479,20.773 L32.01,20.773 L32.01,23.669 L30.429,23.669 C29.246,23.669 29.166,24.074 29.166,24.829 L29.163,26.279 L32.029,26.279 L31.693,29.175 L29.163,29.175 L29.163,38.242 L31.186,38.242 C35.083,38.242 38.243,35.083 38.243,31.185 L38.243,17.057 C38.243,13.16 35.083,10 31.186,10" id="Fill-13"></path>
                </g>
            </g>
        </g>
    </g>
</svg>