<?xml version="1.0" encoding="UTF-8"?>
<svg width="28px" height="28px" viewBox="0 0 28 28" version="1.1" xmlns="http://www.w3.org/2000/svg" xmlns:xlink="http://www.w3.org/1999/xlink">
    <!-- Generator: sketchtool 47.1 (45422) - http://www.bohemiancoding.com/sketch -->
    <title>6E3A0186-D2F7-4E3A-B3B6-8E12E7D9F21D</title>
    <desc>Created with sketchtool.</desc>
    <defs></defs>
    <g id="Layout" stroke="none" stroke-width="1" fill="none" fill-rule="evenodd">
        <g id="iPhone-SE" transform="translate(-272.000000, -800.000000)" fill="#000000">
            <g id="Socials" transform="translate(100.000000, 767.000000)">
                <g id="telegram" transform="translate(162.000000, 23.000000)">
                    <path d="M30.8791289,18.9634491 L28.5828354,29.7859002 C28.4216739,30.5547531 27.9566668,30.7384976 27.3130476,30.3833266 L23.8147157,27.7985849 L22.1332991,29.4338087 C21.938263,29.6237123 21.7842871,29.7848737 21.4332221,29.7848737 C20.9795065,29.7848737 21.057521,29.6134472 20.9004656,29.1812883 L19.7107453,25.264142 L16.2503941,24.1842578 C15.5030978,23.955347 15.4979653,23.4420941 16.4177146,23.072552 L29.9039484,17.8732998 C30.5188254,17.5930638 31.1141988,18.0211167 30.8791289,18.9634491 M24.0005133,10 C31.7321553,10 38,16.2678447 38,23.9994867 C38,31.7311288 31.7321553,38 24.0005133,38 C16.2688712,38 10,31.7311288 10,23.9994867 C10,16.2678447 16.2688712,10 24.0005133,10 Z M20.2650585,25.2882054 L21.4034535,29.2310144 C21.4414342,29.3654867 21.6344173,29.3583011 21.6631594,29.2228023 L22.3519449,26.0108656 L28.1445174,20.5365099 C28.2830956,20.4061436 28.1126957,20.1885244 27.9525608,20.2922015 L20.2650585,25.2882054 Z" id="Fill-3"></path>
                </g>
            </g>
        </g>
    </g>
</svg>