<?xml version="1.0" encoding="UTF-8"?>
<svg width="15px" height="20px" viewBox="0 0 15 20" version="1.1" xmlns="http://www.w3.org/2000/svg" xmlns:xlink="http://www.w3.org/1999/xlink">
    <!-- Generator: sketchtool 47.1 (45422) - http://www.bohemiancoding.com/sketch -->
    <title>D69B0C9F-BE6D-4C56-9A48-C79586E3F12C</title>
    <desc>Created with sketchtool.</desc>
    <defs></defs>
    <g id="Layout" stroke="none" stroke-width="1" fill="none" fill-rule="evenodd">
        <g id="iPhone-SE" transform="translate(-24.000000, -915.000000)" fill="#8E8E8E">
            <g id="1.-Hero-block">
                <g id="Aquired-for" transform="translate(20.000000, 913.000000)">
                    <path d="M8.3313073,16.1708967 L9.40684582,12.516459 C9.40684582,12.516459 14.7614626,12.768683 14.1413667,15.677689 C13.6172174,18.1382778 8.3313073,16.1708967 8.3313073,16.1708967 M10.9329689,7.04893787 C11.567292,7.12966317 14.9670624,7.6644257 14.5650585,9.81148024 C14.1620135,11.9629627 9.82429148,10.4664792 9.82429148,10.4664792 L10.8323377,7.03701641 C10.8323377,7.03701641 10.8682526,7.04076316 10.9329689,7.04893787 M17.294938,14.3433372 C17.0688649,13.6575128 16.3221126,13.147615 15.4808017,12.6969839 L15.504398,12.6162586 C16.1166863,12.5535858 16.6536748,12.3424057 17.0999218,11.9559802 C17.5456483,11.5695546 17.8668003,11.0433074 18.0685831,10.3571424 C18.2405235,9.77196912 18.2783469,9.23942057 18.1758073,8.78010384 C18.0734412,8.32061679 17.8586458,7.91988551 17.5378407,7.55747319 C17.2168621,7.19472027 16.7836277,6.89038248 16.2606929,6.65025026 C15.8682315,6.47023625 15.2054541,6.14103371 14.6327242,5.92746931 L15.4068899,3.06768191 L13.6113183,2.59933893 L12.8466953,5.42404318 L11.3733168,5.03165692 L12.1268357,2.24731531 L10.3314376,1.77897233 L9.58017425,4.55411738 L6.36535683,3.6978161 L5.91633381,5.31862343 L6.39016761,5.43783801 L6.59385888,5.48944089 L7.1232133,5.62262061 C7.24639967,5.67098766 7.54916056,5.83328979 7.44644741,6.23146648 C7.42562718,6.31287301 7.42024862,6.34710462 7.42545368,6.34863738 L7.36750403,6.54551174 L7.32308753,6.69657364 L5.0653068,15.0507906 C5.03112692,15.1364548 4.86560607,15.4733211 4.39038426,15.368242 L3.2130001,15.0717383 L2.7112325,16.8820968 L4.60240363,17.3926758 L6.27010426,17.8126517 L5.46210574,20.7981254 L7.2576773,21.2664683 L8.07001338,18.2658374 L9.5487704,18.6381275 L8.74198639,21.6186623 L10.5373844,22.0866646 L11.3500675,19.0850119 C11.9902897,19.2313052 12.7864901,19.3854326 13.2514753,19.3730002 C13.8736532,19.3563102 14.4536702,19.2422048 14.9906587,19.0306841 C15.5279942,18.8188228 16.0002665,18.5046072 16.4081695,18.0870156 C16.8157256,17.6692536 17.1148429,17.1377269 17.3046541,16.4919245 C17.5239605,15.7447897 17.521011,15.0288211 17.294938,14.3433372" id="Fill-4" transform="translate(10.471765, 11.932818) rotate(-15.000000) translate(-10.471765, -11.932818) "></path>
                </g>
            </g>
        </g>
    </g>
</svg>