<?xml version="1.0" encoding="UTF-8"?>
<svg width="19px" height="20px" viewBox="0 0 19 20" version="1.1" xmlns="http://www.w3.org/2000/svg" xmlns:xlink="http://www.w3.org/1999/xlink">
    <!-- Generator: sketchtool 47.1 (45422) - http://www.bohemiancoding.com/sketch -->
    <title>474F4DE3-0441-4E2C-A3EB-DAC9E0288D20</title>
    <desc>Created with sketchtool.</desc>
    <defs></defs>
    <g id="Layout" stroke="none" stroke-width="1" fill="none" fill-rule="evenodd">
        <g id="iPhone-SE" transform="translate(-124.000000, -915.000000)" fill="#8E8E8E">
            <g id="1.-Hero-block">
                <g id="Aquired-for" transform="translate(20.000000, 913.000000)">
                    <path d="M115.476761,10.8926616 C115.476761,11.851433 114.954903,12.6755311 114.20541,13.049708 L114.20541,15.9043594 L112.402075,15.9043594 L112.402075,13.049708 C111.65272,12.6755311 111.130863,11.851433 111.130863,10.8926616 C111.130863,9.58213362 112.103692,8.51974398 113.303742,8.51974398 C114.503931,8.51974398 115.476761,9.58213362 115.476761,10.8926616 Z M120.605301,14.1840117 L122.872929,14.1840117 C121.912457,18.4316446 118.175408,21.6002879 113.708305,21.6002879 C108.513122,21.6002879 104.301552,17.3159089 104.301552,12.0309132 C104.301552,6.7459175 108.513122,2.46153846 113.708305,2.46153846 C118.175408,2.46153846 121.912457,5.63018183 122.872929,9.87781465 L120.605301,9.87781465 C119.700847,6.87596465 116.955453,4.6930098 113.708305,4.6930098 C109.724612,4.6930098 106.495102,7.97835111 106.495102,12.0309132 C106.495102,16.0834753 109.724612,19.3688166 113.708305,19.3688166 C116.955453,19.3688166 119.700847,17.1858617 120.605301,14.1840117 Z" id="Combined-Shape"></path>
                </g>
            </g>
        </g>
    </g>
</svg>