<?xml version="1.0" encoding="UTF-8"?>
<svg width="20px" height="20px" viewBox="0 0 20 20" version="1.1" xmlns="http://www.w3.org/2000/svg" xmlns:xlink="http://www.w3.org/1999/xlink">
    <!-- Generator: sketchtool 47.1 (45422) - http://www.bohemiancoding.com/sketch -->
    <title>ABC223B8-74FD-4F18-81DC-62800E44D8EF</title>
    <desc>Created with sketchtool.</desc>
    <defs></defs>
    <g id="Layout" stroke="none" stroke-width="1" fill="none" fill-rule="evenodd">
        <g id="iPhone-SE" transform="translate(-243.000000, -915.000000)" fill="#8E8E8E">
            <g id="1.-Hero-block">
                <g id="Aquired-for" transform="translate(20.000000, 913.000000)">
                    <path d="M233.96369,7.64221571 C234.241638,6.20225361 235.361223,5.10602854 236.816067,4.84951317 C237.055862,4.80735067 237.281046,4.78626941 237.492916,4.78626941 C237.837429,4.78626941 238.147361,4.84227152 238.429692,4.95459757 C239.221487,5.26952894 240.014743,5.6328989 240.781861,5.98436037 L241.075232,6.1185723 C241.01922,9.4029025 240.038447,12.4191307 238.157102,15.0996681 C237.989554,13.4398816 237.128921,12.1323613 235.587705,11.2022114 C234.34944,10.455034 233.696782,9.02440553 233.96369,7.64221571 M227.839091,13.173067 C229.055925,13.3990065 230.20652,13.2268162 231.259054,12.6613237 C231.912199,12.3106668 232.552356,12.1399248 233.215893,12.1399248 L233.234563,12.1399248 C234.61164,12.1465227 236.020376,13.1822398 236.441682,14.4976455 C236.775641,15.5399605 236.653877,16.5095371 236.069244,17.4617338 C235.933679,17.6822018 235.686416,17.883037 235.462207,18.0503996 C234.980343,18.4102292 234.47981,18.7661965 233.995673,19.1104164 C233.705062,19.3172057 233.414288,19.5238342 233.1253,19.7328765 C233.121078,19.7304626 233.116208,19.7277269 233.11085,19.7243475 C231.037117,18.473312 229.309033,16.8523086 227.974168,14.9067183 C227.516658,14.2396818 227.119218,13.5555871 226.772919,12.8365716 C227.12831,12.9962098 227.479479,13.1062829 227.839091,13.173067 M230.288183,4.32521762 C231.35679,4.13725654 232.419065,4.0564719 233.446434,4.08608221 C233.79257,4.09605959 234.144551,4.1193938 234.493447,4.14675115 C234.20933,4.34308036 233.950052,4.56515766 233.717563,4.81169566 C232.814556,5.76888102 232.348279,6.91257912 232.331557,8.21076579 C232.318406,9.22572344 231.909277,10.1468615 231.179663,10.8048862 C230.480734,11.4352317 229.543146,11.7533815 228.605234,11.6774247 C227.186757,11.5628457 226.19267,10.8670034 225.650574,9.60937002 C225.479779,9.21317124 225.420845,8.72910709 225.363859,8.26097457 L225.353306,8.17407476 C225.300704,7.74504716 225.27148,7.30008793 225.243555,6.86977292 C225.227158,6.61969457 225.21076,6.36977714 225.189817,6.11149158 C226.781686,5.24104511 228.496944,4.64014899 230.288183,4.32521762 M242.287521,4.80606326 C239.435144,3.24830363 236.412458,2.48149323 233.047046,2.46153846 L233.0425,2.46153846 C229.822718,2.47747009 226.756522,3.27405172 223.929309,4.82939747 C223.813389,4.893124 223.461083,5.0868784 223.507516,5.57625309 C223.536415,5.88313818 223.557034,6.1996788 223.576841,6.50575925 C223.616942,7.12387441 223.658342,7.76323175 223.771989,8.39051967 C224.778739,13.9530733 227.779832,18.3012825 232.691818,21.3144531 C232.851897,21.4126177 232.99769,21.4485041 233.127735,21.4485041 C233.312168,21.4485041 233.464455,21.3760876 233.579076,21.3075333 C235.241082,20.3143006 236.699985,19.1244169 237.915034,17.7708718 C241.026202,14.3055003 242.652653,10.2035073 242.74909,5.57914975 C242.758831,5.11761519 242.490462,4.91694099 242.287521,4.80606326" id="Page-1"></path>
                </g>
            </g>
        </g>
    </g>
</svg>