<?xml version="1.0" encoding="UTF-8"?>
<svg width="17px" height="17px" viewBox="0 0 17 17" version="1.1" xmlns="http://www.w3.org/2000/svg" xmlns:xlink="http://www.w3.org/1999/xlink">
    <!-- Generator: sketchtool 47.1 (45422) - http://www.bohemiancoding.com/sketch -->
    <title>6D0E19D7-A11F-47B4-9732-EFFB1266E7E6</title>
    <desc>Created with sketchtool.</desc>
    <defs></defs>
    <g id="Layout" stroke="none" stroke-width="1" fill="none" fill-rule="evenodd">
        <g id="iPhone-SE" transform="translate(-283.000000, -917.000000)" fill="#8E8E8E">
            <g id="1.-Hero-block">
                <g id="Aquired-for" transform="translate(20.000000, 913.000000)">
                    <path d="M269.039652,12.8409894 C265.965529,12.8409894 263.858093,14.0568704 263.858093,16.5744315 C263.858093,19.0919927 265.613665,20.3076923 268.175903,20.3076923 C272.361015,20.3076923 275.875528,17.2131182 276.331453,13.1254145 C275.777456,13.2217344 275.21541,13.2683526 274.652617,13.2654503 C272.3831,13.2652689 271.308794,12.8409894 269.039652,12.8409894 M269.205476,11.3501157 C268.642683,11.347032 268.080637,11.3938316 267.52664,11.4901516 C267.982752,7.40262916 271.49764,4.30751091 275.682191,4.30769231 C278.244428,4.30769231 280,5.52357331 280,8.04113448 C280,10.5586956 277.892939,11.7745766 274.818442,11.7745766 C272.549299,11.7743953 271.474993,11.3501157 269.205476,11.3501157" id="Fill-1"></path>
                </g>
            </g>
        </g>
    </g>
</svg>