<?xml version="1.0" encoding="UTF-8"?>
<svg width="13px" height="23px" viewBox="0 0 13 23" version="1.1" xmlns="http://www.w3.org/2000/svg" xmlns:xlink="http://www.w3.org/1999/xlink">
    <!-- Generator: sketchtool 47.1 (45422) - http://www.bohemiancoding.com/sketch -->
    <title>722B2AE7-EC88-4904-BF14-8E1D9091A2AB</title>
    <desc>Created with sketchtool.</desc>
    <defs></defs>
    <g id="Layout" stroke="none" stroke-width="1" fill="none" fill-rule="evenodd">
        <g id="iPhone-SE" transform="translate(-91.000000, -913.000000)" fill="#8E8E8E">
            <g id="1.-Hero-block">
                <g id="Aquired-for" transform="translate(20.000000, 913.000000)">
                    <path d="M78.6326178,22.363459 L78.6326178,19.6340667 C81.5269066,19.4027623 83.8143284,18.1305879 83.8143284,14.9154563 C83.8143284,9.15597603 75.0614389,10.6594548 75.0614389,7.86067123 C75.0614389,6.86606218 75.9483984,6.38032288 77.7223173,6.35719243 C79.5429183,6.33406199 81.3868604,6.81980129 82.7639817,7.7912799 L82.7639817,4.55301788 C81.6902939,3.95162636 80.1731264,3.53527839 78.6326178,3.39649573 L78.6326178,0.620842572 L76.0884446,0.620842572 L76.0884446,3.37336529 C73.4509072,3.72032193 71.4902599,5.17753984 71.4902599,7.90693211 C71.4902599,13.643282 80.2198085,12.0472814 80.2198085,15.0773694 C80.2198085,16.2338916 79.1694617,16.6271091 77.2554965,16.6271091 C75.3882134,16.6271091 73.2641789,16.1413698 71.3968958,14.9154563 L71.3968958,18.2231097 C72.703994,18.9632839 74.3612077,19.4490232 76.0884446,19.6109363 L76.0884446,22.363459 L78.6326178,22.363459 Z" id="$"></path>
                </g>
            </g>
        </g>
    </g>
</svg>