<?xml version="1.0" encoding="UTF-8"?>
<svg width="13px" height="20px" viewBox="0 0 13 20" version="1.1" xmlns="http://www.w3.org/2000/svg" xmlns:xlink="http://www.w3.org/1999/xlink">
    <!-- Generator: sketchtool 47.1 (45422) - http://www.bohemiancoding.com/sketch -->
    <title>FD4ACABD-45E4-4A57-88E9-D158794B3401</title>
    <desc>Created with sketchtool.</desc>
    <defs></defs>
    <g id="Layout" stroke="none" stroke-width="1" fill="none" fill-rule="evenodd">
        <g id="iPhone-SE" transform="translate(-165.000000, -915.000000)" fill="#8E8E8E">
            <g id="1.-Hero-block">
                <g id="Aquired-for" transform="translate(20.000000, 913.000000)">
                    <path d="M151.263057,2.46153846 C152.428015,3.13812308 153.592798,3.81538462 154.758459,4.49095385 C155.051719,4.6612 155.348142,4.82721538 155.729785,5.04416923 C154.243628,5.86713846 152.867115,6.64373846 151.470395,7.38513846 C151.28748,7.48210769 150.952225,7.48193846 150.77019,7.38412308 C149.398069,6.64678462 148.046506,5.87407692 146.62466,5.07632308 C148.093772,4.18024615 149.502616,3.32089231 150.911636,2.46153846 L151.263057,2.46153846 Z M145.277162,6.68860923 C146.559284,7.40999812 147.849631,8.11785281 149.115959,8.86565783 C149.335432,8.99529259 149.589125,9.29059893 149.59587,9.51611449 C149.638975,10.9751985 149.617916,12.4360762 149.617916,14.0732246 C148.087695,13.1944803 146.682346,12.3874836 145.277162,11.5804868 L145.277162,6.68860923 Z M145.277162,14.0732246 C146.553055,14.8086457 147.834385,15.5349129 149.099572,16.288315 C149.309256,16.4130374 149.590921,16.6518572 149.596356,16.8445804 C149.637371,18.3507307 149.618922,19.8583522 149.618922,21.45784 C148.092166,20.6429757 146.684664,19.8918621 145.277162,19.1405851 L145.277162,14.0732246 Z M151.487839,21.45784 C151.487839,19.7531568 151.477631,18.2171404 151.500687,16.6816386 C151.503679,16.4903229 151.630046,16.2139017 151.787213,16.1248498 C153.696452,15.0418141 155.62241,13.9867465 157.692335,12.8424554 C157.692335,14.5836859 157.701135,16.1653436 157.678431,17.7466581 C157.676143,17.8995391 157.513168,18.1090427 157.365505,18.1922607 C155.473163,19.2579665 153.569732,20.3053129 151.487839,21.45784 Z M151.488497,14.0732246 C151.488497,12.4551188 151.475636,10.994535 151.503995,9.53460341 C151.507787,9.33794559 151.67151,9.06497279 151.843477,8.96321949 C153.109404,8.21458262 154.396105,7.50051578 155.829876,6.68860923 C155.829876,8.33818679 155.838615,9.86106192 155.815367,11.3832848 C155.813224,11.5246632 155.638454,11.7120262 155.494681,11.795353 C154.222984,12.5327383 152.940405,13.251371 151.488497,14.0732246 Z" id="Combined-Shape"></path>
                </g>
            </g>
        </g>
    </g>
</svg>