<?xml version="1.0" encoding="UTF-8"?>
<svg width="22px" height="16px" viewBox="0 0 22 16" version="1.1" xmlns="http://www.w3.org/2000/svg" xmlns:xlink="http://www.w3.org/1999/xlink">
    <!-- Generator: sketchtool 47.1 (45422) - http://www.bohemiancoding.com/sketch -->
    <title>C051A67E-2FFE-48D7-8E7D-FC5569B3F0D6</title>
    <desc>Created with sketchtool.</desc>
    <defs></defs>
    <g id="Layout" stroke="none" stroke-width="1" fill="none" fill-rule="evenodd">
        <g id="iPhone-SE" transform="translate(-200.000000, -917.000000)" fill="#8E8E8E">
            <g id="1.-Hero-block">
                <g id="Aquired-for" transform="translate(20.000000, 913.000000)">
                    <path d="M187.157204,4.94104248 C189.289276,4.93718485 191.421025,4.92307692 193.553097,4.92307692 C195.252945,4.92307692 196.953224,4.93211481 198.652642,4.96253502 C201.550947,5.01433754 202.236825,6.10340299 201.288472,8.91297359 C200.331944,11.7448083 199.492885,14.6312009 198.3125,17.3625166 C197.913839,18.2846016 196.648903,19.3759816 195.743472,19.4112514 C193.566005,19.4956785 191.386494,19.5218002 189.205908,19.5227922 L188.951823,19.5227922 C186.259195,19.5215798 183.564954,19.4838852 180.87211,19.471651 C180.59038,19.470659 180.309188,19.3251711 180.044346,19.251876 C180.094259,15.9440092 180.494856,15.498287 183.404779,15.4939885 C186.635481,15.4894696 189.867581,15.4366751 193.095917,15.5282664 C194.540067,15.5691573 195.328138,15.0427555 195.70324,13.6221538 C196.088993,12.1611022 196.604691,10.735651 197.174606,8.94394489 L183.539029,8.94394489 C183.717813,5.27335017 184.026974,4.94655339 187.157204,4.94104248 Z M184.623121,10.3515408 C185.514676,10.3512101 186.406015,10.3512101 187.299721,10.3512101 C188.491401,10.3512101 189.687276,10.3513203 190.89294,10.3513203 C190.49159,13.9902824 190.271821,14.2145763 187.221839,14.2404776 C185.222511,14.2576716 183.223613,14.2436739 181.227082,14.2436739 C181.315721,10.7117336 181.65554,10.3528634 184.623121,10.3515408 Z" id="Combined-Shape"></path>
                </g>
            </g>
        </g>
    </g>
</svg>