<?xml version="1.0" encoding="UTF-8"?>
<svg width="108px" height="134px" viewBox="0 0 108 134" version="1.1" xmlns="http://www.w3.org/2000/svg" xmlns:xlink="http://www.w3.org/1999/xlink">
    <!-- Generator: sketchtool 47.1 (45422) - http://www.bohemiancoding.com/sketch -->
    <title>97C1E583-05BC-4365-93E7-C8499D9AB7A8</title>
    <desc>Created with sketchtool.</desc>
    <defs>
        <path d="M24.5979487,33.5367553 C22.9922621,33.5367553 21.5618826,32.6714034 20.7980946,31.3323813 L16.9925854,24.6659134 L12.0461657,21.7694727 L17.6839178,21.7701888 C19.3878614,21.7705468 20.7715865,22.4626135 21.6438811,23.9810072 L24.5979487,29.1244271 L27.5523698,23.9810072 C28.3458469,22.5986639 29.7118999,21.7655344 31.3557583,21.7705468 L33.8439894,21.7777074 L28.3981563,31.3323813 C27.6347217,32.6714034 26.2036354,33.5367553 24.5979487,33.5367553 Z" id="path-1"></path>
    </defs>
    <g id="Layout" stroke="none" stroke-width="1" fill="none" fill-rule="evenodd">
        <g id="Guide" transform="translate(-289.000000, -2068.000000)">
            <g id="doc-5-copy" transform="translate(289.000000, 2068.000000)">
                <g id="doc-icon-10-hover">
                    <path d="M19.4420123,0 C8.80145152,0 0,8.88286933 0,19.9191615 L0,109.420799 C0,120.322503 8.67008657,129.339961 19.4420123,129.339961 L83.8108368,129.339961 C94.4513976,129.339961 103.252849,120.457092 103.252849,109.420799 L103.252849,40.1075009 L103.252849,40.1075009 C103.252849,39.2999673 102.990119,38.2232559 102.333295,37.6849002 L64.2374596,0.807533576 C63.5806348,0.269177859 62.9238101,0 62.1356204,0 L62.1356204,0 L19.4420123,0 Z" id="Shape" fill="#8E8E8E" fill-rule="nonzero"></path>
                    <path d="M63.0989634,0.588364128 L63.0989634,25.5251054 L63.0989634,25.5251054 C63.0989634,32.5493737 68.7932579,38.2436683 75.8175262,38.2436683 L102.679222,38.2436683" id="Path-2" stroke="#FFFFFF" stroke-width="1.41317365"></path>
                    <path d="M22.8837739,132.870146 L85.7572865,132.870146 C96.1579155,132.870146 106.694611,123.399844 106.694611,110.991344 L106.694611,43.6376857 C106.694611,42.8301521 106.431881,41.7534407 105.775056,41.215085" id="Shape-Copy" stroke="#03FF21" stroke-width="1.41317365" fill-rule="nonzero"></path>
                    <mask id="mask-2" fill="white">
                        <use xlink:href="#path-1"></use>
                    </mask>
                    <use id="Mask" fill="#03FF21" xlink:href="#path-1"></use>
                    <rect id="Rectangle-14" fill="#FFFFFF" x="13.1934196" y="57.0713204" width="52.7736784" height="1.17672826"></rect>
                    <rect id="Rectangle-14-Copy-6" fill="#FFFFFF" x="13.1934196" y="64.7200541" width="52.7736784" height="1.17672826"></rect>
                    <rect id="Rectangle-14-Copy-7" fill="#FFFFFF" x="13.1934196" y="72.3687877" width="52.7736784" height="1.17672826"></rect>
                    <rect id="Rectangle-14-Copy-8" fill="#FFFFFF" x="13.1934196" y="80.0175214" width="21.7978237" height="1.17672826"></rect>
                    <rect id="Rectangle-14-Copy-9" fill="#FFFFFF" x="13.1934196" y="87.666255" width="21.7978237" height="1.17672826"></rect>
                </g>
            </g>
        </g>
    </g>
</svg>