<?xml version="1.0" encoding="UTF-8"?>
<svg width="155px" height="191px" viewBox="0 0 155 191" version="1.1" xmlns="http://www.w3.org/2000/svg" xmlns:xlink="http://www.w3.org/1999/xlink">
    <!-- Generator: sketchtool 47.1 (45422) - http://www.bohemiancoding.com/sketch -->
    <title>8F044962-2AD9-4B5B-9AAB-5F142968F891</title>
    <desc>Created with sketchtool.</desc>
    <defs>
        <path d="M35.4110197,47.5 C33.1286091,47.5 31.0953897,46.2743532 30.0096998,44.3778207 L24.6003415,34.9357258 L17.5692308,30.8333333 L25.5830391,30.8343475 C28.0051173,30.8348546 29.9720197,31.8150678 31.2119469,33.9656545 L35.4110197,41.2505705 L39.6105948,33.9656545 C40.7384865,32.0077636 42.6802688,30.8277553 45.0169387,30.8348546 L48.5538462,30.8449965 L40.8128419,44.3778207 C39.7276544,46.2743532 37.6934302,47.5 35.4110197,47.5 Z" id="path-1"></path>
    </defs>
    <g id="Layout" stroke="none" stroke-width="1" fill="none" fill-rule="evenodd">
        <g id="16-screen---documents" transform="translate(-349.000000, -413.000000)">
            <g id="doc-2" transform="translate(348.000000, 414.000000)">
                <g id="doc-icon-2" transform="translate(2.000000, 0.000000)">
                    <path d="M28.0820904,0 C12.957017,0 0.446153846,12.5813094 0.446153846,28.2126331 L0.446153846,154.978856 C0.446153846,170.419554 12.7702877,183.191489 28.0820904,183.191489 L119.579448,183.191489 C134.704521,183.191489 147.215385,170.61018 147.215385,154.978856 L147.215385,56.806518 L147.215385,56.806518 C147.215385,55.6627626 146.841926,54.1377554 145.90828,53.3752518 L91.7567821,1.1437554 C90.8231356,0.381251799 89.8894891,0 88.7691133,0 L88.7691133,0 L28.0820904,0 Z" id="Shape" stroke="#000000" stroke-width="2" fill-rule="nonzero"></path>
                    <path d="M90.9538462,0.833333333 L90.9538462,36.1666667 L90.9538462,36.1666667 C90.9538462,46.1077922 99.0127207,54.1666667 108.953846,54.1666667 L147.215385,54.1666667" id="Path-2" stroke="#000000" stroke-width="2"></path>
                    <path d="M32.9743981,188.191489 L122.346238,188.191489 C137.130259,188.191489 152.107692,174.778166 152.107692,157.203308 L152.107692,61.806518 C152.107692,60.6627626 151.734234,59.1377554 150.800587,58.3752518" id="Shape-Copy" stroke="#03FF21" stroke-width="2" fill-rule="nonzero"></path>
                    <mask id="mask-2" fill="white">
                        <use xlink:href="#path-1"></use>
                    </mask>
                    <use id="Mask" fill="#000000" xlink:href="#path-1"></use>
                    <rect id="Rectangle-14" fill="#000000" x="19.2" y="80.8333333" width="75.0153846" height="1.66666667"></rect>
                    <rect id="Rectangle-14-Copy-6" fill="#000000" x="19.2" y="91.6666667" width="75.0153846" height="1.66666667"></rect>
                    <rect id="Rectangle-14-Copy-7" fill="#000000" x="19.2" y="102.5" width="75.0153846" height="1.66666667"></rect>
                    <rect id="Rectangle-14-Copy-8" fill="#000000" x="19.2" y="113.333333" width="30.9846154" height="1.66666667"></rect>
                    <rect id="Rectangle-14-Copy-9" fill="#000000" x="19.2" y="124.166667" width="30.9846154" height="1.66666667"></rect>
                </g>
            </g>
        </g>
    </g>
</svg>