<?xml version="1.0" encoding="UTF-8"?>
<svg width="48px" height="38px" viewBox="0 0 48 38" version="1.1" xmlns="http://www.w3.org/2000/svg" xmlns:xlink="http://www.w3.org/1999/xlink">
    <!-- Generator: sketchtool 47.1 (45422) - http://www.bohemiancoding.com/sketch -->
    <title>B20969D7-8913-4344-8431-AACD36DE85F6</title>
    <desc>Created with sketchtool.</desc>
    <defs></defs>
    <g id="Layout" stroke="none" stroke-width="1" fill="none" fill-rule="evenodd">
        <g id="9.-Team-action" transform="translate(-136.000000, -498.000000)">
            <g id="swipe-icon" transform="translate(136.000000, 499.000000)">
                <path d="M29.4277789,15.8471932 L27.7931537,15.8471932 C25.4069685,15.8471932 24.2580645,18.0864706 24.2580645,19.6367395 C24.2580645,21.1870084 24.2580645,21.2731344 24.2580645,23.2540336 C24.2580645,30.1441176 31.3282428,34.1059159 31.3282428,34.1059159 L31.3282428,35.8856246 M34.2736791,16.3632605 L34.2736791,2.1242129 C34.2736791,0.950831595 33.2979945,0 32.0939431,0 L32.0939431,0 C30.8898918,0 29.9142071,0.950831595 29.9142071,2.1242129 L29.9142071,21.8760168 M38.5157861,16.7656414 L38.5157861,10.3923137 C38.5157861,9.21893242 37.5401014,8.26810082 36.3360501,8.26810082 L36.3360501,8.26810082 C35.1319987,8.26810082 34.1563141,9.21893242 34.1563141,10.3923137 L34.1563141,14.354112 M42.757893,18.1436583 L42.757893,11.7703305 C42.757893,10.5969492 41.7822084,9.64611763 40.5781571,9.64611763 L40.5781571,9.64611763 C39.3741057,9.64611763 38.3984211,10.5969492 38.3984211,11.7703305 L38.3984211,15.7321288 M42.6405281,17.7991541 L42.6405281,13.8373557 C42.6405281,12.6639744 43.6162127,11.7131428 44.820264,11.7131428 L44.820264,11.7131428 C46.0243154,11.7131428 47,12.6639744 47,13.8373557 L47,20.2106835 C47,20.2106835 47,22.1626443 47,23.7129132 C47,25.2631821 46.5878086,31.2920056 43.6416653,34.2202913 L43.6416653,36 M43.3475459,30.7724933 C44.0234549,29.4682003 44.6717903,27.5382878 44.8280412,24.8043025 M41.9335102,32.8650118 C41.9335102,32.8650118 42.1392524,32.717564 42.4482192,32.3833949" id="Combined-Shape" stroke="#979797" stroke-width="1.3780168" stroke-linecap="round" stroke-linejoin="round"></path>
                <path d="M20.4937496,9.09746696 L14.3200462,9.09746696 C13.9473176,9.09746696 13.6451613,9.405641 13.6451613,9.78579295 C13.6451613,10.1659449 13.9473176,10.4741189 14.3200462,10.4741189 L20.3817187,10.4741189 L18.5670251,12.324954 C18.3034662,12.5937621 18.3034662,13.029586 18.5670251,13.298394 C18.8305841,13.567202 19.2578976,13.567202 19.5214566,13.298394 L22.5442663,10.2153819 C22.8078252,9.94657385 22.8078252,9.51074994 22.5442663,9.24194192 L19.5632995,6.20160602 C19.2997405,5.93279799 18.872427,5.93279799 18.608868,6.20160602 C18.345309,6.47041404 18.345309,6.90623795 18.608868,7.17504597 L20.4937496,9.09746696 Z" id="Combined-Shape" fill="#979797" fill-rule="nonzero"></path>
                <path d="M2.2886601,10.4318181 L8.4163363,10.4318181 C8.79213177,10.4318181 9.09677419,10.1265577 9.09677419,9.74999993 C9.09677419,9.37344215 8.79213177,9.06818176 8.4163363,9.06818176 L2.33110782,9.06818176 L4.21267644,7.16118076 C4.4768851,6.8934009 4.47442952,6.46170452 4.20719176,6.19695992 C3.939954,5.93221531 3.50913155,5.93467586 3.24492289,6.20245572 L0.196561121,9.29202094 C-0.0654995709,9.5576238 -0.0655233761,9.98505969 0.196507729,10.2506919 L3.20200192,13.2974902 C3.46618075,13.5652996 3.89700291,13.5678083 4.16427016,13.3030936 C4.43153741,13.0383789 4.43404107,12.6066828 4.16986224,12.3388734 L2.2886601,10.4318181 Z" id="Combined-Shape" fill="#979797" fill-rule="nonzero"></path>
            </g>
        </g>
    </g>
</svg>