<?xml version="1.0" encoding="UTF-8"?>
<svg width="222px" height="222px" viewBox="0 0 222 222" version="1.1" xmlns="http://www.w3.org/2000/svg" xmlns:xlink="http://www.w3.org/1999/xlink">
    <!-- Generator: sketchtool 47.1 (45422) - http://www.bohemiancoding.com/sketch -->
    <title>971D7DC9-7742-4E98-8165-A892C509F48A</title>
    <desc>Created with sketchtool.</desc>
    <defs></defs>
    <g id="Layout" stroke="none" stroke-width="1" fill="none" fill-rule="evenodd">
        <g id="5-screen---Ecosystem" transform="translate(-370.000000, -440.000000)" stroke-width="2" stroke="#03FF21">
            <g id="Ecosystem-parts" transform="translate(371.000000, 441.000000)">
                <g id="Page-1-Copy-4">
                    <path d="M219.683437,122.705212 L219.999103,100.446389 C220.051293,96.7762886 217.823112,93.4605716 214.405501,92.1221633 L199.369699,86.2348506 C196.97653,85.2979648 195.112838,83.3602191 194.269378,80.9317236 C193.371204,78.3466597 192.367807,75.8247282 191.249928,73.3549862 C190.187607,71.008142 190.204442,68.3161738 191.300435,65.9844814 L198.200472,51.2965032 C199.757758,47.9807862 199.099489,44.0463711 196.546382,41.418377 L181.050129,25.4643825 C178.496181,22.8347049 174.581081,22.0628053 171.220711,23.5257949 L156.345688,29.9981352 C153.982823,31.0267734 151.288298,30.9661663 148.973414,29.8356743 C146.537314,28.6462587 144.044816,27.5696397 141.486659,26.5990833 C139.083388,25.6866087 137.200335,23.7690654 136.331623,21.3498294 L130.873547,6.15005731 C129.632769,2.69797417 126.382673,0.375541264 122.714213,0.321668228 L100.454289,0.000955310425 C96.7841461,-0.0529177256 93.4667071,2.17607914 92.1282833,5.59364986 L86.2400605,20.6318028 C85.3014803,23.0274694 83.3611867,24.8919815 80.9301377,25.7354312 C78.3492526,26.6293869 75.8272918,27.6327722 73.3600465,28.7481124 C71.0140169,29.8104213 68.3220173,29.7927442 65.9911397,28.6976064 L51.3021492,21.7984907 C47.9863937,20.2403815 44.0519328,20.8994844 41.4239083,23.4525613 L25.4747791,38.9435844 C22.8433875,41.4991866 22.0723207,45.4192917 23.5395362,48.7813059 L30.0018502,63.5888149 C31.0355511,65.9567031 30.9741015,68.6587726 29.8368621,70.9803638 C28.6398567,73.4223275 27.5505986,75.9307907 26.5876069,78.4948105 C25.6801725,80.9140465 23.7550308,82.8105458 21.3231401,83.6834573 L6.15686258,89.1212669 C2.70221403,90.3595049 0.378912376,93.6112477 0.325038715,97.2805065 L0.000954969447,119.54438 C-0.0529186921,123.214481 2.17694583,126.533565 5.59539801,127.871973 L20.6025799,133.744976 C23.0092173,134.686912 24.8796435,136.640652 25.7172106,139.085982 C26.6044425,141.679464 27.6196243,144.221598 28.744237,146.701441 C29.8099253,149.051652 29.792248,151.748671 28.6937304,154.082047 L21.8138955,168.696792 C20.2524011,172.015034 20.9106699,175.953658 23.4663017,178.583335 L38.9608718,194.526387 C41.5139783,197.154381 45.4282365,197.925439 48.7886061,196.464133 L63.6611038,189.991793 C66.023969,188.963996 68.7168103,189.024603 71.0325359,190.154253 C73.4694773,191.343669 75.9611342,192.420288 78.5184496,193.392528 C80.9208782,194.305003 82.803931,196.223388 83.671802,198.642624 L89.1290356,213.846605 C90.3681298,217.301213 93.6199103,219.624488 97.2892117,219.676677 L119.547452,219.999074 C123.216753,220.052105 126.534192,217.82395 127.873458,214.406379 L133.769257,199.358967 C134.706995,196.965825 136.644763,195.102997 139.071603,194.259547 C141.655856,193.361383 144.178658,192.357997 146.648429,191.240974 C148.9953,190.177823 151.689825,190.196342 154.021544,191.292321 L168.702117,198.195646 C172.018714,199.754597 175.955701,199.096336 178.584567,196.541575 L194.532854,181.042976 C197.159195,178.489899 197.931946,174.578212 196.471464,171.219565 L189.999891,156.327879 C188.975449,153.96925 189.035216,151.279807 190.161512,148.967476 C191.349258,146.530563 192.425047,144.036409 193.395615,141.47744 C194.308942,139.072514 196.228191,137.1878 198.649981,136.319939 L213.851613,130.868661 C217.307103,129.629581 219.631246,126.376155 219.683437,122.705212 Z" id="Stroke-1"></path>
                </g>
            </g>
        </g>
    </g>
</svg>