<?xml version="1.0" encoding="UTF-8"?>
<svg width="499px" height="499px" viewBox="0 0 499 499" version="1.1" xmlns="http://www.w3.org/2000/svg" xmlns:xlink="http://www.w3.org/1999/xlink">
    <!-- Generator: sketchtool 47.1 (45422) - http://www.bohemiancoding.com/sketch -->
    <title>30D5B46A-2A1E-4A07-9B78-277CB4DF84A7</title>
    <desc>Created with sketchtool.</desc>
    <defs></defs>
    <g id="Layout" stroke="none" stroke-width="1" fill="none" fill-rule="evenodd">
        <g id="5-screen---Ecosystem" transform="translate(-589.000000, -302.000000)" stroke-width="4" stroke="#000000">
            <g id="Center" transform="translate(591.000000, 304.000000)">
                <g id="Page-1">
                    <path d="M472.877271,369.962469 L492.853822,322.260614 C496.147103,314.39871 494.218758,305.318615 488.013824,299.473211 L460.710838,273.74982 C456.364089,269.655167 454.026475,263.862913 454.313495,257.898453 C454.618586,251.54919 454.643035,245.242447 454.375151,238.951648 C454.120022,232.97337 456.49059,227.185368 460.871356,223.110912 L488.475181,197.434292 C494.707754,191.637786 496.698819,182.587455 493.475697,174.71067 L473.905226,126.892948 C470.681042,119.014036 462.91132,113.955248 454.401726,114.194422 L416.727773,115.252101 C410.74395,115.418991 404.990805,112.952845 400.979975,108.508467 C396.76079,103.834482 392.320493,99.3550254 387.650582,95.0445848 C383.262374,90.9945777 380.86523,85.2288983 381.089531,79.26125 L382.500178,41.7715779 C382.821214,33.25487 377.827077,25.4322973 369.966997,22.1380789 L322.268625,2.14847685 C314.405357,-1.14574153 305.321724,0.781466578 299.475033,6.9872255 L273.747465,34.2944782 C269.648402,38.6442496 263.85061,40.9817734 257.880607,40.68945 C251.540667,40.3811818 245.236871,40.3556699 238.952209,40.6235444 C232.974764,40.8776 227.187603,38.5071234 223.11299,34.1265251 L197.435385,6.52376012 C191.638656,0.291426347 182.587977,-1.69849841 174.710889,1.52449938 L126.905151,21.0878408 C119.018496,24.3161536 113.95845,32.0951436 114.2072,40.6139774 L115.298937,78.1280984 C115.474338,84.1286995 112.998529,89.8986309 108.535909,93.9156852 C103.838359,98.1432123 99.3162084,102.603535 95.0183587,107.295591 C90.9650069,111.721898 85.1714672,114.143398 79.1738248,113.913791 L41.772008,112.488316 C33.252847,112.164103 25.4257217,117.156986 22.1281877,125.018889 L2.13037687,172.722871 C-1.16715711,180.587963 0.762251069,189.673373 6.97037437,195.520903 L34.2223348,221.186893 C38.5935339,225.303869 40.9311475,231.134391 40.6164892,237.131803 C40.2826962,243.490633 40.2667507,249.8484 40.5410137,256.168962 C40.7993312,262.156807 38.4245114,267.954377 34.0331146,272.032021 L6.53665616,297.568326 C0.293452717,303.364832 -1.70186362,312.423667 1.5265731,320.306831 L21.1012961,368.101166 C24.3276068,375.977952 32.0941391,381.033551 40.6037328,380.794378 L78.2702452,379.737762 C84.2540682,379.569809 90.0061495,382.034892 94.0159169,386.478207 C98.2382911,391.154317 102.675398,395.633774 107.344247,399.944215 C111.731392,403.995285 114.127472,409.760964 113.901046,415.728612 L112.480832,453.228914 C112.158732,461.747748 117.15287,469.572447 125.015075,472.867728 L172.712384,492.855204 C180.574589,496.150486 189.656096,494.223278 195.502787,488.020708 L221.255869,460.69751 C225.350679,456.353054 231.142092,454.016593 237.105718,454.303601 C243.452035,454.608681 249.759021,454.633129 256.051124,454.365255 C262.031758,454.110136 267.823172,456.483802 271.897784,460.867589 L297.555192,488.470354 C303.352984,494.708003 312.408978,496.701117 320.289255,493.472804 L368.098182,473.893518 C375.972081,470.669457 381.027875,462.908538 380.792944,454.40246 L379.753296,416.699126 C379.588526,410.7251 382.049451,404.981743 386.483369,400.974256 C391.155407,396.749918 395.635036,392.307666 399.945642,387.634744 C403.997931,383.242453 409.77021,380.843275 415.741276,381.071819 L453.231325,382.500483 C461.753675,382.825759 469.582927,377.828625 472.877271,369.962469 Z" id="Stroke-1"></path>
                </g>
            </g>
        </g>
    </g>
</svg>