<?xml version="1.0" encoding="UTF-8"?>
<svg width="357px" height="356px" viewBox="0 0 357 356" version="1.1" xmlns="http://www.w3.org/2000/svg" xmlns:xlink="http://www.w3.org/1999/xlink">
    <!-- Generator: sketchtool 47.1 (45422) - http://www.bohemiancoding.com/sketch -->
    <title>1615CCC3-0F45-4920-B8BC-AA7724BE12A6</title>
    <desc>Created with sketchtool.</desc>
    <defs></defs>
    <g id="Layout" stroke="none" stroke-width="1" fill="none" fill-rule="evenodd">
        <g id="5-screen---Ecosystem" transform="translate(-660.000000, -373.000000)" stroke="#03FF21" stroke-width="2">
            <g id="Center" transform="translate(591.000000, 304.000000)">
                <g id="Page-1" transform="translate(70.000000, 70.000000)">
                    <path d="M353.721366,155.995434 C351.475104,135.837459 345.637933,116.57371 336.655477,98.6547448 C334.859159,95.5189259 330.817442,94.1750035 327.674749,95.5189259 C324.530328,96.8628483 323.183953,101.343451 324.530328,104.478409 C332.614624,121.053451 338.00358,138.972417 340.248114,157.340218 C345.18799,200.792847 333.512784,243.350389 306.118928,277.844398 C278.724209,312.338406 240.553307,334.289138 196.992586,339.216854 C151.186467,344.592543 104.931268,330.257371 70.3521391,300.243104 L71.2502983,300.243104 C74.8420715,300.243104 77.9864923,297.107285 77.9864923,293.524354 C77.9864923,289.939699 74.8420715,286.80388 71.2502983,286.80388 L47,286.80388 L47,293.524354 L47,293.971466 L47,311.442457 C47,315.027112 50.1426936,318.162069 53.736194,318.162069 C57.3288308,318.162069 60.4715243,315.027112 60.4715243,311.442457 L60.4715243,309.650561 C92.806119,338.321767 135.019601,354 178.131243,354 C184.867437,354 192.05271,353.552026 198.788904,352.656078 C295.790097,341.456724 365.397435,253.20582 353.721366,155.995434 Z" id="Stroke-1"></path>
                    <path d="M14.6674996,196.570033 C9.72535318,153.004662 21.4056122,110.335835 48.8072699,75.7523285 C76.2080638,41.1688219 114.390702,19.6102723 157.964694,14.6697713 C204.682274,9.28013394 249.603024,23.2033639 284.64121,53.7455062 L283.741931,53.7455062 C280.148271,53.7455062 277.004682,56.8885976 277.004682,60.4816892 C277.004682,64.0756445 280.148271,67.218736 283.741931,67.218736 L308,67.218736 L308,60.4816892 L308,60.0325528 L308,42.5170949 C308,38.9231396 304.855547,35.7800482 301.261887,35.7800482 C297.668227,35.7800482 294.523775,38.9231396 294.523775,42.5170949 L294.523775,44.3136407 C257.239552,11.0766797 206.479104,-4.643096 156.167863,1.19654157 C109.450283,6.58531524 67.2247776,30.3904108 38.0262898,67.6687361 C8.82693817,104.946198 -4.20007946,151.207252 1.19041059,198.366579 C3.43731197,218.128583 9.27700953,237.44145 17.8119521,255.406908 C19.1587108,257.653454 21.4056122,259 23.6507858,259 C24.5492008,259 25.4476158,259 26.7961022,258.101727 C29.9405547,256.305181 31.7373848,252.262953 29.9405547,249.119862 C21.8539558,232.950086 16.4643296,214.984628 14.6674996,196.570033 Z" id="Stroke-3"></path>
                </g>
            </g>
        </g>
    </g>
</svg>