<?xml version="1.0" encoding="UTF-8"?>
<svg width="79px" height="122px" viewBox="0 0 79 122" version="1.1" xmlns="http://www.w3.org/2000/svg" xmlns:xlink="http://www.w3.org/1999/xlink">
    <!-- Generator: sketchtool 47.1 (45422) - http://www.bohemiancoding.com/sketch -->
    <title>AEFBA71D-F18B-4F73-9CE2-511CEC165816</title>
    <desc>Created with sketchtool.</desc>
    <defs></defs>
    <g id="Layout" stroke="none" stroke-width="1" fill="none" fill-rule="evenodd">
        <g id="5-screen---Ecosystem" transform="translate(-799.000000, -491.000000)" stroke="#000000" stroke-width="2">
            <g id="Center" transform="translate(591.000000, 304.000000)">
                <g id="Page-1" transform="translate(209.000000, 188.000000)">
                    <path d="M58.3438,119.1442 L18.2998,119.1442 C8.1928,119.1442 -0.0002,110.9512 -0.0002,100.8442 L-0.0002,49.1952 L76.6428,49.1952 L76.6428,100.8442 C76.6428,110.9512 68.4498,119.1442 58.3438,119.1442 Z" id="Stroke-1"></path>
                    <path d="M10.6733,49.1949 L10.6733,27.3129 C10.6733,12.2279 22.9023,-0.0001 37.9863,-0.0001 C53.0713,-0.0001 65.3003,12.2279 65.3003,27.3129 L65.3003,49.1949" id="Stroke-3"></path>
                    <path d="M21.7905,49.1949 L21.7905,27.3629 C21.7905,18.4179 29.0415,11.1669 37.9865,11.1669 C46.9325,11.1669 54.1835,18.4179 54.1835,27.3629 L54.1835,49.1949" id="Stroke-5"></path>
                    <polyline id="Stroke-7" points="24.6016 119.1442 24.6016 97.8842 17.2516 90.5352"></polyline>
                    <polyline id="Stroke-9" points="33.4907 119.1442 33.4907 74.6302 26.8647 68.0042"></polyline>
                    <polyline id="Stroke-11" points="43.1963 119.1442 43.1963 85.3402 49.8743 78.6632"></polyline>
                    <polyline id="Stroke-13" points="51.8984 119.1442 51.8984 106.3772 58.6304 99.6452"></polyline>
                    <path d="M19.3789,87.6881 C19.3789,90.3531 17.2179,92.5131 14.5529,92.5131 C11.8879,92.5131 9.7279,90.3531 9.7279,87.6881 C9.7279,85.0231 11.8879,82.8631 14.5529,82.8631 C17.2179,82.8631 19.3789,85.0231 19.3789,87.6881 Z" id="Stroke-15"></path>
                    <path d="M28.311,64.5621 C28.311,67.2271 26.151,69.3881 23.485,69.3881 C20.82,69.3881 18.66,67.2271 18.66,64.5621 C18.66,61.8971 20.82,59.7371 23.485,59.7371 C26.151,59.7371 28.311,61.8971 28.311,64.5621 Z" id="Stroke-17"></path>
                    <path d="M57.8677,75.0289 C57.8677,77.6939 55.7067,79.8549 53.0417,79.8549 C50.3767,79.8549 48.2167,77.6939 48.2167,75.0289 C48.2167,72.3639 50.3767,70.2039 53.0417,70.2039 C55.7067,70.2039 57.8677,72.3639 57.8677,75.0289 Z" id="Stroke-19"></path>
                    <path d="M66.2461,96.9147 C66.2461,99.5797 64.0851,101.7407 61.4201,101.7407 C58.7551,101.7407 56.5951,99.5797 56.5951,96.9147 C56.5951,94.2497 58.7551,92.0897 61.4201,92.0897 C64.0851,92.0897 66.2461,94.2497 66.2461,96.9147 Z" id="Stroke-21"></path>
                </g>
            </g>
        </g>
    </g>
</svg>