<?xml version="1.0" encoding="UTF-8"?>
<svg width="62px" height="96px" viewBox="0 0 62 96" version="1.1" xmlns="http://www.w3.org/2000/svg" xmlns:xlink="http://www.w3.org/1999/xlink">
    <!-- Generator: sketchtool 47.1 (45422) - http://www.bohemiancoding.com/sketch -->
    <title>8402A164-18F6-4C87-BDA2-3654FA659DA1</title>
    <desc>Created with sketchtool.</desc>
    <defs></defs>
    <g id="Layout" stroke="none" stroke-width="1" fill="none" fill-rule="evenodd">
        <g id="iPhone-SE" transform="translate(-129.000000, -3632.000000)" stroke="#000000" stroke-width="1.56815682">
            <g id="5.-Blockchain-ecosystem" transform="translate(0.000000, 3376.000000)">
                <g id="Center" transform="translate(20.000000, 164.000000)">
                    <g id="Page-1" transform="translate(109.812981, 93.476707)">
                        <path d="M45.7461138,93.5478658 L14.348478,93.5478658 C6.42379758,93.5478658 -0.000156815682,87.1150082 -0.000156815682,79.1793447 L-0.000156815682,38.6263533 L60.0939646,38.6263533 L60.0939646,79.1793447 C60.0939646,87.1150082 53.6700102,93.5478658 45.7461138,93.5478658 Z" id="Stroke-1"></path>
                        <path d="M8.36870407,38.6261178 L8.36870407,21.4451354 C8.36870407,9.60092013 17.9571989,-7.85165084e-05 29.7842376,-7.85165084e-05 C41.6120604,-7.85165084e-05 51.2005553,9.60092013 51.2005553,21.4451354 L51.2005553,38.6261178" id="Stroke-3"></path>
                        <path d="M17.0854605,38.6261178 L17.0854605,21.4843937 C17.0854605,14.461092 22.7708131,8.76785997 29.7843944,8.76785997 C36.7987599,8.76785997 42.4841124,14.461092 42.4841124,21.4843937 L42.4841124,38.6261178" id="Stroke-5"></path>
                        <polyline id="Stroke-7" points="19.2895834 93.5478658 19.2895834 76.8552561 13.5266071 71.0850779"></polyline>
                        <polyline id="Stroke-9" points="26.2593347 93.5478658 26.2593347 58.5970272 21.0640312 53.3945234"></polyline>
                        <polyline id="Stroke-11" points="33.8692861 93.5478658 33.8692861 67.0061453 39.1053617 61.763598"></polyline>
                        <polyline id="Stroke-13" points="40.6924148 93.5478658 40.6924148 83.5236631 45.9708307 78.2379318"></polyline>
                        <path d="M15.1945771,68.8496344 C15.1945771,70.9420993 13.5001836,72.6380559 11.4106147,72.6380559 C9.3210457,72.6380559 7.62743634,70.9420993 7.62743634,68.8496344 C7.62743634,66.7571694 9.3210457,65.0612128 11.4106147,65.0612128 C13.5001836,65.0612128 15.1945771,66.7571694 15.1945771,68.8496344 Z" id="Stroke-15"></path>
                        <path d="M22.1980438,50.6919066 C22.1980438,52.7843716 20.5044344,54.4811133 18.4140814,54.4811133 C16.3245125,54.4811133 14.6309031,52.7843716 14.6309031,50.6919066 C14.6309031,48.5994417 16.3245125,46.9034851 18.4140814,46.9034851 C20.5044344,46.9034851 22.1980438,48.5994417 22.1980438,50.6919066 Z" id="Stroke-17"></path>
                        <path d="M45.3728141,58.9100725 C45.3728141,61.0025375 43.6784206,62.6992792 41.5888517,62.6992792 C39.4992827,62.6992792 37.8056734,61.0025375 37.8056734,58.9100725 C37.8056734,56.8176076 39.4992827,55.121651 41.5888517,55.121651 C43.6784206,55.121651 45.3728141,56.8176076 45.3728141,58.9100725 Z" id="Stroke-19"></path>
                        <path d="M51.9421366,76.0940385 C51.9421366,78.1865035 50.2477432,79.8832452 48.1581742,79.8832452 C46.0686053,79.8832452 44.3749959,78.1865035 44.3749959,76.0940385 C44.3749959,74.0015736 46.0686053,72.305617 48.1581742,72.305617 C50.2477432,72.305617 51.9421366,74.0015736 51.9421366,76.0940385 Z" id="Stroke-21"></path>
                    </g>
                </g>
            </g>
        </g>
    </g>
</svg>