<?xml version="1.0" encoding="UTF-8"?>
<svg width="28px" height="28px" viewBox="0 0 28 28" version="1.1" xmlns="http://www.w3.org/2000/svg" xmlns:xlink="http://www.w3.org/1999/xlink">
    <!-- Generator: sketchtool 47.1 (45422) - http://www.bohemiancoding.com/sketch -->
    <title>A1D798AA-9EDB-4F37-B60F-553FB7188256</title>
    <desc>Created with sketchtool.</desc>
    <defs></defs>
    <g id="Symbols" stroke="none" stroke-width="1" fill="none" fill-rule="evenodd">
        <g id="Socials/Light" transform="translate(-120.000000, -41.000000)" fill="#8E8E8E">
            <path d="M141.003718,41 L126.996282,41 C123.132812,41 120,44.1329226 120,47.99653 L120,62.00347 C120,65.8680688 123.132812,69 126.996282,69 L135.237758,69 L135.237758,60.0106933 L133.35708,60.0106933 L133.35708,57.1395085 L135.237758,57.1395085 L135.237758,55.4154097 C135.237758,53.0736492 136.298552,51.6806883 139.311405,51.6806883 L141.820628,51.6806883 L141.820628,54.5518731 L140.253231,54.5518731 C139.080409,54.5518731 139.001098,54.9534027 139.001098,55.7019333 L138.998123,57.1395085 L141.839465,57.1395085 L141.506356,60.0106933 L138.998123,60.0106933 L138.998123,69 L141.003718,69 C144.867188,69 148,65.8680688 148,62.00347 L148,47.99653 C148,44.1329226 144.867188,41 141.003718,41" id="facebook-icon"></path>
        </g>
    </g>
</svg>