<?xml version="1.0" encoding="UTF-8"?>
<svg width="97px" height="115px" viewBox="0 0 97 115" version="1.1" xmlns="http://www.w3.org/2000/svg" xmlns:xlink="http://www.w3.org/1999/xlink">
    <!-- Generator: sketchtool 47.1 (45422) - http://www.bohemiancoding.com/sketch -->
    <title>8746CCD3-2F8D-4057-9D36-28D388B62997</title>
    <desc>Created with sketchtool.</desc>
    <defs></defs>
    <g id="Layout" stroke="none" stroke-width="1" fill="none" fill-rule="evenodd">
        <g id="iPad" transform="translate(-671.000000, -5004.000000)">
            <g id="7.-Roadmap" transform="translate(0.000000, 4810.000000)">
                <g id="roadmap" transform="translate(30.000000, 194.000000)">
                    <g id="final" transform="translate(641.000000, 0.000000)">
                        <path d="M78.7744,57.5297 C78.7744,69.2627 69.2624,78.7747 57.5294,78.7747 C45.7954,78.7747 36.2844,69.2627 36.2844,57.5297 C36.2844,45.7967 45.7954,36.2847 57.5294,36.2847 C69.2624,36.2847 78.7744,45.7967 78.7744,57.5297 Z" id="Stroke-1" stroke="#03FF21" stroke-width="2"></path>
                        <path d="M90.5957,57.5297 C90.5957,75.7917 75.7917,90.5957 57.5297,90.5957 C39.2667,90.5957 24.4627,75.7917 24.4627,57.5297 C24.4627,39.2677 39.2667,24.4637 57.5297,24.4637 C75.7917,24.4637 90.5957,39.2677 90.5957,57.5297 Z" id="Stroke-3" stroke="#03FF21" stroke-width="1.5"></path>
                        <path d="M102.4165,57.5297 C102.4165,82.3207 82.3195,102.4177 57.5295,102.4177 C32.7385,102.4177 12.6425,82.3207 12.6425,57.5297 C12.6425,32.7387 32.7385,12.6417 57.5295,12.6417 C82.3195,12.6417 102.4165,32.7387 102.4165,57.5297 Z" id="Stroke-5" stroke="#03FF21"></path>
                        <path d="M114.2378,57.5297 C114.2378,88.8487 88.8488,114.2377 57.5298,114.2377 C26.2098,114.2377 0.8208,88.8487 0.8208,57.5297 C0.8208,26.2107 26.2098,0.8217 57.5298,0.8217 C88.8488,0.8217 114.2378,26.2107 114.2378,57.5297 Z" id="Stroke-7" stroke="#03FF21" stroke-width="0.5"></path>
                        <path d="M66.605,57.5297 C66.605,62.6677 62.44,66.8327 57.302,66.8327 C52.165,66.8327 48,62.6677 48,57.5297 C48,52.3917 52.165,48.2267 57.302,48.2267 C62.44,48.2267 66.605,52.3917 66.605,57.5297" id="Fill-9" fill="#03FF21"></path>
                    </g>
                </g>
            </g>
        </g>
    </g>
</svg>