<?xml version="1.0" encoding="UTF-8"?>
<svg width="72px" height="72px" viewBox="0 0 72 72" version="1.1" xmlns="http://www.w3.org/2000/svg" xmlns:xlink="http://www.w3.org/1999/xlink">
    <!-- Generator: sketchtool 47.1 (45422) - http://www.bohemiancoding.com/sketch -->
    <title>27BD94E0-C7B8-4104-B132-40B21851E22D</title>
    <desc>Created with sketchtool.</desc>
    <defs></defs>
    <g id="Layout" stroke="none" stroke-width="1" fill="none" fill-rule="evenodd">
        <g id="iPad" transform="translate(-669.000000, -863.000000)">
            <g id="1.-Hero" transform="translate(-35.000000, -20.000000)">
                <g id="Float-socials" transform="translate(704.000000, 883.000000)">
                    <circle id="Oval-2" fill="#03FF21" cx="36" cy="36" r="36"></circle>
                    <path d="M47.0291631,22.5 C43.1404053,22.5 38.8567842,25.7134737 37.1628895,27.8856 L37.0871,27.9864 C36.8711,28.2812211 36.4231842,28.8951158 35.6084474,28.8951158 C34.8111421,28.8951158 34.2813737,28.2804632 34.1070579,28.0788632 L33.8311842,27.7802526 C33.6932474,27.6309474 33.5674368,27.4930105 33.5545526,27.4778526 C31.8417105,25.4815579 27.9559842,22.5 24.2991421,22.5 C20.8166158,22.5386526 18.1912684,23.5898526 16.6330368,25.5406737 C15.0391842,27.5354526 14.6018789,30.4722947 15.3658368,34.0321263 C16.9543842,41.4185684 32.0607421,54.5051368 35.5250789,57.4260632 C39.0417105,54.5180211 54.4565316,41.4162947 56.0791842,34.0275789 C56.8492053,30.5094316 56.4194789,27.5983579 54.8354789,25.6088842 C53.2492053,23.6141053 50.5511,22.5394105 47.0291631,22.5 Z" id="Shape" fill="#FFFFFF"></path>
                </g>
            </g>
        </g>
    </g>
</svg>