<?xml version="1.0" encoding="UTF-8"?>
<svg width="30px" height="32px" viewBox="0 0 30 32" version="1.1" xmlns="http://www.w3.org/2000/svg" xmlns:xlink="http://www.w3.org/1999/xlink">
    <!-- Generator: sketchtool 47.1 (45422) - http://www.bohemiancoding.com/sketch -->
    <title>98BCDA38-D80D-471B-8471-CE4E6578009A</title>
    <desc>Created with sketchtool.</desc>
    <defs></defs>
    <g id="Layout" stroke="none" stroke-width="1" fill="none" fill-rule="evenodd">
        <g id="1-screen" transform="translate(-216.000000, -1008.000000)" fill="#03ff21">
            <g id="Aquired-for" transform="translate(48.000000, 971.000000)">
                <path d="M186.000068,50.7005751 C186.000068,52.2585787 185.159505,53.597738 183.952285,54.2057754 L183.952285,58.844584 L181.047628,58.844584 L181.047628,54.2057754 C179.840631,53.597738 179.000068,52.2585787 179.000068,50.7005751 C179.000068,48.5709671 180.567019,46.844584 182.499956,46.844584 C184.433117,46.844584 186.000068,48.5709671 186.000068,50.7005751 Z M194.260682,56.0490191 L197.913182,56.0490191 C196.366136,62.9514224 190.346818,68.1004679 183.151591,68.1004679 C174.783636,68.1004679 168,61.138352 168,52.5502339 C168,43.9621159 174.783636,37 183.151591,37 C190.346818,37 196.366136,42.1490455 197.913182,49.0514488 L194.260682,49.0514488 C192.803864,44.1734426 188.381818,40.6261409 183.151591,40.6261409 C176.735,40.6261409 171.533182,45.9648205 171.533182,52.5502339 C171.533182,59.1356473 176.735,64.474327 183.151591,64.474327 C188.381818,64.474327 192.803864,60.9270253 194.260682,56.0490191 Z" id="Combined-Shape"></path>
            </g>
        </g>
    </g>
</svg>