<?xml version="1.0" encoding="UTF-8"?>
<svg width="31px" height="31px" viewBox="0 0 31 31" version="1.1" xmlns="http://www.w3.org/2000/svg" xmlns:xlink="http://www.w3.org/1999/xlink">
    <!-- Generator: sketchtool 47.1 (45422) - http://www.bohemiancoding.com/sketch -->
    <title>B6579CA1-3AF5-4913-AD86-DA4BDE6ABE05</title>
    <desc>Created with sketchtool.</desc>
    <defs></defs>
    <g id="Layout" stroke="none" stroke-width="1" fill="none" fill-rule="evenodd">
        <g id="1-screen" transform="translate(-408.000000, -1008.000000)" fill="#8E8E8E">
            <g id="Aquired-for" transform="translate(48.000000, 971.000000)">
                <path d="M376.848658,45.4186005 C377.296353,43.0786621 379.099685,41.2972964 381.443023,40.8804589 C381.829264,40.8119448 382.19197,40.7776878 382.533233,40.7776878 C383.088145,40.7776878 383.587356,40.8686912 384.042111,41.0512211 C385.317467,41.5629845 386.595176,42.1534607 387.830782,42.7245856 L388.30332,42.94268 C388.213101,48.2797166 386.633355,53.1810874 383.603046,57.5369606 C383.333174,54.8398077 381.946941,52.7150871 379.464483,51.2035936 C377.469991,49.9894302 376.418745,47.664659 376.848658,45.4186005 M366.983678,54.4062339 C368.943651,54.7733856 370.79693,54.4935763 372.492261,53.574651 C373.544292,53.0048336 374.575403,52.7273778 375.64417,52.7273778 L375.674243,52.7273778 C377.89232,52.7380995 380.161391,54.4211397 380.839994,56.5586739 C381.377908,58.2524358 381.18178,59.8279978 380.240104,61.3753174 C380.021748,61.733578 379.623477,62.059935 379.26234,62.3318993 C378.486196,62.9166224 377.679979,63.4950694 376.900174,64.0544266 C376.432082,64.3904593 375.963728,64.7262305 375.498251,65.0659243 C375.491451,65.0620018 375.483606,65.0575562 375.474977,65.0520646 C372.134785,63.019132 369.351336,60.3850015 367.201249,57.2234173 C366.464331,56.1394829 365.824169,55.0278291 365.266381,53.8594289 C365.838813,54.1188409 366.404446,54.2977097 366.983678,54.4062339 M370.928467,40.0284786 C372.649687,39.7230419 374.360708,39.5917668 376.015506,39.6398836 C376.573032,39.6560968 377.139973,39.6940149 377.701945,39.7384706 C377.244313,40.0575056 376.826691,40.4183812 376.452217,40.8190054 C374.997732,42.3744317 374.246692,44.2329411 374.219757,46.3424944 C374.198575,47.9918006 373.539585,49.4886499 372.364386,50.55794 C371.238611,51.5822515 369.728425,52.099245 368.217716,51.9758151 C365.932955,51.7896242 364.331765,50.6588806 363.458603,48.6152263 C363.183501,47.9714033 363.088575,47.184799 362.996787,46.4240837 L362.979789,46.2828715 C362.895062,45.5857016 362.847991,44.8626429 362.803012,44.163381 C362.776601,43.7570037 362.750189,43.3508878 362.716455,42.9311738 C365.280502,41.5166983 368.043292,40.5402421 370.928467,40.0284786 M390.255971,40.8098528 C385.661606,38.2784934 380.792923,37.0324265 375.372206,37 L375.364883,37 C370.178735,37.0258889 365.239969,38.3203341 360.686137,40.8477709 C360.499423,40.9513265 359.931959,41.2661774 360.006749,42.0614113 C360.053297,42.5600995 360.086508,43.074478 360.118412,43.5718588 C360.183003,44.5762959 360.249687,45.6152516 360.43274,46.6345945 C362.054326,55.6737441 366.888229,62.7395841 374.800035,67.6359863 C375.057878,67.7955038 375.292708,67.8538192 375.502173,67.8538192 C375.799242,67.8538192 376.044533,67.7361424 376.229154,67.6247417 C378.906172,66.0107385 381.256047,64.0771774 383.213144,61.8776667 C388.224346,56.2464381 390.844094,49.5806993 390.999427,42.0661184 C391.015118,41.3161247 390.582851,40.9900291 390.255971,40.8098528" id="Page-1"></path>
            </g>
        </g>
    </g>
</svg>