<?xml version="1.0" encoding="UTF-8"?>
<svg width="20px" height="31px" viewBox="0 0 20 31" version="1.1" xmlns="http://www.w3.org/2000/svg" xmlns:xlink="http://www.w3.org/1999/xlink">
    <!-- Generator: sketchtool 47.1 (45422) - http://www.bohemiancoding.com/sketch -->
    <title>B3C7A335-5570-448D-AE55-926C79054C60</title>
    <desc>Created with sketchtool.</desc>
    <defs></defs>
    <g id="Layout" stroke="none" stroke-width="1" fill="none" fill-rule="evenodd">
        <g id="1-screen" transform="translate(-282.000000, -1008.000000)" fill="#03ff21">
            <g id="Aquired-for" transform="translate(48.000000, 971.000000)">
                <path d="M243.641566,37 C245.517981,38.09945 247.394113,39.2 249.27166,40.2978 C249.744019,40.57445 250.221472,40.844225 250.836189,41.196775 C248.442415,42.5341 246.225245,43.796075 243.975528,45.00085 C243.680906,45.158425 243.140906,45.15815 242.847698,44.9992 C240.637604,43.801025 238.460623,42.545375 236.170434,41.249025 C238.536755,39.7929 240.806,38.39645 243.075528,37 L243.641566,37 Z M234,43.86899 C236.065132,45.0412469 238.143514,46.1915108 240.183206,47.406694 C240.536713,47.6173505 240.945341,48.0972233 240.956206,48.463686 C241.025635,50.8346976 240.991715,53.2086239 240.991715,55.86899 C238.526966,54.4410305 236.263351,53.1296608 234,51.8182911 L234,43.86899 Z M234,55.86899 C236.0551,57.0640493 238.118955,58.2442335 240.15681,59.4685119 C240.494551,59.6711859 240.948233,60.059268 240.956988,60.3724432 C241.023051,62.8199374 240.993336,65.2698223 240.993336,67.86899 C238.534167,66.5448356 236.267084,65.324276 234,64.1034508 L234,55.86899 Z M244.003626,67.86899 C244.003626,65.0988799 243.987184,62.6028531 244.024321,60.1076628 C244.02914,59.7967747 244.232682,59.3475903 244.485833,59.202881 C247.56107,57.4429479 250.663239,55.728463 253.997297,53.86899 C253.997297,56.6984895 254.011471,59.2686833 253.974902,61.8383194 C253.971217,62.086751 253.70871,62.4271944 253.470867,62.5624237 C250.422844,64.2941956 247.356962,65.9961335 244.003626,67.86899 Z M244.004686,55.86899 C244.004686,53.2395681 243.983971,50.8661194 244.029649,48.4937305 C244.035757,48.1741616 244.299468,47.7305808 244.576458,47.5652317 C246.615504,46.3486968 248.688012,45.1883381 250.997408,43.86899 C250.997408,46.5495535 251.011483,49.0242256 250.974038,51.4978378 C250.970585,51.7275776 250.689081,52.0320426 250.457504,52.1674487 C248.409163,53.3656998 246.343295,54.5334779 244.004686,55.86899 Z" id="Combined-Shape"></path>
            </g>
        </g>
    </g>
</svg>