<?xml version="1.0" encoding="UTF-8"?>
<svg width="24px" height="33px" viewBox="0 0 24 33" version="1.1" xmlns="http://www.w3.org/2000/svg" xmlns:xlink="http://www.w3.org/1999/xlink">
    <!-- Generator: sketchtool 47.1 (45422) - http://www.bohemiancoding.com/sketch -->
    <title>353194A0-1C7C-4027-9CCC-A652F1955AA3</title>
    <desc>Created with sketchtool.</desc>
    <defs></defs>
    <g id="Layout" stroke="none" stroke-width="1" fill="none" fill-rule="evenodd">
        <g id="1-screen" transform="translate(-54.000000, -1007.000000)" fill="#8E8E8E">
            <g id="Aquired-for" transform="translate(48.000000, 971.000000)">
                <path d="M13.4193557,59.2777071 L15.1517409,53.3392459 C15.1517409,53.3392459 23.7764988,53.7491098 22.7777014,58.4762446 C21.9334465,62.4747015 13.4193557,59.2777071 13.4193557,59.2777071 M17.6098891,44.454524 C18.6316024,44.5857026 24.1076613,45.4546918 23.4601477,48.9436554 C22.8109574,52.4398145 15.8241266,50.0080287 15.8241266,50.0080287 L17.4478012,44.4351517 C17.4478012,44.4351517 17.5056498,44.4412401 17.6098891,44.454524 M27.8572036,56.307923 C27.4930646,55.1934583 26.2902599,54.3648744 24.9351484,53.6325989 L24.9731553,53.5014203 C25.9593769,53.399577 26.8243119,53.0564093 27.5430883,52.4284678 C28.2610263,51.8005263 28.7783106,50.9453746 29.1033249,49.8303564 C29.3802718,48.8794498 29.4411945,48.0140584 29.2760325,47.2676687 C29.1111499,46.5210023 28.7651758,45.869814 28.2484505,45.2808939 C27.7314457,44.6914204 27.033629,44.1968715 26.1913304,43.8066567 C25.5591872,43.5141339 24.4916422,42.9791798 23.5691379,42.6321376 L24.8160976,37.9849831 L21.9239448,37.2239258 L20.6923556,41.8140702 L18.3191638,41.1764425 L19.5328675,36.6518874 L16.6409942,35.89083 L15.4309235,40.4004407 L10.2527712,39.0089512 L9.52952339,41.6427631 L10.2927343,41.8364868 L10.6208227,41.9203415 L11.4734614,42.1367585 C11.6718795,42.215355 12.1595408,42.4790959 11.9940992,43.126133 C11.9605638,43.2584186 11.9519005,43.314045 11.9602843,43.3165357 L11.866944,43.6364566 L11.7954017,43.8819322 L8.15876203,57.4575347 C8.103708,57.596739 7.83710121,58.1441468 7.07165465,57.9733932 L5.17522517,57.4915747 L4.36702092,60.4334073 L7.41315728,61.2630982 L10.0993465,61.9455591 L8.79789174,66.7969537 L11.6900445,67.5580111 L12.9984858,62.6819858 L15.3803409,63.2869572 L14.0808424,68.1303262 L16.9727157,68.89083 L18.2817159,64.0131443 C19.3129309,64.250871 20.5953822,64.501328 21.3443405,64.4811254 C22.3464915,64.4540041 23.2807331,64.2685828 24.1456681,63.9248617 C25.0111621,63.580587 25.7718578,63.0699867 26.4288731,62.3914003 C27.0853295,61.7125372 27.567122,60.8488063 27.8728535,59.7993774 C28.2260935,58.5852833 28.2213427,57.4218342 27.8572036,56.307923" id="Fill-4" transform="translate(16.867021, 52.390830) rotate(-15.000000) translate(-16.867021, -52.390830) "></path>
            </g>
        </g>
    </g>
</svg>