<?xml version="1.0" encoding="UTF-8"?>
<svg width="16px" height="32px" viewBox="0 0 16 32" version="1.1" xmlns="http://www.w3.org/2000/svg" xmlns:xlink="http://www.w3.org/1999/xlink">
    <!-- Generator: Sketch 48.1 (47250) - http://www.bohemiancoding.com/sketch -->
    <title>Page 1</title>
    <desc>Created with Sketch.</desc>
    <defs></defs>
    <g id="1-screen" stroke="none" stroke-width="1" fill="none" fill-rule="evenodd" transform="translate(-533.000000, -1007.000000)">
        <g id="Aquired-for" transform="translate(48.000000, 971.000000)" fill="#03ff21">
            <g id="Page-1" transform="translate(485.000000, 36.000000)">
                <path d="M10.5159724,0.0303141361 C11.6359083,0.513690857 12.7025917,1.17335096 13.6330402,2.05240564 C14.0976111,2.49326174 14.5059891,3.00144216 14.8748361,3.54948565 C15.2302884,4.10756873 15.5079854,4.72264125 15.7095608,5.36635612 C15.8879404,6.01479551 16.000326,6.68774331 15.9999993,7.35685244 C15.984971,8.02330404 15.8036511,11.2548708 13.8310219,12.8095308 C13.351096,13.1473335 12.5719108,13.0206575 12.2275664,12.5493874 C11.9753521,12.2042026 11.9668579,11.7600984 12.1690867,11.4143231 L12.1942428,11.3723931 C12.7235007,10.4703064 14.9241682,6.96383203 12.4121533,3.09416072 C11.7783506,2.22219282 10.9785831,1.41725394 10.119029,0.626783884 L10.1160887,0.624421627 C9.96809246,0.488001319 9.9605783,0.25945301 10.0994268,0.113878957 C10.2091988,-0.000690479475 10.3774506,-0.0293328386 10.5159724,0.0303141361" id="Fill-4"></path>
                <path d="M6.39856716,0.713882443 C5.10171771,1.82582115 3.96111929,3.04402761 3.31799411,4.38987931 C2.66153459,5.72829537 2.5138312,7.15377043 2.82872663,8.54702436 C3.10840573,9.94647466 3.81409972,11.0890854 4.90785701,12.0430167 C5.98964759,13.0164665 7.45334717,13.8176572 9.00218134,14.6764742 C10.5407583,15.5448955 12.233193,16.486434 13.6319305,17.9202742 C15.0416089,19.3432707 15.8868005,21.2960569 15.9808247,23.136379 C16.1049366,24.966477 15.626952,26.8861127 14.535588,28.4094904 C13.4623451,29.9480492 11.9374443,31.0776476 10.33835,31.9404922 C10.1174787,32.0597723 9.83232911,31.9940908 9.7006953,31.793948 C9.58273773,31.6145631 9.63060457,31.3868465 9.80018994,31.256103 C11.149351,30.2132539 12.3128571,28.9996947 12.9987206,27.6417601 C13.6897126,26.2856843 13.8678456,24.8115678 13.5809865,23.3709116 C13.3125903,21.9321144 12.5986905,20.722273 11.4639045,19.7794952 C10.3503167,18.8131712 8.88148852,18.0417231 7.31795239,17.2157469 C5.76604106,16.3783074 4.05411773,15.4931558 2.5818705,14.1026903 C1.86147456,13.4043593 1.22655512,12.5786929 0.784128754,11.673713 C0.351959572,10.7656349 0.100316757,9.80055014 0.024413625,8.86210981 C-0.118844988,6.9911157 0.367003436,5.01075565 1.51820093,3.47994229 C2.65332885,1.93890491 4.22267738,0.836570581 5.87681861,0.0474627829 C6.09939941,-0.0584951547 6.37429183,0.0189594781 6.49156559,0.220031705 C6.5886669,0.38764353 6.54285149,0.590264849 6.39856716,0.713882443" id="Fill-1"></path>
                <path d="M5.48422403,31.9696063 C4.36418171,31.4865168 3.29739696,30.8265504 2.36686005,29.9477764 C1.9025718,29.506913 1.49382824,28.9984288 1.12494616,28.4503762 C0.769460149,27.8922839 0.491736705,27.2772011 0.289815424,26.6337708 C0.111418953,25.9853207 -0.000650624636,25.3120664 2.84229142e-06,24.6429461 C0.0147058481,23.9764834 0.196369654,20.7451582 2.16853284,19.1904723 C2.64883103,18.852664 3.42809034,18.9793421 3.77246741,19.4506201 C4.02470565,19.7955153 4.03320072,20.2399222 3.8309527,20.5857032 L3.80579423,20.627634 C3.27648601,21.5300309 1.0756094,25.0362684 3.58818974,28.906004 C4.22205266,29.7779864 5.02156944,30.5823481 5.88120519,31.3734219 L5.88349232,31.3757842 C6.03215605,31.5122068 6.03934418,31.7407589 5.90048246,31.8863354 C5.79135348,32.0009067 5.62275902,32.0292542 5.48422403,31.9696063" id="Fill-6"></path>
            </g>
        </g>
    </g>
</svg>