<?xml version="1.0" encoding="UTF-8"?>
<svg width="20px" height="36px" viewBox="0 0 20 36" version="1.1" xmlns="http://www.w3.org/2000/svg" xmlns:xlink="http://www.w3.org/1999/xlink">
    <!-- Generator: sketchtool 47.1 (45422) - http://www.bohemiancoding.com/sketch -->
    <title>B9CCE0C1-E80A-4355-A920-8B91CE0AA3E7</title>
    <desc>Created with sketchtool.</desc>
    <defs></defs>
    <g id="Layout" stroke="none" stroke-width="1" fill="none" fill-rule="evenodd">
        <g id="1-screen" transform="translate(-163.000000, -1005.000000)" fill="#03ff21">
            <g id="Aquired-for" transform="translate(48.000000, 971.000000)">
                <path d="M126.654681,69.34 L126.654681,64.9037021 C131.316553,64.5277447 135.000936,62.4599787 135.000936,57.2341702 C135.000936,47.8728298 120.902532,50.3165532 120.902532,45.7674681 C120.902532,44.1508511 122.33117,43.3613404 125.188447,43.3237447 C128.120915,43.2861489 131.090979,44.0756596 133.309128,45.6546809 L133.309128,40.3912766 C131.579723,39.4137872 129.136,38.7370638 126.654681,38.5114894 L126.654681,34 L122.556745,34 L122.556745,38.4738936 C118.308426,39.0378298 115.150383,41.4063617 115.150383,45.8426596 C115.150383,55.1664043 129.211191,52.5722979 129.211191,57.4973404 C129.211191,59.3771277 127.519383,60.0162553 124.436532,60.0162553 C121.428872,60.0162553 118.00766,59.2267447 115,57.2341702 L115,62.6103617 C117.105362,63.8134255 119.77466,64.6029362 122.556745,64.8661064 L122.556745,69.34 L126.654681,69.34 Z" id="$"></path>
            </g>
        </g>
    </g>
</svg>