<?xml version="1.0" encoding="UTF-8"?>
<svg width="26px" height="26px" viewBox="0 0 26 26" version="1.1" xmlns="http://www.w3.org/2000/svg" xmlns:xlink="http://www.w3.org/1999/xlink">
    <!-- Generator: sketchtool 47.1 (45422) - http://www.bohemiancoding.com/sketch -->
    <title>73D36969-5F4D-4D07-9608-3B0F11D03850</title>
    <desc>Created with sketchtool.</desc>
    <defs></defs>
    <g id="Layout" stroke="none" stroke-width="1" fill="none" fill-rule="evenodd">
        <g id="1-screen" transform="translate(-473.000000, -1011.000000)" fill="#8E8E8E">
            <g id="Aquired-for" transform="translate(48.000000, 971.000000)">
                <path d="M433.34601,53.8666077 C428.394476,53.8666077 425,55.8424143 425,59.9334512 C425,64.0244881 427.827725,66 431.954757,66 C438.695777,66 444.356654,60.9713171 445.091019,54.3287985 C444.198687,54.4853185 443.293393,54.5610729 442.386893,54.5563567 C438.73135,54.5560619 437.000951,53.8666077 433.34601,53.8666077 M433.613107,51.4439381 C432.706607,51.4389271 431.801313,51.5149763 430.908981,51.6714963 C431.643647,45.0292724 437.305127,39.9997052 444.045243,40 C448.172275,40 451,41.9758066 451,46.0668435 C451,50.1578804 447.606127,52.1336871 442.65399,52.1336871 C438.999049,52.1333923 437.26865,51.4439381 433.613107,51.4439381" id="Fill-1"></path>
            </g>
        </g>
    </g>
</svg>