<?xml version="1.0" encoding="UTF-8"?>
<svg width="30px" height="30px" viewBox="0 0 30 30" version="1.1" xmlns="http://www.w3.org/2000/svg" xmlns:xlink="http://www.w3.org/1999/xlink">
    <!-- Generator: Sketch 48.1 (47250) - http://www.bohemiancoding.com/sketch -->
    <title>Fill 1</title>
    <desc>Created with Sketch.</desc>
    <defs></defs>
    <g id="1-screen" stroke="none" stroke-width="1" fill="none" fill-rule="evenodd" transform="translate(-580.000000, -1007.000000)">
        <path d="M599.16686,1033.4049 C594.699243,1033.4049 590.825454,1030.82287 588.953147,1027.07383 L603.755013,1027.07383 L605.277514,1023.49147 L587.857157,1023.49147 C587.792464,1023.0009 587.755587,1022.50169 587.755587,1021.99363 C587.755587,1021.7652 587.764437,1021.53888 587.777713,1021.31382 L606.081858,1021.31382 L607.604569,1017.73147 L588.584585,1017.73147 C590.276721,1013.54496 594.381256,1010.58235 599.16686,1010.58235 C602.361056,1010.58235 605.432398,1011.94049 607.594033,1014.30842 L608.331787,1015.11677 L609.9999,1011.62882 L609.620803,1011.25963 C606.801279,1008.51281 603.088485,1007 599.16686,1007 C592.379774,1007 586.635153,1011.53421 584.793822,1017.73147 L581.859663,1017.73147 L580.30724,1021.31382 L584.190512,1021.31382 C584.180397,1021.5393 584.173232,1021.76562 584.173232,1021.99363 C584.173232,1022.49916 584.199152,1022.99858 584.248251,1023.49147 L581.582136,1023.49147 L580,1027.07383 L585.061024,1027.07383 C587.147008,1032.84816 592.681956,1036.98726 599.16686,1036.98726 C602.61435,1036.98726 605.986188,1035.77747 608.661153,1033.58065 L608.930462,1033.35917 L608.930462,1028.18541 L607.644818,1029.61456 C605.477283,1032.02317 602.387186,1033.4049 599.16686,1033.4049" id="Fill-1" fill="#03ff21"></path>
    </g>
</svg>