<?xml version="1.0" encoding="UTF-8"?>
<svg width="35px" height="24px" viewBox="0 0 35 24" version="1.1" xmlns="http://www.w3.org/2000/svg" xmlns:xlink="http://www.w3.org/1999/xlink">
    <!-- Generator: sketchtool 47.1 (45422) - http://www.bohemiancoding.com/sketch -->
    <title>3A811ADE-D665-4408-9DB1-88170E5B0C77</title>
    <desc>Created with sketchtool.</desc>
    <defs></defs>
    <g id="Layout" stroke="none" stroke-width="1" fill="none" fill-rule="evenodd">
        <g id="1-screen" transform="translate(-338.000000, -1012.000000)" fill="#8E8E8E">
            <g id="Aquired-for" transform="translate(48.000000, 971.000000)">
                <path d="M301.456782,41.029194 C304.890941,41.0229254 308.324579,41 311.758738,41 C314.496708,41 317.235371,41.0146866 319.972649,41.0641194 C324.64099,41.1482985 325.745743,42.9180299 324.218218,47.4835821 C322.677525,52.0853134 321.32604,56.7757015 319.424777,61.2140896 C318.782649,62.7124776 316.745198,64.4859701 315.286807,64.5432836 C311.77953,64.6804776 308.26896,64.7229254 304.756658,64.7245373 L304.347401,64.7245373 C300.010347,64.7225672 295.670693,64.6613134 291.333292,64.6414328 C290.879505,64.6398209 290.426584,64.403403 290,64.2842985 C290.080396,58.9090149 290.725644,58.1847164 295.412698,58.1777313 C300.616436,58.1703881 305.822426,58.084597 311.022351,58.2334328 C313.348465,58.2998806 314.617822,57.4444776 315.222005,55.136 C315.843342,52.761791 316.673985,50.4454328 317.591955,47.5339104 L295.628936,47.5339104 C295.916906,41.569194 296.414876,41.0381493 301.456782,41.029194 Z M297.375099,49.8212537 C298.811139,49.8207164 300.246832,49.8207164 301.686337,49.8207164 C303.605792,49.8207164 305.532005,49.8208955 307.473985,49.8208955 C306.827525,55.734209 306.47354,56.0986866 301.560891,56.1407761 C298.340545,56.1687164 295.120891,56.1459701 291.90505,56.1459701 C292.047822,50.4065672 292.595173,49.823403 297.375099,49.8212537 Z" id="Combined-Shape"></path>
            </g>
        </g>
    </g>
</svg>