<?xml version="1.0" encoding="UTF-8"?>
<svg width="29px" height="49px" viewBox="0 0 29 49" version="1.1" xmlns="http://www.w3.org/2000/svg" xmlns:xlink="http://www.w3.org/1999/xlink">
    <!-- Generator: sketchtool 47.1 (45422) - http://www.bohemiancoding.com/sketch -->
    <title>1EFC82E9-6753-4715-9D1E-DABC3B8E1D60</title>
    <desc>Created with sketchtool.</desc>
    <defs></defs>
    <g id="Layout" stroke="none" stroke-width="1" fill="none" fill-rule="evenodd">
        <g id="15-screen---token-copy" transform="translate(-1086.000000, -671.000000)" stroke="#FFFFFF" stroke-width="2">
            <g id="illustration" transform="translate(160.000000, 350.000000)">
                <path d="M942.5,369 L942.5,363.1 C948.7,362.6 953.6,359.85 953.6,352.9 C953.6,340.45 934.85,343.7 934.85,337.65 C934.85,335.5 936.75,334.45 940.55,334.4 C944.45,334.35 948.4,335.4 951.35,337.5 L951.35,330.5 C949.05,329.2 945.8,328.3 942.5,328 L942.5,322 L937.05,322 L937.05,327.95 C931.4,328.7 927.2,331.85 927.2,337.75 C927.2,350.15 945.9,346.7 945.9,353.25 C945.9,355.75 943.65,356.6 939.55,356.6 C935.55,356.6 931,355.55 927,352.9 L927,360.05 C929.8,361.65 933.35,362.7 937.05,363.05 L937.05,369 L942.5,369 Z" id="$-copy-4"></path>
            </g>
        </g>
    </g>
</svg>