<?xml version="1.0" encoding="UTF-8"?>
<svg width="16px" height="16px" viewBox="0 0 16 16" version="1.1" xmlns="http://www.w3.org/2000/svg" xmlns:xlink="http://www.w3.org/1999/xlink">
    <!-- Generator: sketchtool 47.1 (45422) - http://www.bohemiancoding.com/sketch -->
    <title>63456AF4-A8FD-4240-AD37-920D80A531E8</title>
    <desc>Created with sketchtool.</desc>
    <defs>
        <rect id="path-1" x="0" y="0" width="16" height="16"></rect>
    </defs>
    <g id="Layout" stroke="none" stroke-width="1" fill="none" fill-rule="evenodd">
        <g id="Guide" transform="translate(-314.000000, -1710.000000)">
            <g id="Language" transform="translate(284.000000, 1615.000000)">
                <g id="us" transform="translate(30.000000, 95.000000)">
                    <mask id="mask-2" fill="white">
                        <use xlink:href="#path-1"></use>
                    </mask>
                    <g id="Rectangle-3">
                        <use fill="#D8D8D8" fill-rule="evenodd" xlink:href="#path-1"></use>
                        <rect stroke="#979797" stroke-width="1" x="0.5" y="0.5" width="15" height="15"></rect>
                    </g>
                    <g id="Group" mask="url(#mask-2)" fill-rule="nonzero">
                        <path d="M0,0 L30.3673469,0 L30.3673469,1.23076923 L0,1.23076923 L0,0 Z M0,2.46153846 L30.3673469,2.46153846 L30.3673469,3.69230769 L0,3.69230769 L0,2.46153846 Z M0,4.92307692 L30.3673469,4.92307692 L30.3673469,6.15384615 L0,6.15384615 L0,4.92307692 Z M0,7.38461538 L30.3673469,7.38461538 L30.3673469,8.61538462 L0,8.61538462 L0,7.38461538 Z M0,9.84615385 L30.3673469,9.84615385 L30.3673469,11.0769231 L0,11.0769231 L0,9.84615385 Z M0,12.3076923 L30.3673469,12.3076923 L30.3673469,13.5384615 L0,13.5384615 L0,12.3076923 Z M0,14.7692308 L30.3673469,14.7692308 L30.3673469,16 L0,16 L0,14.7692308 Z" id="Shape" fill="#BD3D44"></path>
                        <path d="M0,1.23076923 L30.3673469,1.23076923 L30.3673469,2.46153846 L0,2.46153846 L0,1.23076923 Z M0,3.69230769 L30.3673469,3.69230769 L30.3673469,4.92307692 L0,4.92307692 L0,3.69230769 Z M0,6.15384615 L30.3673469,6.15384615 L30.3673469,7.38461538 L0,7.38461538 L0,6.15384615 Z M0,8.61538462 L30.3673469,8.61538462 L30.3673469,9.84615385 L0,9.84615385 L0,8.61538462 Z M0,11.0769231 L30.3673469,11.0769231 L30.3673469,12.3076923 L0,12.3076923 L0,11.0769231 Z M0,13.5384615 L30.3673469,13.5384615 L30.3673469,14.7692308 L0,14.7692308 L0,13.5384615 Z" id="Shape" fill="#FFFFFF"></path>
                    </g>
                    <polygon id="Shape" fill="#192F5D" fill-rule="nonzero" mask="url(#mask-2)" points="0 0 12.0816327 0 12.0816327 8.48979592 0 8.48979592"></polygon>
                    <g id="Group" mask="url(#mask-2)" fill-rule="nonzero" fill="#FFFFFF">
                        <g transform="translate(0.653061, 0.326531)" id="Shape">
                            <path d="M0.516427899,0.120082889 L0.626228302,0.453686656 L0.981005607,0.453686656 L0.693938551,0.659853061 L0.803616954,0.993336264 L0.516427899,0.787169859 L0.229360843,0.993336264 L0.339039246,0.659853061 L0.0518501906,0.453686656 L0.406871496,0.453686656 L0.516427899,0.120082889 Z M2.52540928,0.120082889 L2.63508769,0.453686656 L2.98998699,0.453686656 L2.70291994,0.659853061 L2.81247634,0.993336264 L2.52540928,0.787290424 L2.23834223,0.993456829 L2.34789863,0.659973626 L2.06083158,0.453807221 L2.41573088,0.453807221 L2.52540928,0.120082889 Z M4.53439067,0.120082889 L4.64406907,0.453686656 L4.99896838,0.453686656 L4.71190132,0.659853061 L4.82157973,0.993336264 L4.53439067,0.787169859 L4.24732362,0.993336264 L4.35700202,0.659853061 L4.06981296,0.453686656 L4.42483427,0.453686656 L4.53439067,0.120082889 Z M6.54325006,0.120082889 L6.65292846,0.453686656 L7.00782776,0.453686656 L6.72076071,0.659853061 L6.83043911,0.993336264 L6.54325006,0.787169859 L6.256183,0.993336264 L6.3658614,0.659853061 L6.07867235,0.453686656 L6.43369365,0.453686656 L6.54325006,0.120082889 Z M8.55223144,0.120082889 L8.66190985,0.453686656 L9.01680915,0.453686656 L8.72962009,0.659853061 L8.8394205,0.993336264 L8.55223144,0.787290424 L8.26516439,0.993456829 L8.37472079,0.659973626 L8.08765373,0.453807221 L8.44255304,0.453807221 L8.55223144,0.120082889 Z M10.5612128,0.120082889 L10.6708912,0.453686656 L11.0257905,0.453686656 L10.7386015,0.659853061 L10.8484019,0.993336264 L10.5612128,0.787169859 L10.2741458,0.993336264 L10.3837022,0.659853061 L10.0966351,0.453686656 L10.4515344,0.453686656 L10.5612128,0.120082889 Z M1.52097959,0.964038932 L1.630658,1.2976427 L1.9855573,1.2976427 L1.69849024,1.50380911 L1.80804665,1.83729231 L1.52097959,1.6311259 L1.23391254,1.83729231 L1.34346894,1.50380911 L1.05640188,1.2976427 L1.41130119,1.2976427 L1.52097959,0.964038932 Z M3.52983898,0.964038932 L3.63951738,1.2976427 L3.99441669,1.2976427 L3.70734963,1.50380911 L3.81702803,1.83729231 L3.52983898,1.6311259 L3.24277192,1.83729231 L3.35245033,1.50380911 L3.06526127,1.2976427 L3.42028257,1.2976427 L3.52983898,0.964038932 Z M5.53882036,0.964038932 L5.64849877,1.2976427 L6.00339807,1.2976427 L5.71633102,1.50380911 L5.82600942,1.83729231 L5.53882036,1.6311259 L5.25175331,1.83729231 L5.36143171,1.50380911 L5.07424266,1.2976427 L5.42926396,1.2976427 L5.53882036,0.964038932 Z M7.54780175,0.964038932 L7.65748015,1.2976427 L8.01237946,1.2976427 L7.7253124,1.50380911 L7.8348688,1.83729231 L7.54780175,1.6311259 L7.26073469,1.83729231 L7.3704131,1.50380911 L7.08322404,1.2976427 L7.43824535,1.2976427 L7.54780175,0.964038932 Z M9.55666113,0.964038932 L9.66633954,1.2976427 L10.0212388,1.2976427 L9.73404979,1.50380911 L9.84385019,1.83729231 L9.55666113,1.6311259 L9.26959408,1.83729231 L9.37915048,1.50380911 L9.09208343,1.2976427 L9.44698273,1.2976427 L9.55666113,0.964038932 Z M0.516427899,1.80799498 L0.626228302,2.14159874 L0.981005607,2.14159874 L0.693938551,2.34776515 L0.803616954,2.68124835 L0.516427899,2.47508195 L0.229360843,2.68124835 L0.339039246,2.34776515 L0.0518501906,2.14159874 L0.406871496,2.14159874 L0.516427899,1.80799498 Z M2.52540928,1.80799498 L2.63508769,2.14159874 L2.98998699,2.14159874 L2.70291994,2.34776515 L2.81247634,2.68124835 L2.52540928,2.47508195 L2.23834223,2.68124835 L2.34789863,2.34776515 L2.06083158,2.14159874 L2.41573088,2.14159874 L2.52540928,1.80799498 Z M4.53439067,1.80799498 L4.64406907,2.14159874 L4.99896838,2.14159874 L4.71190132,2.34776515 L4.82157973,2.68124835 L4.53439067,2.47508195 L4.24732362,2.68124835 L4.35700202,2.34776515 L4.06981296,2.14159874 L4.42483427,2.14159874 L4.53439067,1.80799498 Z M6.54325006,1.80799498 L6.65292846,2.14159874 L7.00782776,2.14159874 L6.72076071,2.34776515 L6.83043911,2.68124835 L6.54325006,2.47508195 L6.256183,2.68124835 L6.3658614,2.34776515 L6.07867235,2.14159874 L6.43369365,2.14159874 L6.54325006,1.80799498 Z M8.55223144,1.80799498 L8.66190985,2.14159874 L9.01680915,2.14159874 L8.72962009,2.34776515 L8.8394205,2.68124835 L8.55223144,2.47508195 L8.26516439,2.68124835 L8.37472079,2.34776515 L8.08765373,2.14159874 L8.44255304,2.14159874 L8.55223144,1.80799498 Z M10.5612128,1.80799498 L10.6708912,2.14159874 L11.0257905,2.14159874 L10.7386015,2.34776515 L10.8484019,2.68124835 L10.5612128,2.47508195 L10.2741458,2.68124835 L10.3837022,2.34776515 L10.0966351,2.14159874 L10.4515344,2.14159874 L10.5612128,1.80799498 Z M1.52097959,2.65195102 L1.630658,2.98555479 L1.9855573,2.98555479 L1.69849024,3.19172119 L1.80804665,3.5252044 L1.52097959,3.31903799 L1.23391254,3.5252044 L1.34346894,3.19172119 L1.05640188,2.98555479 L1.41130119,2.98555479 L1.52097959,2.65195102 Z M3.52983898,2.65195102 L3.63951738,2.98555479 L3.99441669,2.98555479 L3.70734963,3.19172119 L3.81702803,3.5252044 L3.52983898,3.31903799 L3.24277192,3.5252044 L3.35245033,3.19172119 L3.06526127,2.98555479 L3.42028257,2.98555479 L3.52983898,2.65195102 Z M5.53882036,2.65195102 L5.64849877,2.98555479 L6.00339807,2.98555479 L5.71633102,3.19172119 L5.82600942,3.5252044 L5.53882036,3.31903799 L5.25175331,3.5252044 L5.36143171,3.19172119 L5.07424266,2.98555479 L5.42926396,2.98555479 L5.53882036,2.65195102 Z M7.54780175,2.65195102 L7.65748015,2.98555479 L8.01237946,2.98555479 L7.7253124,3.19172119 L7.8348688,3.5252044 L7.54780175,3.31903799 L7.26073469,3.5252044 L7.3704131,3.19172119 L7.08322404,2.98555479 L7.43824535,2.98555479 L7.54780175,2.65195102 Z M9.55666113,2.65195102 L9.66633954,2.98555479 L10.0212388,2.98555479 L9.73404979,3.19172119 L9.84385019,3.5252044 L9.55666113,3.31903799 L9.26959408,3.5252044 L9.37915048,3.19172119 L9.09208343,2.98555479 L9.44698273,2.98555479 L9.55666113,2.65195102 Z M0.516427899,3.49590706 L0.626228302,3.82951083 L0.981005607,3.82951083 L0.693938551,4.03567724 L0.803616954,4.36916044 L0.516427899,4.16299403 L0.229360843,4.36916044 L0.339039246,4.03567724 L0.0518501906,3.82951083 L0.406871496,3.82951083 L0.516427899,3.49590706 Z M2.52540928,3.49590706 L2.63508769,3.82951083 L2.98998699,3.82951083 L2.70291994,4.03567724 L2.81247634,4.36916044 L2.52540928,4.16299403 L2.23834223,4.36916044 L2.34789863,4.03567724 L2.06083158,3.82951083 L2.41573088,3.82951083 L2.52540928,3.49590706 Z M4.53439067,3.49590706 L4.64406907,3.82951083 L4.99896838,3.82951083 L4.71190132,4.03567724 L4.82157973,4.36916044 L4.53439067,4.16299403 L4.24732362,4.36916044 L4.35700202,4.03567724 L4.06981296,3.82951083 L4.42483427,3.82951083 L4.53439067,3.49590706 Z M6.54325006,3.49590706 L6.65292846,3.82951083 L7.00782776,3.82951083 L6.72076071,4.03567724 L6.83043911,4.36916044 L6.54325006,4.16299403 L6.256183,4.36916044 L6.3658614,4.03567724 L6.07867235,3.82951083 L6.43369365,3.82951083 L6.54325006,3.49590706 Z M8.55223144,3.49590706 L8.66190985,3.82951083 L9.01680915,3.82951083 L8.72962009,4.03567724 L8.8394205,4.36916044 L8.55223144,4.16299403 L8.26516439,4.36916044 L8.37472079,4.03567724 L8.08765373,3.82951083 L8.44255304,3.82951083 L8.55223144,3.49590706 Z M10.5612128,3.49590706 L10.6708912,3.82951083 L11.0257905,3.82951083 L10.7386015,4.03567724 L10.8484019,4.36916044 L10.5612128,4.16299403 L10.2741458,4.36916044 L10.3837022,4.03567724 L10.0966351,3.82951083 L10.4515344,3.82951083 L10.5612128,3.49590706 Z M1.52097959,4.33986311 L1.630658,4.67346688 L1.9855573,4.67346688 L1.69849024,4.87963328 L1.80804665,5.21311648 L1.52097959,5.00695008 L1.23391254,5.21311648 L1.34346894,4.87963328 L1.05640188,4.67346688 L1.41130119,4.67346688 L1.52097959,4.33986311 Z M3.52983898,4.33986311 L3.63951738,4.67346688 L3.99441669,4.67346688 L3.70734963,4.87963328 L3.81702803,5.21311648 L3.52983898,5.00695008 L3.24277192,5.21311648 L3.35245033,4.87963328 L3.06526127,4.67346688 L3.42028257,4.67346688 L3.52983898,4.33986311 Z M5.53882036,4.33986311 L5.64849877,4.67346688 L6.00339807,4.67346688 L5.71633102,4.87963328 L5.82600942,5.21311648 L5.53882036,5.00695008 L5.25175331,5.21311648 L5.36143171,4.87963328 L5.07424266,4.67346688 L5.42926396,4.67346688 L5.53882036,4.33986311 Z M7.54780175,4.33986311 L7.65748015,4.67346688 L8.01237946,4.67346688 L7.7253124,4.87963328 L7.8348688,5.21311648 L7.54780175,5.00695008 L7.26073469,5.21311648 L7.3704131,4.87963328 L7.08322404,4.67346688 L7.43824535,4.67346688 L7.54780175,4.33986311 Z M9.55666113,4.33986311 L9.66633954,4.67346688 L10.0212388,4.67346688 L9.73404979,4.87963328 L9.84385019,5.21311648 L9.55666113,5.00695008 L9.26959408,5.21311648 L9.37915048,4.87963328 L9.09208343,4.67346688 L9.44698273,4.67346688 L9.55666113,4.33986311 Z"></path>
                            <path d="M0.516427899,5.18381915 L0.626228302,5.51742292 L0.981005607,5.51742292 L0.693938551,5.72358932 L0.803616954,6.05707253 L0.516427899,5.85090612 L0.229360843,6.05707253 L0.339039246,5.72358932 L0.0518501906,5.51742292 L0.406871496,5.51742292 L0.516427899,5.18381915 Z M2.52540928,5.18381915 L2.63508769,5.51742292 L2.98998699,5.51742292 L2.70291994,5.72358932 L2.81247634,6.05707253 L2.52540928,5.85090612 L2.23834223,6.05707253 L2.34789863,5.72358932 L2.06083158,5.51742292 L2.41573088,5.51742292 L2.52540928,5.18381915 Z M4.53439067,5.18381915 L4.64406907,5.51742292 L4.99896838,5.51742292 L4.71190132,5.72358932 L4.82157973,6.05707253 L4.53439067,5.85090612 L4.24732362,6.05707253 L4.35700202,5.72358932 L4.06981296,5.51742292 L4.42483427,5.51742292 L4.53439067,5.18381915 Z M6.54325006,5.18381915 L6.65292846,5.51742292 L7.00782776,5.51742292 L6.72076071,5.72358932 L6.83043911,6.05707253 L6.54325006,5.85090612 L6.256183,6.05707253 L6.3658614,5.72358932 L6.07867235,5.51742292 L6.43369365,5.51742292 L6.54325006,5.18381915 Z M8.55223144,5.18381915 L8.66190985,5.51742292 L9.01680915,5.51742292 L8.72962009,5.72358932 L8.8394205,6.05707253 L8.55223144,5.85090612 L8.26516439,6.05707253 L8.37472079,5.72358932 L8.08765373,5.51742292 L8.44255304,5.51742292 L8.55223144,5.18381915 Z M10.5612128,5.18381915 L10.6708912,5.51742292 L11.0257905,5.51742292 L10.7386015,5.72358932 L10.8484019,6.05707253 L10.5612128,5.85090612 L10.2741458,6.05707253 L10.3837022,5.72358932 L10.0966351,5.51742292 L10.4515344,5.51742292 L10.5612128,5.18381915 Z M1.52097959,6.0277752 L1.630658,6.36137896 L1.9855573,6.36137896 L1.69849024,6.56754537 L1.80804665,6.90102857 L1.52097959,6.69486217 L1.23391254,6.90102857 L1.34346894,6.56754537 L1.05640188,6.36137896 L1.41130119,6.36137896 L1.52097959,6.0277752 Z M3.52983898,6.0277752 L3.63951738,6.36137896 L3.99441669,6.36137896 L3.70734963,6.56754537 L3.81702803,6.90102857 L3.52983898,6.69486217 L3.24277192,6.90102857 L3.35245033,6.56754537 L3.06526127,6.36137896 L3.42028257,6.36137896 L3.52983898,6.0277752 Z M5.53882036,6.0277752 L5.64849877,6.36137896 L6.00339807,6.36137896 L5.71633102,6.56754537 L5.82600942,6.90102857 L5.53882036,6.69486217 L5.25175331,6.90102857 L5.36143171,6.56754537 L5.07424266,6.36137896 L5.42926396,6.36137896 L5.53882036,6.0277752 Z M7.54780175,6.0277752 L7.65748015,6.36137896 L8.01237946,6.36137896 L7.7253124,6.56754537 L7.8348688,6.90102857 L7.54780175,6.69486217 L7.26073469,6.90102857 L7.3704131,6.56754537 L7.08322404,6.36137896 L7.43824535,6.36137896 L7.54780175,6.0277752 Z M9.55666113,6.0277752 L9.66633954,6.36137896 L10.0212388,6.36137896 L9.73404979,6.56754537 L9.84385019,6.90102857 L9.55666113,6.69486217 L9.26959408,6.90102857 L9.37915048,6.56754537 L9.09208343,6.36137896 L9.44698273,6.36137896 L9.55666113,6.0277752 Z"></path>
                            <path d="M0.516427899,6.87173124 L0.626228302,7.20533501 L0.981005607,7.20533501 L0.693938551,7.41150141 L0.803616954,7.74498462 L0.516427899,7.53881821 L0.229360843,7.74498462 L0.339039246,7.41150141 L0.0518501906,7.20533501 L0.406871496,7.20533501 L0.516427899,6.87173124 Z M2.52540928,6.87173124 L2.63508769,7.20533501 L2.98998699,7.20533501 L2.70291994,7.41150141 L2.81247634,7.74498462 L2.52540928,7.53881821 L2.23834223,7.74498462 L2.34789863,7.41150141 L2.06083158,7.20533501 L2.41573088,7.20533501 L2.52540928,6.87173124 Z M4.53439067,6.87173124 L4.64406907,7.20533501 L4.99896838,7.20533501 L4.71190132,7.41150141 L4.82157973,7.74498462 L4.53439067,7.53881821 L4.24732362,7.74498462 L4.35700202,7.41150141 L4.06981296,7.20533501 L4.42483427,7.20533501 L4.53439067,6.87173124 Z M6.54325006,6.87173124 L6.65292846,7.20533501 L7.00782776,7.20533501 L6.72076071,7.41150141 L6.83043911,7.74498462 L6.54325006,7.53881821 L6.256183,7.74498462 L6.3658614,7.41150141 L6.07867235,7.20533501 L6.43369365,7.20533501 L6.54325006,6.87173124 Z M8.55223144,6.87173124 L8.66190985,7.20533501 L9.01680915,7.20533501 L8.72962009,7.41150141 L8.8394205,7.74498462 L8.55223144,7.53881821 L8.26516439,7.74498462 L8.37472079,7.41150141 L8.08765373,7.20533501 L8.44255304,7.20533501 L8.55223144,6.87173124 Z M10.5612128,6.87173124 L10.6708912,7.20533501 L11.0257905,7.20533501 L10.7386015,7.41150141 L10.8484019,7.74498462 L10.5612128,7.53881821 L10.2741458,7.74498462 L10.3837022,7.41150141 L10.0966351,7.20533501 L10.4515344,7.20533501 L10.5612128,6.87173124 Z"></path>
                        </g>
                    </g>
                </g>
            </g>
        </g>
    </g>
</svg>