<?xml version="1.0" encoding="UTF-8"?>
<svg version="1.1" xmlns="http://www.w3.org/2000/svg" xmlns:xlink="http://www.w3.org/1999/xlink" width="258" height="28">
    <!-- Generator: sketchtool 47.1 (45422) - http://www.bohemiancoding.com/sketch -->
    <title>E5576AC8-18E7-4378-8A6B-9469FBE95B92</title>
    <desc>Created with sketchtool.</desc>
    <defs></defs>
    <g id="Symbols" stroke="none" stroke-width="1" fill="none" fill-rule="evenodd">
        <g id="Header/Dark">
            <rect id="Rectangle" opacity="0.200000003" x="0" y="0" height="28"></rect>
            <g id="Vimana_logo_reg_black-Copy-2" fill="#FFFFFF">
                <path d="M235.91788,0.947464354 L217.941476,0.944994855 L226.877051,5.99429663 L213.837443,27.9991768 L219.817509,27.9991768 C223.734612,27.9991768 226.989041,26.0951933 228.879388,22.9177716 L235.91788,11.0913421 L242.955529,22.9177716 C244.846719,26.0943701 248.101148,27.9991768 252.017408,27.9991768 L258,27.9991768 L244.970496,6.01487579 C243.147511,2.93870351 239.74236,0.947464354 235.91788,0.947464354 Z M138.584777,5.99429663 L129.650044,0.944994855 L147.625605,0.947464354 C151.354937,0.947464354 154.801347,2.85967955 156.679064,6.01487579 L166.743796,22.9276496 L169.708568,27.9991768 L163.725134,27.9991768 C159.809715,27.9991768 156.554444,26.0951933 154.664097,22.9177716 L147.625605,11.0913421 L140.587956,22.9177716 C138.696766,26.0943701 135.442338,27.9991768 131.526077,27.9991768 L125.545169,27.9991768 L138.584777,5.99429663 Z M53.5460895,28 L64.43348,28 L64.43348,0 L58.7321249,3.23998236 C55.274768,5.20405703 53.5460895,8.20202852 53.5460895,12.0956049 L53.5460895,28 Z M29.9028537,28 C26.0775316,28 22.6698542,26.0104072 20.8502369,22.9317654 L11.7841477,7.60440982 L0,0.944994855 L13.4311497,0.946641188 C17.490555,0.947464354 20.787085,2.53864472 22.8652041,6.02969278 L29.9028537,17.8552991 L36.9413454,6.02969278 C38.8316928,2.85144789 42.0861216,0.935940026 46.0023825,0.947464354 L51.9302424,0.963927679 L38.9563126,22.9317654 C37.1375374,26.0104072 33.7281759,28 29.9028537,28 Z M183.932906,11.0913421 L183.098458,11.0913421 L183.098458,28 L172.21191,28 L172.21191,0.947464354 L182.428206,0.947464354 C186.402567,0.947464354 189.449015,2.65388799 191.449668,6.01652212 L198.451952,17.7820373 L199.329343,17.7820373 L199.329343,0.947464354 L210.216733,0.947464354 L210.216733,28 L200.000437,28 C196.026077,28 194.034686,26.1857416 191.856366,22.9301191 L183.932906,11.0913421 Z M93.5431457,28 L83.4994648,11.0913421 L82.6464929,11.0913421 L82.6464929,28 L71.7591024,28 L71.7591024,0.947464354 L81.9492957,0.947464354 C85.7198862,0.947464354 89.1250375,2.85062472 90.9934923,6.00911363 L96.8219932,15.8624136 L102.649652,6.00911363 C104.518107,2.85062472 107.922416,0.947464354 111.693849,0.947464354 L121.884042,0.947464354 L121.884042,28 L110.996651,28 L110.996651,11.0913421 L110.162204,11.0913421 L100.099157,28 L93.5431457,28 L93.5431457,28 Z" id="Fill-1"></path>
                <path d="M252.250871,2.69319548 L253.527347,2.69319548 C253.974156,2.69319548 254.319149,2.77819187 254.559803,2.94986776 C254.801298,3.12070209 254.922467,3.37484972 254.922467,3.7131522 C254.922467,3.85789853 254.898906,3.9841308 254.852627,4.091849 C254.807188,4.19872566 254.746604,4.28961289 254.671715,4.3645107 C254.597668,4.43940851 254.51184,4.4983169 254.415074,4.54207742 C254.319149,4.58583794 254.219858,4.61865833 254.119726,4.64053859 L254.119726,4.64727098 C254.167688,4.68261601 254.231638,4.74236595 254.309893,4.8248377 C254.388989,4.908151 254.473975,5.02933397 254.573266,5.1808127 L255.198461,6.13512864 L254.257723,6.13512864 L253.635894,5.15388314 C253.583724,5.07225295 253.531554,5.01166146 253.492006,4.9636932 C253.452458,4.91488339 253.417117,4.87785525 253.384301,4.85176725 C253.351485,4.8248377 253.31951,4.80884828 253.289217,4.80211589 C253.259767,4.79538351 253.224426,4.79201731 253.184878,4.79201731 L253.138598,4.79201731 L253.138598,6.13512864 L252.250871,6.13512864 L252.250871,2.69319548 Z M253.51725,4.20040875 C253.870658,4.20040875 254.047361,4.05734552 254.047361,3.77206059 C254.047361,3.62731426 254.001923,3.51875451 253.913571,3.44638134 C253.823536,3.37400818 253.677966,3.33782159 253.478543,3.33782159 L253.138598,3.33782159 L253.138598,4.20040875 L253.51725,4.20040875 Z M253.500421,1 C254.466402,1 255.341507,1.39132003 255.975117,2.02500601 C256.607886,2.65785044 257,3.53390238 257,4.5 C257,5.46609762 256.607886,6.34130801 255.975117,6.97499399 C255.341507,7.60867997 254.466402,8 253.500421,8 C252.533598,8 251.658493,7.60867997 251.025724,6.97499399 C250.392114,6.34130801 250,5.46609762 250,4.5 C250,3.53390238 250.392114,2.65785044 251.025724,2.02500601 C251.658493,1.39132003 252.533598,1 253.500421,1 Z M255.480346,2.51899495 C254.973795,2.01238278 254.273711,1.69932676 253.500421,1.69932676 C252.727131,1.69932676 252.026205,2.01238278 251.519654,2.51899495 C251.013103,3.02644867 250.700084,3.72661698 250.700084,4.5 C250.700084,5.27338302 251.013103,5.97355133 251.519654,6.4801635 C252.026205,6.98761722 252.727131,7.30067324 253.500421,7.30067324 C254.273711,7.30067324 254.973795,6.98761722 255.480346,6.4801635 C255.986897,5.97355133 256.300757,5.27338302 256.300757,4.5 C256.300757,3.72661698 255.986897,3.02644867 255.480346,2.51899495 L255.480346,2.51899495 Z" id="Fill-2"></path>
            </g>
        </g>
    </g>
</svg>