<?xml version="1.0" encoding="UTF-8"?>
<svg width="260px" height="28px" viewBox="0 0 260 28" version="1.1" xmlns="http://www.w3.org/2000/svg" xmlns:xlink="http://www.w3.org/1999/xlink">
    <!-- Generator: Sketch 48.1 (47250) - http://www.bohemiancoding.com/sketch -->
    <title>Vimana-tm-01</title>
    <desc>Created with Sketch.</desc>
    <defs></defs>
    <g id="Header/Dark" stroke="none" stroke-width="1" fill="none" fill-rule="evenodd" transform="translate(-571.000000, -58.000000)">
        <g id="Vimana-tm-01" transform="translate(571.000000, 58.000000)">
            <path d="M235.006452,0.985337243 L217.141935,0.985337243 L226.032258,5.9941349 L213.032258,27.9178886 L218.987097,27.9178886 C222.929032,27.9178886 226.116129,26.0293255 228.045161,22.8269795 L235.090323,11.0029326 L242.135484,22.8269795 C243.980645,26.0293255 247.251613,27.9178886 251.193548,27.9178886 L257.148387,27.9178886 L244.148387,5.9941349 C242.219355,2.95601173 238.780645,0.985337243 235.006452,0.985337243 Z M138.051613,5.9941349 L129.16129,0.985337243 L147.025806,0.985337243 C150.716129,0.985337243 154.154839,2.87390029 156.083871,6.07624633 L166.148387,22.9090909 L169.083871,28 L163.129032,28 C159.187097,28 156,26.111437 154.070968,22.9090909 L147.025806,11.085044 L139.980645,22.9090909 C138.135484,26.111437 134.864516,28 130.922581,28 L124.967742,28 L138.051613,5.9941349 Z M53.3419355,27.9178886 L64.1612903,27.9178886 L64.1612903,0 L58.4580645,3.20234604 C55.0193548,5.17302053 53.2580645,8.12903226 53.2580645,12.0703812 L53.3419355,27.9178886 Z M29.7741935,27.9178886 C26,27.9178886 22.5612903,25.9472141 20.716129,22.8269795 L11.7419355,7.5542522 L0,0.903225806 L13.4193548,0.903225806 C17.4451613,0.903225806 20.716129,2.46334311 22.8129032,5.9941349 L29.8580645,17.8181818 L36.9032258,5.9941349 C38.7483871,2.79178886 42.0193548,0.903225806 45.9612903,0.903225806 L51.8322581,0.903225806 L38.916129,22.8269795 C36.9870968,25.9472141 33.6322581,27.9178886 29.7741935,27.9178886 Z M183.174194,11.085044 L182.335484,11.085044 L182.335484,27.9178886 L171.516129,27.9178886 L171.516129,6.07624633 L171.516129,0.985337243 L181.664516,0.985337243 C185.606452,0.985337243 188.625806,2.70967742 190.63871,6.07624633 L197.6,17.8181818 L198.43871,17.8181818 L198.43871,0.985337243 L209.258065,0.985337243 L209.258065,22.8269795 L209.258065,27.9178886 L199.109677,27.9178886 C195.167742,27.9178886 193.154839,26.111437 190.974194,22.8269795 L183.174194,11.085044 Z M93.1806452,27.9178886 L83.2,11.085044 L82.3612903,11.085044 L82.3612903,27.9178886 L71.5419355,27.9178886 L71.5419355,0.903225806 L81.6903226,0.903225806 C85.4645161,0.903225806 88.8193548,2.79178886 90.6645161,5.91202346 L96.4516129,15.7653959 L102.23871,5.91202346 C104.083871,2.79178886 107.522581,0.903225806 111.212903,0.903225806 L121.36129,0.903225806 L121.36129,27.9178886 L110.541935,27.9178886 L110.541935,11.085044 L109.703226,11.085044 L99.6387097,27.9178886 L93.1806452,27.9178886 Z M254.212903,0.903225806 L254.212903,1.80645161 L252.703226,1.80645161 L252.703226,5.58357771 L251.696774,5.58357771 L251.696774,1.80645161 L250.187097,1.80645161 L250.187097,0.903225806 L254.212903,0.903225806 Z M260,0.903225806 L260,5.58357771 L258.993548,5.58357771 L258.993548,2.70967742 L257.735484,4.59824047 L257.148387,4.59824047 L255.890323,2.70967742 L255.890323,5.58357771 L254.883871,5.58357771 L254.883871,0.903225806 L255.806452,0.903225806 L257.483871,3.36656891 L259.16129,0.903225806 L260,0.903225806 Z" id="Shape" fill="#FFFFFF" fill-rule="nonzero"></path>
            <g id="Group" transform="translate(251.000000, 4.000000)"></g>
        </g>
    </g>
</svg>