<?xml version="1.0" encoding="utf-8"?>
<!-- Generator: Adobe Illustrator 22.0.1, SVG Export Plug-In . SVG Version: 6.00 Build 0)  -->
<svg version="1.1" id="Layer_1" xmlns="http://www.w3.org/2000/svg" xmlns:xlink="http://www.w3.org/1999/xlink" x="0px" y="0px"
	 viewBox="0 0 1200 259" style="enable-background:new 0 0 1200 259;" xml:space="preserve">
<style type="text/css">
	.st0{fill:url(#SVGID_1_);}
	.st1{fill:#FFFFFF;}
	.st2{fill:#FEFEFE;}
	.st3{fill:#FDFDFD;}
	.st4{fill:#FCFCFC;}
	.st5{fill:#FBFBFB;}
	.st6{fill:#FAFAFA;}
	.st7{fill:#F9F9F9;}
	.st8{fill:#F8F8F8;}
	.st9{fill:#F7F7F7;}
	.st10{fill:#F6F6F6;}
	.st11{fill:#F5F5F5;}
	.st12{fill:#F4F4F4;}
	.st13{fill:#F3F3F3;}
	.st14{fill:#F2F2F2;}
	.st15{fill:#F1F1F1;}
	.st16{fill:#F0F0F0;}
	.st17{fill:#EFEFEF;}
	.st18{fill:#EEEEEE;}
	.st19{fill:#EDEDED;}
	.st20{fill:#ECECEC;}
	.st21{fill:#EBEBEB;}
	.st22{fill:#EAEAEA;}
	.st23{fill:#E9E9E9;}
	.st24{fill:#E8E8E8;}
	.st25{fill:#E7E7E7;}
	.st26{fill:#E6E6E6;}
	.st27{fill:#E5E5E5;}
	.st28{fill:#E4E4E4;}
	.st29{fill:#E3E3E3;}
	.st30{fill:#E2E2E2;}
	.st31{fill:#E1E1E1;}
	.st32{fill:#E0E0E0;}
	.st33{fill:#DFDFDF;}
	.st34{fill:#DEDEDE;}
	.st35{fill:#DDDDDD;}
	.st36{fill:#DCDCDC;}
	.st37{fill:#DBDBDB;}
	.st38{fill:#DADADA;}
	.st39{fill:#D9D9D9;}
	.st40{fill:#D8D8D8;}
	.st41{fill:#D7D7D7;}
	.st42{fill:#D6D6D6;}
	.st43{fill:#D5D5D5;}
	.st44{fill:#D4D4D4;}
	.st45{fill:#D3D3D3;}
	.st46{fill:#D2D2D2;}
	.st47{fill:#D1D1D1;}
	.st48{fill:#D0D0D0;}
	.st49{fill:#CFCFCF;}
	.st50{fill:#CECECE;}
	.st51{fill:#CDCDCD;}
	.st52{fill:#CCCCCC;}
	.st53{fill:#CBCBCB;}
	.st54{fill:#CACACA;}
	.st55{fill:#C9C9C9;}
	.st56{fill:#C8C8C8;}
	.st57{fill:#C7C7C7;}
	.st58{fill:#C6C6C6;}
	.st59{fill:#C5C5C5;}
	.st60{fill:#C4C4C4;}
	.st61{fill:#C3C3C3;}
	.st62{fill:#C2C2C2;}
	.st63{fill:#C1C1C1;}
	.st64{fill:#C0C0C0;}
	.st65{fill:#BFBFBF;}
	.st66{fill:#BEBEBE;}
	.st67{fill:#BDBDBD;}
	.st68{fill:#BCBCBC;}
	.st69{fill:#BBBBBB;}
	.st70{fill:#BABABA;}
	.st71{fill:#B9B9B9;}
	.st72{fill:#B8B8B8;}
	.st73{fill:#B7B7B7;}
	.st74{fill:#B6B6B6;}
	.st75{fill:#B5B5B5;}
	.st76{fill:#B4B4B4;}
	.st77{fill:#B3B3B3;}
	.st78{fill:#B2B2B2;}
	.st79{fill:#B1B1B1;}
	.st80{fill:#B0B0B0;}
	.st81{fill:#AFAFAF;}
	.st82{fill:#AEAEAE;}
	.st83{fill:#ADADAD;}
	.st84{fill:#ACACAC;}
	.st85{fill:#ABABAB;}
	.st86{fill:#AAAAAA;}
	.st87{fill:#A9A9A9;}
	.st88{fill:#A8A8A8;}
	.st89{fill:url(#SVGID_2_);}
</style>
<g>
	
		<linearGradient id="SVGID_1_" gradientUnits="userSpaceOnUse" x1="392.2762" y1="1935.9271" x2="182.7808" y2="2058.7346" gradientTransform="matrix(-1.162862e-02 0.9999 0.9999 1.162862e-02 -1393.1735 -212.0065)">
		<stop  offset="0" style="stop-color:#D9D9D9"/>
		<stop  offset="1" style="stop-color:#BFBFBF"/>
	</linearGradient>
	<path class="st0" d="M1191.1,69.1C804.2-7.2,364.7-3.9,52.9,70.2c-86.4,20.5-52.9,71.4,59.9,94c337.5,67.6,843.1,106.5,864.3,78.2
		c69.3-92.5,198.8-108.9,198.8-108.9L1191.1,69.1z"/>
	<g>
		<path class="st1" d="M794.5,211.1c172.1,6.4,357.4-62,358.8-106.6c1.3-44.6-81.3-47-251.8-70.6C661.2,0.7,88.3,41,31,82.4
			C-5.1,108.5,514.5,200.7,794.5,211.1z"/>
		<path class="st2" d="M797.5,209.7c170.3,6.4,353.7-61.3,355.1-105.4c1.3-44.2-80.4-46.7-249.3-70.1c-237.7-32.9-804.2,7-860.9,48
			C6.6,108.1,520.6,199.4,797.5,209.7z"/>
		<path class="st3" d="M800.5,208.4c168.6,6.4,350-60.5,351.4-104.3c1.4-43.7-79.6-46.4-246.7-69.5C670.1,2,109.9,41.5,53.8,82.1
			C18.4,107.8,526.6,198.1,800.5,208.4z"/>
		<path class="st4" d="M803.5,207.1c166.8,6.4,346.4-59.8,347.7-103.1c1.4-43.3-78.8-46.1-244.1-69c-232.6-32.2-786.5,6.8-841.9,47
			C30.2,107.4,532.6,196.8,803.5,207.1z"/>
		<path class="st5" d="M806.6,205.7c165,6.4,342.7-59,344-102c1.4-42.9-78-45.8-241.6-68.5C679,3.3,131.4,41.9,76.6,81.8
			C42,107.1,538.6,195.5,806.6,205.7z"/>
		<path class="st6" d="M809.6,204.4c163.3,6.4,339-58.3,340.4-100.8c1.4-42.5-77.1-45.4-239-68C683.4,4,142.2,42.1,88,81.6
			C53.8,106.7,544.6,194.2,809.6,204.4z"/>
		<path class="st7" d="M812.6,203c161.5,6.3,335.3-57.6,336.7-99.7c1.4-42.1-76.3-45.1-236.4-67.4C687.9,4.7,153,42.4,99.4,81.5
			C65.6,106.3,550.6,193,812.6,203z"/>
		<path class="st8" d="M815.6,201.7c159.7,6.3,331.6-56.8,333-98.5c1.4-41.7-75.5-44.8-233.9-66.9c-222.5-31-751,6.3-803.9,45
			C77.4,106,556.6,191.7,815.6,201.7z"/>
		<path class="st9" d="M818.6,200.4c158,6.3,327.9-56.1,329.3-97.3c1.4-41.3-74.7-44.5-231.3-66.4C696.8,6,174.5,42.7,122.2,81.2
			C89.1,105.6,562.6,190.4,818.6,200.4z"/>
		<path class="st10" d="M821.7,199c156.2,6.3,324.2-55.4,325.7-96.2c1.5-40.8-73.9-44.2-228.7-65.9c-217.4-30.3-733.4,6-785,44
			C100.9,105.2,568.7,189.1,821.7,199z"/>
		<path class="st11" d="M824.7,197.7c154.4,6.3,320.5-54.6,322-95c1.5-40.4-73-43.8-226.2-65.3C705.7,7.3,196,43.1,145,80.8
			C112.7,104.8,574.7,187.8,824.7,197.7z"/>
		<path class="st12" d="M827.7,196.3c152.7,6.3,316.8-53.9,318.3-93.9c1.5-40-72.2-43.5-223.6-64.8c-212.3-29.7-715.6,5.7-766,43.1
			C124.4,104.5,580.7,186.5,827.7,196.3z"/>
		<path class="st13" d="M830.7,195c150.9,6.3,313.1-53.1,314.6-92.7c1.5-39.6-71.4-43.2-221-64.3C714.6,8.6,217.6,43.5,167.9,80.5
			C136.2,104.1,586.7,185.3,830.7,195z"/>
		<path class="st14" d="M833.8,193.6c149.2,6.3,309.4-52.4,310.9-91.6c1.5-39.2-70.6-42.9-218.4-63.8C719,9.2,228.3,43.8,179.3,80.4
			C148,103.7,592.7,184,833.8,193.6z"/>
		<path class="st15" d="M836.8,192.3c147.4,6.2,305.7-51.7,307.3-90.4c1.5-38.8-69.8-42.6-215.9-63.2C723.5,9.9,239.1,44,190.7,80.2
			C159.8,103.3,598.7,182.7,836.8,192.3z"/>
		<path class="st16" d="M839.8,191c145.6,6.2,302-50.9,303.6-89.3c1.5-38.4-68.9-42.3-213.3-62.7c-202.1-28.4-680.2,5.2-728,41.1
			C171.5,103,604.7,181.4,839.8,191z"/>
		<path class="st17" d="M842.8,189.6c143.9,6.2,298.4-50.2,299.9-88.1c1.6-37.9-68.1-41.9-210.7-62.2
			c-199.6-28.1-671.3,5.1-718.5,40.6C183.3,102.6,610.7,180.1,842.8,189.6z"/>
		<path class="st18" d="M845.8,188.3c142.1,6.2,294.7-49.4,296.2-87c1.6-37.5-67.3-41.6-208.2-61.7c-197.1-27.8-662.5,4.9-709,40.1
			C195.1,102.2,616.7,178.8,845.8,188.3z"/>
		<path class="st19" d="M848.9,186.9c140.3,6.2,291-48.7,292.6-85.8C1143,64,1074.9,59.8,935.8,40c-194.5-27.5-653.6,4.8-699.5,39.6
			C206.9,101.9,622.8,177.5,848.9,186.9z"/>
		<path class="st20" d="M851.9,185.6c138.6,6.2,287.3-48,288.9-84.7c1.6-36.7-65.7-41-203-60.6c-192-27.2-644.7,4.7-690,39.1
			C218.7,101.5,628.8,176.3,851.9,185.6z"/>
		<path class="st21" d="M854.9,184.2c136.8,6.2,283.6-47.2,285.2-83.5c1.6-36.3-64.8-40.7-200.5-60.1
			c-189.5-26.9-635.9,4.6-680.5,38.6C230.4,101.1,634.8,175,854.9,184.2z"/>
		<path class="st22" d="M857.9,182.9c135,6.2,279.9-46.5,281.5-82.4c1.6-35.9-64-40.3-197.9-59.6c-186.9-26.5-627,4.4-671.1,38.1
			C242.2,100.8,640.8,173.7,857.9,182.9z"/>
		<path class="st23" d="M861,181.6c133.3,6.1,276.2-45.7,277.8-81.2c1.6-35.5-63.2-40-195.3-59C759.1,15.1,325.3,45.6,281.9,79
			C254,100.4,646.8,172.4,861,181.6z"/>
		<path class="st24" d="M864,180.2c131.5,6.1,272.5-45,274.2-80c1.7-35-62.4-39.7-192.8-58.5c-181.8-25.9-609.3,4.2-652.1,37.1
			C265.8,100,652.8,171.1,864,180.2z"/>
		<path class="st25" d="M867,178.9c129.7,6.1,268.8-44.3,270.5-78.9c1.7-34.6-61.5-39.4-190.2-58c-179.3-25.6-600.4,4-642.6,36.7
			C277.6,99.7,658.8,169.8,867,178.9z"/>
		<path class="st26" d="M870,177.5c128,6.1,265.1-43.5,266.8-77.7c1.7-34.2-60.7-39.1-187.6-57.4c-176.8-25.3-591.6,3.9-633.1,36.2
			C289.3,99.3,664.8,168.6,870,177.5z"/>
		<path class="st27" d="M873,176.2c126.2,5.8,261.4-42.8,263.1-76.6c1.7-33.8-59.9-38.7-185.1-56.9c-174.2-25-582.7,3.8-623.6,35.7
			C301.1,98.9,670.9,166.9,873,176.2z"/>
		<path class="st28" d="M876.1,174.9c124.5,5.8,257.7-42,259.4-75.4C1137.2,66,1076.4,61,953,43c-171.7-24.6-573.9,3.7-614.1,35.2
			C312.9,98.6,676.9,165.6,876.1,174.9z"/>
		<path class="st29" d="M879.1,173.5c122.7,5.8,254.1-41.3,255.8-74.3c1.7-33-58.3-38.1-179.9-55.9C785.8,19,389.9,46.9,350.3,78
			C324.7,98.2,682.9,164.3,879.1,173.5z"/>
		<path class="st30" d="M882.1,172.2c120.9,5.8,250.4-40.6,252.1-73.1c1.7-32.6-57.4-37.8-177.4-55.3
			c-166.6-24-556.1,3.4-595.1,34.2C336.5,97.8,688.9,163,882.1,172.2z"/>
		<path class="st31" d="M885.1,170.8c119.2,5.7,246.7-39.8,248.4-72c1.7-32.1-56.6-37.5-174.8-54.8
			c-164.1-23.7-547.3,3.3-585.6,33.7C348.2,97.5,694.9,161.7,885.1,170.8z"/>
		<path class="st32" d="M888.1,169.5c117.4,5.7,243-39.1,244.7-70.8c1.8-31.7-55.8-37.2-172.2-54.3C799.1,21,422.3,47.5,384.5,77.6
			C360,97.1,700.9,160.4,888.1,169.5z"/>
		<path class="st33" d="M891.2,168.1c115.6,5.7,239.3-38.4,241.1-69.7c1.8-31.3-55-36.8-169.6-53.8c-159-23.1-529.6,3-566.6,32.7
			C371.8,96.7,706.9,159.1,891.2,168.1z"/>
		<path class="st34" d="M894.2,166.8c113.9,5.7,235.6-37.6,237.4-68.5c1.8-30.9-54.2-36.5-167.1-53.2C808,22.3,443.8,48,407.3,77.3
			C383.6,96.4,713,157.8,894.2,166.8z"/>
		<path class="st35" d="M897.2,165.5c112.1,5.7,231.9-36.9,233.7-67.4c1.8-30.5-53.3-36.2-164.5-52.7
			C812.5,23,454.6,48.2,418.8,77.1C395.4,96,719,156.5,897.2,165.5z"/>
		<path class="st36" d="M900.2,164.1c110.4,5.6,228.2-36.1,230-66.2c1.8-30.1-52.5-35.9-161.9-52.2c-151.4-22.1-503,2.7-538.2,31.2
			C407.1,95.6,725,155.2,900.2,164.1z"/>
		<path class="st37" d="M903.3,162.8c108.6,5.6,224.5-35.4,226.3-65.1c1.8-29.7-51.7-35.6-159.4-51.7
			c-148.8-21.8-494.1,2.5-528.7,30.7C418.9,95.3,731,153.9,903.3,162.8z"/>
		<path class="st38" d="M906.3,161.4c106.8,5.6,220.8-34.7,222.7-63.9c1.8-29.2-50.9-35.2-156.8-51.1
			C825.9,24.9,486.9,48.8,453,76.6C430.7,94.9,737,152.6,906.3,161.4z"/>
		<path class="st39" d="M909.3,160.1c105.1,5.6,217.1-33.9,219-62.7c1.9-28.8-50-34.9-154.2-50.6C830.3,25.6,497.7,49,464.4,76.5
			C442.5,94.5,743,151.3,909.3,160.1z"/>
		<path class="st40" d="M912.3,158.8c103.3,5.5,213.4-33.2,215.3-61.6c1.9-28.4-49.2-34.6-151.7-50.1
			c-141.2-20.8-467.5,2.2-500.2,29.3C454.3,94.2,749,150,912.3,158.8z"/>
		<path class="st41" d="M915.3,157.4c101.5,5.5,209.7-32.4,211.6-60.4c1.9-28-48.4-34.3-149.1-49.6c-138.7-20.5-458.7,2-490.7,28.8
			C466,93.8,755,148.7,915.3,157.4z"/>
		<path class="st42" d="M918.4,156.1c99.8,5.5,206.1-31.7,208-59.3c1.9-27.6-47.6-34-146.5-49C843.7,27.5,530,49.7,498.6,76
			C477.8,93.4,761.1,147.4,918.4,156.1z"/>
		<path class="st43" d="M921.4,154.7c98,5.5,202.4-31,204.3-58.1c1.9-27.2-46.8-33.7-144-48.5C848.1,28.2,540.8,49.9,510,75.9
			C489.6,93.1,767.1,146.1,921.4,154.7z"/>
		<path class="st44" d="M924.4,153.4c96.2,5.5,198.7-30.2,200.6-57c1.9-26.8-45.9-33.5-141.4-48c-131-19.8-432.1,1.7-462.2,27.3
			C501.4,92.7,773.1,144.8,924.4,153.4z"/>
		<path class="st45" d="M927.4,152c94.5,5.4,195-29.5,196.9-55.8c1.9-26.3-45.1-33.2-138.8-47.5C857,29.2,562.3,50.3,532.8,75.5
			C513.2,92.3,779.1,143.5,927.4,152z"/>
		<path class="st45" d="M930.5,150.7c92.7,5.4,191.3-28.7,193.2-54.7c2-25.9-44.3-32.9-136.3-46.9c-125.9-19.2-414.4,1.4-443.2,26.3
			C524.9,92,785.1,142.2,930.5,150.7z"/>
		<path class="st46" d="M933.5,149.4c91,5.4,187.6-28,189.6-53.5c2-25.5-43.4-32.6-133.7-46.4C866,30.5,583.9,50.7,555.6,75.2
			C536.7,91.6,791.1,140.9,933.5,149.4z"/>
		<path class="st47" d="M936.5,148c89.2,5.4,183.9-27.3,185.9-52.4c2-25.1-42.6-32.3-131.1-45.9C870.4,31.2,594.6,51,567,75.1
			C548.5,91.2,797.1,139.6,936.5,148z"/>
		<path class="st48" d="M939.5,146.7c87.4,5.4,180.2-26.5,182.2-51.2c2-24.7-41.8-32-128.5-45.3c-118.3-18.3-387.8,1.1-414.8,24.8
			C560.3,90.9,803.2,138.3,939.5,146.7z"/>
		<path class="st49" d="M942.5,145.3c85.7,5.3,176.5-25.8,178.5-50.1c2-24.3-41-31.6-126-44.8c-115.8-18-378.9,0.9-405.3,24.3
			C572.1,90.5,809.2,137,942.5,145.3z"/>
		<path class="st50" d="M945.6,144c83.9,5.3,172.8-25,174.9-48.9c2-23.9-40.2-31.3-123.4-44.3c-113.2-17.6-370,0.8-395.8,23.8
			C583.8,90.1,815.2,135.7,945.6,144z"/>
		<path class="st51" d="M948.6,142.6c82.1,5.3,169.1-24.3,171.2-47.8c2-23.4-39.3-31-120.8-43.8c-110.7-17.3-361.2,0.7-386.3,23.3
			C595.6,89.8,821.2,134.4,948.6,142.6z"/>
		<path class="st52" d="M951.6,141.3c80.4,5.3,165.4-23.6,167.5-46.6c2.1-23-38.5-30.7-118.3-43.2C892.7,34.4,648.5,52,624,74.3
			C607.4,89.4,827.2,133.1,951.6,141.3z"/>
		<path class="st53" d="M954.6,140c78.6,5.3,161.7-22.8,163.8-45.4c2.1-22.6-37.7-30.4-115.7-42.7c-105.6-16.7-343.5,0.5-367.3,22.3
			C619.2,89.1,833.2,131.9,954.6,140z"/>
		<path class="st54" d="M957.7,138.6c76.8,5.2,158.1-22.1,160.1-44.3c2.1-22.2-36.9-30.1-113.1-42.2C901.6,35.7,670.1,52.5,646.8,74
			C631,88.7,839.2,130.6,957.7,138.6z"/>
		<path class="st55" d="M960.7,137.3c75.1,5.2,154.4-21.4,156.5-43.1c2.1-21.8-36.1-29.7-110.6-41.7C906,36.4,680.8,52.7,658.2,73.8
			C642.7,88.3,845.2,129.3,960.7,137.3z"/>
		<path class="st56" d="M963.7,135.9c73.3,5.2,150.7-20.6,152.8-42c2.1-21.4-35.2-29.4-108-41.1c-98-15.8-316.9,0.1-338.8,20.9
			C654.5,88,851.3,128,963.7,135.9z"/>
		<path class="st57" d="M966.7,134.6c71.6,5.2,147-19.9,149.1-40.8c2.1-21-34.4-29.1-105.4-40.6c-95.5-15.5-308,0-329.3,20.4
			C666.3,87.6,857.3,126.7,966.7,134.6z"/>
		<path class="st58" d="M969.7,133.3c69.8,5.2,143.3-19.1,145.4-39.7c2.1-20.5-33.6-28.8-102.9-40.1
			c-92.9-15.1-299.1-0.1-319.8,19.9C678.1,87.2,863.3,125.4,969.7,133.3z"/>
		<path class="st59" d="M972.8,131.9c68,5.1,139.6-18.4,141.7-38.5c2.2-20.1-32.8-28.5-100.3-39.6C923.8,39,723.9,53.6,703.9,73.2
			C689.9,86.9,869.3,124.1,972.8,131.9z"/>
		<path class="st60" d="M975.8,130.6c66.3,5.1,135.9-17.7,138.1-37.4c2.2-19.7-31.9-28.2-97.7-39c-87.8-14.5-281.4-0.3-300.9,18.9
			C701.6,86.5,875.3,122.8,975.8,130.6z"/>
		<path class="st61" d="M978.8,129.2c64.5,5.1,132.2-16.9,134.4-36.2c2.2-19.3-31.1-27.9-95.2-38.5C932.7,40.3,745.5,54,726.7,72.9
			C713.4,86.2,881.3,121.5,978.8,129.2z"/>
		<path class="st62" d="M981.8,127.9c62.7,5.1,128.5-16.2,130.7-35.1c2.2-18.9-30.3-27.5-92.6-38C937.2,41,756.3,54.3,738.1,72.7
			C725.2,85.8,887.3,120.2,981.8,127.9z"/>
		<path class="st63" d="M984.8,126.5c61,5.1,124.8-15.4,127-33.9c2.2-18.5-29.5-27.2-90-37.5c-80.2-13.6-254.8-0.7-272.4,17.4
			C737,85.4,893.4,118.9,984.8,126.5z"/>
		<path class="st64" d="M987.9,125.2c59.2,5,121.1-14.7,123.4-32.8c2.2-18.1-28.7-26.9-87.5-36.9c-77.7-13.3-245.9-0.8-262.9,16.9
			C748.8,85.1,899.4,117.7,987.9,125.2z"/>
		<path class="st65" d="M990.9,123.9c57.5,5,117.4-14,119.7-31.6c2.2-17.6-27.8-26.6-84.9-36.4c-75.1-12.9-237.1-0.9-253.4,16.4
			C760.5,84.7,905.4,116.4,990.9,123.9z"/>
		<path class="st66" d="M993.9,122.5c55.7,5,113.7-13.2,116-30.5c2.3-17.2-27-26.3-82.3-35.9c-72.6-12.6-228.2-1-243.9,15.9
			C772.3,84.4,911.4,115.1,993.9,122.5z"/>
		<path class="st67" d="M996.9,121.2c53.9,5,110.1-12.5,112.3-29.3c2.3-16.8-26.2-25.9-79.7-35.4C959.4,44.2,810.2,55.4,795.1,72
			C784.1,84,917.4,113.8,996.9,121.2z"/>
		<path class="st68" d="M1000,119.8c52.2,5,106.4-11.7,108.6-28.1c2.3-16.4-25.4-25.6-77.2-34.8c-67.5-12-210.5-1.2-224.9,14.9
			C795.9,83.7,923.4,112.5,1000,119.8z"/>
		<path class="st69" d="M1003,118.5c50.4,5,102.7-11,105-27c2.3-16-24.5-25.3-74.6-34.3c-65-11.7-201.6-1.3-215.4,14.5
			C807.7,83.3,929.4,111.2,1003,118.5z"/>
		<path class="st70" d="M1006,117.2c48.6,5,99-10.3,101.3-25.8c2.3-15.6-23.7-25-72-33.8c-62.5-11.4-192.7-1.4-205.9,14
			C819.5,83,935.4,110,1006,117.2z"/>
		<path class="st71" d="M1009,115.8c46.9,4.9,95.3-9.5,97.6-24.7c2.3-15.2-22.9-24.7-69.5-33.3c-59.9-11-183.8-1.5-196.4,13.5
			C831.3,82.6,941.5,108.7,1009,115.8z"/>
		<path class="st72" d="M1012,114.5c45.1,4.9,91.6-8.8,93.9-23.5c2.3-14.7-22.1-24.4-66.9-32.7c-57.4-10.7-175-1.6-187,13
			C843,82.2,947.5,107.4,1012,114.5z"/>
		<path class="st73" d="M1015.1,113.1c43.4,4.9,87.9-8.1,90.3-22.4c2.4-14.3-21.3-24-64.3-32.2C986.2,48.2,874.9,56.8,863.5,71
			C854.8,81.9,953.5,106.1,1015.1,113.1z"/>
		<path class="st74" d="M1018.1,111.8c41.6,4.9,84.2-7.3,86.6-21.2c2.4-13.9-20.4-23.7-61.8-31.7c-52.3-10.1-157.2-1.8-168,12
			C866.6,81.5,959.5,104.9,1018.1,111.8z"/>
		<path class="st75" d="M1021.1,110.4c39.8,4.9,80.5-6.6,82.9-20.1c2.4-13.5-19.6-23.4-59.2-31.1c-49.8-9.7-148.3-1.9-158.5,11.5
			C878.4,81.2,965.5,103.6,1021.1,110.4z"/>
		<path class="st76" d="M1024.1,109.1c38.1,4.9,76.8-5.8,79.2-18.9c2.4-13.1-18.8-23.1-56.6-30.6c-47.2-9.4-139.5-2-149,11
			C890.2,80.8,971.5,102.3,1024.1,109.1z"/>
		<path class="st77" d="M1027.2,107.8c36.3,4.9,73.1-5.1,75.5-17.8c2.4-12.7-18-22.7-54.1-30.1c-44.7-9.1-130.6-2.1-139.5,10.5
			C902,80.5,977.5,101.1,1027.2,107.8z"/>
		<path class="st78" d="M1030.2,106.4c34.5,4.9,69.4-4.4,71.9-16.6c2.4-12.3-17.2-22.4-51.5-29.6c-42.1-8.8-121.7-2.2-130,10
			C913.8,80.2,983.6,99.8,1030.2,106.4z"/>
		<path class="st79" d="M1033.2,105.1c32.8,4.9,65.8-3.6,68.2-15.5c2.4-11.8-16.3-22.1-48.9-29c-39.6-8.4-112.8-2.3-120.5,9.5
			C925.6,79.8,989.6,98.5,1033.2,105.1z"/>
		<path class="st80" d="M1036.2,103.7c31,4.9,62.1-2.9,64.5-14.3c2.5-11.4-15.5-21.8-46.4-28.5c-37.1-8.1-103.9-2.4-111,9
			C937.4,79.5,995.6,97.3,1036.2,103.7z"/>
		<path class="st81" d="M1039.2,102.4c29.3,4.9,58.4-2.1,60.8-13.2c2.5-11-14.7-21.4-43.8-28c-34.5-7.8-95-2.5-101.5,8.5
			C949.2,79.1,1001.6,96.1,1039.2,102.4z"/>
		<path class="st82" d="M1042.3,101c27.5,4.9,54.7-1.4,57.2-12c2.5-10.6-13.9-21.1-41.2-27.5c-32-7.4-86.1-2.5-92,8
			C961,78.8,1007.6,94.8,1042.3,101z"/>
		<path class="st83" d="M1045.3,99.7c25.7,5,51-0.7,53.5-10.8c2.5-10.2-13.1-20.8-38.6-26.9c-29.5-7.1-77.2-2.6-82.5,7.5
			C972.8,78.5,1013.6,93.6,1045.3,99.7z"/>
		<path class="st84" d="M1048.3,98.4c24,5,47.3,0.1,49.8-9.7c2.5-9.8-12.2-20.4-36.1-26.4c-26.9-6.8-68.3-2.7-73.1,7.1
			C984.6,78.1,1019.6,92.4,1048.3,98.4z"/>
		<path class="st85" d="M1051.3,97c22.2,5,43.6,0.8,46.1-8.5c2.5-9.4-11.4-20.1-33.5-25.9c-24.4-6.4-59.3-2.8-63.6,6.6
			C996.5,77.8,1025.6,91.2,1051.3,97z"/>
		<path class="st86" d="M1054.3,95.7c20.4,5.1,39.9,1.6,42.4-7.4c2.5-8.9-10.6-19.7-30.9-25.4c-21.9-6-50.4-2.9-54.1,6.1
			C1008.3,77.5,1031.6,90,1054.3,95.7z"/>
		<path class="st87" d="M1057.4,94.3c18.6,5.2,36.2,2.3,38.8-6.2c2.5-8.5-9.8-19.4-28.4-24.8c-19.3-5.7-41.5-2.9-44.6,5.6
			C1020.2,77.1,1037.6,88.8,1057.4,94.3z"/>
		<path class="st88" d="M1060.4,93c16.8,5.3,32.5,3,35.1-5.1c2.6-8.1-9-19-25.8-24.3c-16.8-5.3-32.5-3-35.1,5.1
			C1032,76.8,1043.6,87.7,1060.4,93z"/>
	</g>
	
		<linearGradient id="SVGID_2_" gradientUnits="userSpaceOnUse" x1="205.712" y1="2029.3967" x2="137.4943" y2="2043.7584" gradientTransform="matrix(-1.162862e-02 0.9999 0.9999 1.162862e-02 -1393.1735 -212.0065)">
		<stop  offset="0" style="stop-color:#F6F6F6"/>
		<stop  offset="1" style="stop-color:#BFBFBF"/>
	</linearGradient>
	<path class="st89" d="M1191.1,69.1C804.2-7.2,364.7-3.9,52.9,70.2c600.6-90.6,1123,63.3,1123,63.3L1191.1,69.1z"/>
</g>
</svg>
