<?xml version="1.0" encoding="UTF-8"?>
<svg width="32px" height="28px" viewBox="0 0 32 28" version="1.1" xmlns="http://www.w3.org/2000/svg" xmlns:xlink="http://www.w3.org/1999/xlink">
    <!-- Generator: sketchtool 47.1 (45422) - http://www.bohemiancoding.com/sketch -->
    <title>611E1F4A-9C81-42AF-91F4-0150247E7A65</title>
    <desc>Created with sketchtool.</desc>
    <defs></defs>
    <g id="Symbols" stroke="none" stroke-width="1" fill="none" fill-rule="evenodd">
        <g id="Socials/Light" transform="translate(-240.000000, -43.000000)">
            <g id="medium-icon" transform="translate(240.000000, 43.000000)">
                <path d="M31.6208,5.157 L31.6208,26.799 C31.6208,27.116 31.2878,27.323 31.0038,27.182 L19.4078,21.44 L31.6208,5.157 Z" id="Fill-1" fill="#03ff21"></path>
                <path d="M13.8942,11.3606 L20.8502,0.2006 C20.9672,0.0136 21.2062,-0.0534 21.4042,0.0456 L31.6212,5.1566 L20.9752,22.2296 L13.8942,11.3606 Z" id="Fill-3" fill="#03ff21"></path>
                <polygon id="Fill-6" fill="#808184" points="10.5134 5.157 20.9754 22.23 8.7844 16.089"></polygon>
                <path d="M9.8962,27.18 L0.2362,22.362 C0.0912,22.289 0.0002,22.141 0.0002,21.98 L0.0002,0.603 C0.0002,0.286 0.3332,0.079 0.6182,0.221 L10.5132,5.157 L10.5132,26.797 C10.5132,27.115 10.1802,27.322 9.8962,27.18" id="Fill-8" fill="#03ff21"></path>
            </g>
        </g>
    </g>
</svg>