<?xml version="1.0" encoding="UTF-8"?>
<svg width="27px" height="27px" viewBox="0 0 27 27" version="1.1" xmlns="http://www.w3.org/2000/svg" xmlns:xlink="http://www.w3.org/1999/xlink">
    <!-- Generator: sketchtool 47.1 (45422) - http://www.bohemiancoding.com/sketch -->
    <title>47F38AB7-EBF5-44B9-84D3-A72B807FB546</title>
    <desc>Created with sketchtool.</desc>
    <defs></defs>
    <g id="Symbols" stroke="none" stroke-width="1" fill="none" fill-rule="evenodd">
        <g id="Socials/Light" transform="translate(0.000000, -42.000000)" fill="#03ff21">
            <path d="M20.1334458,50.6433259 L17.9191627,61.0792609 C17.763757,61.8206548 17.3153573,61.997837 16.6947245,61.6553507 L13.321333,59.1629211 L11.699967,60.7397441 C11.5118965,60.9228654 11.3634197,61.0782711 11.0248928,61.0782711 C10.5873813,61.0782711 10.6626095,60.912967 10.5111633,60.4962423 L9.36393298,56.718994 L6.02716574,55.6776772 C5.30655864,55.4569417 5.30160941,54.9620193 6.18851047,54.6056751 L19.1930931,49.5921106 C19.7860102,49.3218829 20.3601202,49.7346482 20.1334458,50.6433259 M13.5004949,42 C20.9560069,42 27,48.0439931 27,55.4995051 C27,62.955017 20.9560069,69 13.5004949,69 C6.04498295,69 0,62.955017 0,55.4995051 C0,48.0439931 6.04498295,42 13.5004949,42 Z M9.89844924,56.7421981 L10.9961873,60.5441925 C11.0328115,60.6738621 11.2189024,60.6669332 11.246618,60.5362737 L11.910804,57.4390489 L17.4964989,52.1602059 C17.6301279,52.0344956 17.4658137,51.8246485 17.3113979,51.9246229 L9.89844924,56.7421981 Z" id="telegram-icon"></path>
        </g>
    </g>
</svg>