<?xml version="1.0" encoding="UTF-8"?>
<svg width="34px" height="27px" viewBox="0 0 34 27" version="1.1" xmlns="http://www.w3.org/2000/svg" xmlns:xlink="http://www.w3.org/1999/xlink">
    <!-- Generator: sketchtool 47.1 (45422) - http://www.bohemiancoding.com/sketch -->
    <title>BE37439F-7BE8-45D8-9F0D-4312C23901FD</title>
    <desc>Created with sketchtool.</desc>
    <defs></defs>
    <g id="Symbols" stroke="none" stroke-width="1" fill="none" fill-rule="evenodd">
        <g id="Socials/Light" transform="translate(-58.000000, -42.000000)" fill="#8E8E8E">
            <path d="M92,45.1962093 C90.7499702,45.7376544 89.4037064,46.1038971 87.9936241,46.2692012 C89.4340961,45.4258533 90.5402813,44.0895626 91.0599452,42.497892 C89.7126683,43.2788796 88.2205339,43.8470506 86.6311524,44.1519229 C85.3588368,42.8275104 83.5455846,42 81.5398641,42 C77.6874628,42 74.5634013,45.0516919 74.5634013,48.8160721 C74.5634013,49.3505884 74.6262066,49.870257 74.7447265,50.3691388 C68.9473841,50.0850533 63.8074723,47.3708986 60.3663449,43.2472046 C59.7666547,44.2538769 59.4222381,45.4248634 59.4222381,46.6740477 C59.4222381,49.0387873 60.6540341,51.1253804 62.5250268,52.3478388 C61.381361,52.3122044 60.3065785,52.0053525 59.3655107,51.4955824 L59.3655107,51.580709 C59.3655107,54.8838215 61.7693362,57.6375701 64.961268,58.264142 C64.3747468,58.4205374 63.7588488,58.5036844 63.122691,58.5036844 C62.6739364,58.5036844 62.2363246,58.4611211 61.8108688,58.3809437 C62.6982481,61.0891594 65.274282,63.0599406 68.3274342,63.1153719 C65.9388035,64.9426257 62.9322488,66.0324449 59.6633298,66.0324449 C59.1001073,66.0324449 58.5460017,66.0007699 58,65.9374198 C61.0865809,67.8715768 64.7536051,69 68.6921106,69 C81.5226433,69 88.5396258,58.6135572 88.5396258,49.6059684 C88.5396258,49.3109946 88.5325349,49.0170107 88.518353,48.7240166 C89.8818377,47.763867 91.0650101,46.5631851 92,45.1962093" id="twitter-icon"></path>
        </g>
    </g>
</svg>