<?xml version="1.0" encoding="UTF-8"?>
<svg width="80px" height="56px" viewBox="0 0 80 56" version="1.1" xmlns="http://www.w3.org/2000/svg" xmlns:xlink="http://www.w3.org/1999/xlink">
    <title>Win Win</title>
    <desc>Win Win solutions</desc>
    <defs></defs>
    <g id="Layout" stroke="none" stroke-width="1" fill="none" fill-rule="evenodd">
        <g id="18-screen---contacts" transform="translate(-244.000000, -981.000000)" fill-rule="nonzero">
            <g id="Copy" transform="translate(136.000000, 981.000000)">
                <g id="winwin-logo-01" transform="translate(108.000000, 0.000000)">
                    <polygon id="Shape" fill="#E62243" points="80 48.5639344 0 56 0 7.43606557 80 0"></polygon>
                    <g id="Group" transform="translate(11.000000, 16.000000)" fill="#FFFFFF">
                        <path d="M18.8190476,15.12 C18.3666667,15.39 18.0952381,15.75 17.6428571,15.93 C16.3761905,16.65 15.2904762,16.2 15.1095238,14.58 C15.0190476,13.95 15.4714286,13.41 15.5619048,12.87 C15.8333333,11.88 16.5571429,11.07 17.0095238,10.17 C17.3714286,9.54 17.8238095,9 18.3666667,8.46 C18.547619,8.28 18.8190476,8.1 19,8.1 C19.3619048,8.19 19.8142857,8.73 19.7238095,9.09 C19.6333333,9.36 19.5428571,9.72 19.452381,9.99 C18.9095238,10.89 18.2761905,11.88 17.7333333,12.78 C17.4619048,13.23 17.1904762,13.77 17.0095238,14.31 C16.9190476,14.4 17.0095238,14.58 17.0095238,14.85 C17.4619048,14.58 17.8238095,14.49 18.0952381,14.22 C19.5428571,12.78 20.9,11.25 21.9857143,9.45 C22.1666667,9.09 22.4380952,8.73 22.6190476,8.37 C22.8,8.01 23.0714286,7.92 23.4333333,8.1 C23.8857143,8.37 24.247619,8.73 24.0666667,9.18 C23.7952381,9.72 23.5238095,10.17 23.252381,10.71 C23.0714286,11.07 22.8904762,11.34 22.7095238,11.7 C22.8,11.79 23.1619048,11.52 23.3428571,11.34 C24.0666667,10.62 24.7904762,9.81 25.6047619,9.18 C25.9666667,8.82 26.5095238,8.55 26.9619048,8.37 C27.2333333,8.28 27.6857143,8.55 27.9571429,8.73 C28.2285714,8.91 28.3190476,9.27 28.1380952,9.63 C27.8666667,10.17 27.5047619,10.71 27.1428571,11.25 C26.6904762,11.97 26.2380952,12.69 25.8761905,13.41 C25.7857143,13.68 25.6952381,13.95 25.6047619,14.22 C25.6047619,14.22 25.6952381,14.31 25.6952381,14.31 C25.8761905,14.22 26.0571429,14.22 26.2380952,14.13 C27.5952381,13.14 28.8619048,12.06 29.5857143,10.53 C30.0380952,9.63 30.4,8.73 30.852381,7.83 C30.9428571,7.65 31.0333333,7.47 31.2142857,7.38 C31.3047619,7.29 31.3952381,7.29 31.3952381,7.2 C31.6666667,5.67 32.4809524,4.32 33.2047619,2.88 C33.4761905,2.25 33.8380952,1.71 34.1095238,1.17 C34.1095238,1.08 34.2,0.99 34.2904762,0.99 C34.652381,1.08 35.0142857,1.17 35.2857143,1.35 C35.4666667,1.44 35.5571429,1.89 35.4666667,2.07 C35.0142857,3.42 34.5619048,4.77 34.0190476,6.12 C33.4761905,7.47 32.9333333,8.73 32.3,10.08 C31.9380952,10.98 31.4857143,11.79 31.1238095,12.69 C30.7619048,12.6 30.7619048,12.78 30.6714286,12.96 C30.6714286,12.96 30.7619048,12.96 30.7619048,13.05 C30.9428571,12.87 31.0333333,12.69 31.2142857,12.51 C33.3857143,9.45 35.5571429,6.3 38.0904762,3.42 C38.7238095,2.7 39.6285714,2.7 40.2619048,3.51 C40.4428571,3.69 40.352381,4.14 40.2619048,4.41 C39.6285714,6.21 38.9952381,8.01 38.2714286,9.81 C38,10.62 37.7285714,11.43 37.4571429,12.33 C37.3666667,12.51 37.3666667,12.78 37.2761905,12.96 C37.2761905,12.96 37.3666667,13.05 37.3666667,13.05 C37.4571429,12.96 37.547619,12.87 37.6380952,12.69 C38.3619048,11.61 38.9952381,10.53 39.7190476,9.54 C40.1714286,8.91 40.6238095,8.19 40.9857143,7.47 C41.1666667,6.93 41.6190476,6.48 41.9809524,6.03 C42.7047619,5.04 43.5190476,3.96 44.3333333,2.97 C44.4238095,2.88 44.4238095,2.79 44.5142857,2.61 C44.6952381,2.25 44.8761905,1.89 45.3285714,1.8 C45.6,1.71 45.8714286,1.44 46.2333333,1.26 C46.6857143,0.9 47.2285714,0.99 47.5904762,1.35 C47.7714286,1.62 47.8619048,1.89 47.5904762,2.07 C45.9619048,3.87 44.7857143,5.94 43.3380952,7.92 C42.5238095,9 41.8904762,10.26 41.1666667,11.34 C40.2619048,12.69 39.3571429,13.95 38.5428571,15.3 C38.2714286,15.66 38.0904762,16.02 37.9095238,16.38 C37.4571429,17.19 36.7333333,17.37 35.9190476,16.92 C34.5619048,16.2 34.7428571,14.76 35.0142857,13.68 C35.1047619,13.23 35.1952381,12.78 35.2857143,12.33 C35.3761905,12.06 35.3761905,11.88 35.3761905,11.61 C35.5571429,10.98 35.8285714,10.35 36.0095238,9.63 C36.1904762,9.09 36.3714286,8.55 36.552381,8.01 C36.4619048,8.1 36.2809524,8.28 36.1904762,8.37 C35.8285714,8.82 35.4666667,9.18 35.1952381,9.72 C33.9285714,11.61 32.5714286,13.59 31.3047619,15.57 C31.0333333,16.02 30.6714286,16.47 30.3095238,16.92 C30.2190476,17.01 30.1285714,17.1 29.947619,17.19 C29.0428571,17.55 27.5952381,16.74 27.5952381,15.75 C27.5952381,15.57 27.6857143,15.39 27.6857143,15.12 C27.7761905,14.85 27.8666667,14.58 27.7761905,14.22 C27.5047619,14.49 27.1428571,14.76 26.8714286,15.03 C26.6,15.21 26.3285714,15.39 26.0571429,15.57 C24.6095238,16.38 23.3428571,15.84 23.4333333,14.4 C23.4333333,14.04 24.0666667,12.15 24.3380952,11.25 C24.0666667,11.43 23.8857143,11.52 23.7952381,11.7 C22.6190476,12.96 21.4428571,14.31 20.2666667,15.57 C20.0857143,15.75 19.6333333,16.11 19.5428571,16.11 C19.1809524,15.93 19,15.57 18.7285714,15.3 C18.8190476,15.3 18.8190476,15.21 18.8190476,15.12 Z" id="Shape"></path>
                        <path d="M10.4047619,12.96 C10.4952381,12.87 10.5857143,12.78 10.6761905,12.69 C11.3095238,11.7 12.0333333,10.62 12.6666667,9.54 C12.9380952,9.09 13.3,8.55 13.6619048,8.1 C14.1142857,7.38 14.6571429,6.66 15.0190476,5.85 C15.4714286,4.86 16.1952381,4.14 16.9190476,3.33 C17.1,3.06 17.2809524,2.79 17.4619048,2.52 C17.6428571,2.16 17.8238095,1.89 18.2761905,1.71 C18.547619,1.62 18.8190476,1.35 19.1809524,1.17 C19.6333333,0.81 20.1761905,0.9 20.5380952,1.26 C20.7190476,1.53 20.8095238,1.8 20.5380952,1.98 C18.9095238,3.78 17.7333333,5.85 16.2857143,7.83 C15.4714286,8.91 14.8380952,10.17 14.1142857,11.25 C13.2095238,12.6 12.3047619,13.95 11.4,15.3 C11.2190476,15.66 10.947619,15.93 10.7666667,16.29 C10.3142857,17.1 9.59047619,17.28 8.77619048,16.83 C7.41904762,16.11 7.6,14.67 7.87142857,13.59 C7.96190476,13.14 8.05238095,12.69 8.14285714,12.24 C8.23333333,11.97 8.23333333,11.79 8.23333333,11.52 C8.41428571,10.89 8.68571429,10.26 8.86666667,9.54 C9.04761905,9 9.22857143,8.46 9.40952381,7.92 C9.31904762,8.01 9.13809524,8.19 9.04761905,8.28 C8.68571429,8.73 8.32380952,9.09 8.05238095,9.63 C6.78571429,11.52 5.42857143,13.5 4.16190476,15.48 C3.89047619,15.93 3.52857143,16.38 3.16666667,16.83 C3.07619048,16.92 3.07619048,17.01 2.98571429,17.01 C2.44285714,17.28 1.9,17.19 1.35714286,16.83 C0.814285714,16.47 0.452380952,16.02 0.542857143,15.3 C0.633333333,14.76 0.723809524,14.31 0.904761905,13.86 C1.44761905,12.51 2.08095238,11.07 2.62380952,9.72 C2.62380952,9.72 2.71428571,9.63 2.71428571,9.63 C2.71428571,9.63 3.16666667,8.19 3.52857143,7.56 C3.89047619,7.02 3.98095238,6.39 4.25238095,5.85 C4.52380952,5.31 4.7952381,4.68 5.06666667,4.14 C5.42857143,3.51 5.7,2.79 6.06190476,2.16 C6.33333333,1.71 6.51428571,1.26 6.78571429,0.9 C6.78571429,0.81 6.87619048,0.72 6.96666667,0.72 C7.32857143,0.81 7.69047619,0.9 7.96190476,1.08 C8.14285714,1.17 8.23333333,1.62 8.14285714,1.8 C7.69047619,3.15 7.23809524,4.5 6.6952381,5.85 C6.24285714,7.11 5.60952381,8.28 5.06666667,9.54 C4.61428571,10.53 4.16190476,11.52 3.70952381,12.51 C3.61904762,12.6 3.61904762,12.78 3.61904762,12.87 C3.61904762,12.87 3.70952381,12.87 3.70952381,12.96 C3.89047619,12.78 3.98095238,12.6 4.16190476,12.42 C6.33333333,9.36 8.5047619,6.21 11.0380952,3.33 C11.6714286,2.61 12.5761905,2.61 13.2095238,3.42 C13.3904762,3.6 13.3,4.05 13.2095238,4.32 C12.5761905,6.12 11.9428571,7.92 11.2190476,9.72 C10.947619,10.53 10.6761905,11.34 10.4047619,12.24 C10.3142857,12.42 10.3142857,12.69 10.2238095,12.87 C10.4047619,12.87 10.4047619,12.96 10.4047619,12.96 Z" id="Shape"></path>
                        <path d="M52.2047619,14.22 C52.9285714,14.13 53.3809524,13.77 53.8333333,13.41 C54.7380952,12.42 55.6428571,11.43 56.547619,10.53 C56.6380952,10.44 56.7285714,10.35 56.9095238,10.17 C57,10.8 57.0904762,11.43 56.7285714,11.88 C55.8238095,13.23 54.7380952,14.58 53.2904762,15.48 C53.0190476,15.66 52.8380952,15.75 52.5666667,15.84 C51.5714286,16.2 51.1190476,15.93 50.6666667,15.03 C50.2142857,14.22 51.1190476,12.15 51.3904762,11.34 C51.1190476,11.52 51.0285714,11.61 50.847619,11.7 C49.6714286,12.96 48.5857143,14.22 47.4095238,15.48 C47.1380952,15.75 46.7761905,16.11 46.5952381,16.11 C46.1428571,16.02 45.7809524,15.66 45.7809524,15.03 C45.6,15.12 45.5095238,15.21 45.4190476,15.3 C45.147619,15.48 44.8761905,15.75 44.6047619,15.84 C43.3380952,16.56 42.1619048,16.11 42.0714286,14.49 C42.0714286,14.04 42.3428571,13.5 42.4333333,12.96 C42.7047619,11.88 43.4285714,10.98 43.9714286,9.99 C44.3333333,9.36 44.7857143,8.82 45.2380952,8.28 C45.4190476,8.1 45.7809524,7.83 45.9619048,7.92 C46.3238095,8.1 46.7761905,8.37 46.6857143,9 C46.5952381,9.27 46.5047619,9.54 46.4142857,9.81 C45.8714286,10.71 45.2380952,11.7 44.6952381,12.6 C44.4238095,13.05 44.152381,13.59 43.9714286,14.13 C43.8809524,14.22 43.9714286,14.4 43.8809524,14.67 C44.3333333,14.4 44.6952381,14.22 44.9666667,13.95 C46.1428571,12.6 47.3190476,11.25 48.4047619,9.81 C48.7666667,9.27 49.1285714,8.73 49.4904762,8.19 C49.6714286,7.83 49.9428571,7.65 50.3047619,7.92 C50.847619,8.19 51.0285714,8.55 50.847619,9 C50.5761905,9.54 50.3047619,9.99 50.0333333,10.44 C49.852381,10.8 49.6714286,11.07 49.4904762,11.43 C49.4904762,11.43 49.5809524,11.52 49.5809524,11.52 C49.7619048,11.34 49.9428571,11.25 50.0333333,11.07 C50.7571429,10.35 51.4809524,9.63 52.2952381,8.91 C52.6571429,8.55 53.2,8.28 53.7428571,8.1 C54.0142857,8.01 54.4666667,8.19 54.647619,8.46 C54.8285714,8.64 54.9190476,9 54.9190476,9.27 C54.9190476,9.45 54.7380952,9.72 54.5571429,9.9 C53.9238095,10.98 53.2904762,11.97 52.6571429,13.05 C52.4761905,13.5 52.3857143,13.77 52.2047619,14.22 Z" id="Shape"></path>
                        <path d="M22.8,3.87 C22.8,4.5 21.9857143,5.67 21.352381,5.94 C20.9904762,6.12 20.7190476,5.94 20.5380952,5.67 C19.9952381,4.86 20.447619,3.6 21.6238095,3.15 C22.347619,2.7 22.8,3.06 22.8,3.87 Z" id="Shape"></path>
                        <path d="M47.2285714,4.77 C47.2285714,3.87 48.2238095,2.88 49.0380952,2.88 C49.2190476,2.88 49.4,3.06 49.4904762,3.15 C49.5809524,3.51 49.7619048,3.87 49.5809524,4.14 C49.4,4.59 49.0380952,5.13 48.6761905,5.49 C48.0428571,6.12 47.4095238,5.94 47.1380952,5.04 C47.3190476,4.95 47.3190476,4.86 47.2285714,4.77 Z" id="Shape"></path>
                    </g>
                    <g id="Group" transform="translate(12.000000, 37.000000)" fill="#FFFFFF">
                        <path d="M1.56065574,0.7 C2.01967213,0.7 2.5704918,0.8 2.93770492,1.1 L2.93770492,2 C2.5704918,1.7 2.11147541,1.6 1.65245902,1.6 C1.19344262,1.6 0.918032787,1.7 0.918032787,2 C0.918032787,2.8 3.21311475,2.5 3.21311475,4.1 C3.21311475,5.1 2.47868852,5.5 1.56065574,5.5 C1.00983607,5.5 0.459016393,5.3 0,5.1 L0,4.2 C0.459016393,4.5 1.00983607,4.7 1.46885246,4.7 C1.92786885,4.7 2.29508197,4.6 2.29508197,4.3 C2.29508197,3.4 0,3.8 0,2.1 C0,1.1 0.73442623,0.7 1.56065574,0.7 Z" id="Shape"></path>
                        <path d="M8.44590164,0.7 C9.9147541,0.7 10.7409836,1.8 10.7409836,3.1 C10.7409836,4.4 10.0065574,5.5 8.44590164,5.5 C6.97704918,5.5 6.15081967,4.4 6.15081967,3.1 C6.15081967,1.8 6.97704918,0.7 8.44590164,0.7 Z M8.44590164,1.6 C7.52786885,1.6 7.16065574,2.3 7.16065574,3.1 C7.16065574,3.9 7.61967213,4.6 8.44590164,4.6 C9.36393443,4.6 9.73114754,3.9 9.73114754,3.1 C9.73114754,2.3 9.36393443,1.6 8.44590164,1.6 Z" id="Shape"></path>
                        <polygon id="Shape" points="14.8721311 0.8 14.8721311 4.5 16.9836066 4.5 16.9836066 5.4 13.9540984 5.4 13.9540984 0.8"></polygon>
                        <path d="M23.6852459,0.8 L23.6852459,3.7 C23.6852459,5.1 22.7672131,5.5 21.8491803,5.5 C20.9311475,5.5 20.0131148,5 20.0131148,3.7 L20.0131148,0.8 L20.9311475,0.8 L20.9311475,3.6 C20.9311475,4.3 21.2983607,4.6 21.8491803,4.6 C22.4,4.6 22.7672131,4.3 22.7672131,3.6 L22.7672131,0.8 L23.6852459,0.8 Z" id="Shape"></path>
                        <polygon id="Shape" points="30.295082 0.8 30.295082 1.7 29.0098361 1.7 29.0098361 5.4 28.0918033 5.4 28.0918033 1.7 26.8065574 1.7 26.8065574 0.8"></polygon>
                        <polygon id="Shape" points="34.3344262 0.8 34.3344262 5.4 33.4163934 5.4 33.4163934 0.8"></polygon>
                        <path d="M39.842623,0.7 C41.3114754,0.7 42.1377049,1.8 42.1377049,3.1 C42.1377049,4.4 41.4032787,5.5 39.842623,5.5 C38.3737705,5.5 37.547541,4.4 37.547541,3.1 C37.547541,1.8 38.3737705,0.7 39.842623,0.7 Z M39.842623,1.6 C38.9245902,1.6 38.557377,2.3 38.557377,3.1 C38.557377,3.9 39.0163934,4.6 39.842623,4.6 C40.7606557,4.6 41.1278689,3.9 41.1278689,3.1 C41.1278689,2.3 40.7606557,1.6 39.842623,1.6 Z" id="Shape"></path>
                        <path d="M45.3508197,5.4 L45.3508197,0.8 L46.1770492,0.8 L48.1967213,3.8 C48.1967213,3.6 48.1967213,3.4 48.1967213,3.2 L48.1967213,0.8 L49.1147541,0.8 L49.1147541,5.4 L48.2885246,5.4 L46.2688525,2.4 C46.2688525,2.6 46.2688525,2.8 46.2688525,3 L46.2688525,5.4 L45.3508197,5.4 Z" id="Shape"></path>
                        <path d="M53.9803279,0.7 C54.4393443,0.7 54.9901639,0.8 55.357377,1.1 L55.357377,2 C54.9901639,1.7 54.5311475,1.6 54.0721311,1.6 C53.6131148,1.6 53.3377049,1.7 53.3377049,2 C53.3377049,2.8 55.6327869,2.5 55.6327869,4.1 C55.6327869,5.1 54.8983607,5.5 53.9803279,5.5 C53.4295082,5.5 52.8786885,5.3 52.4196721,5.1 L52.4196721,4.2 C52.8786885,4.5 53.4295082,4.7 53.8885246,4.7 C54.347541,4.7 54.7147541,4.6 54.7147541,4.3 C54.7147541,3.4 52.4196721,3.8 52.4196721,2.1 C52.4196721,1.1 53.1540984,0.7 53.9803279,0.7 Z" id="Shape"></path>
                    </g>
                </g>
            </g>
        </g>
    </g>
</svg>