<?xml version="1.0" encoding="UTF-8"?>
<svg width="146px" height="106px" viewBox="0 0 146 106" version="1.1" xmlns="http://www.w3.org/2000/svg" xmlns:xlink="http://www.w3.org/1999/xlink">
    <!-- Generator: sketchtool 48.1 (47250) - http://www.bohemiancoding.com/sketch -->
    <title>7685956E-3C0E-4B08-ABE0-E81C19A90113</title>
    <desc>Created with sketchtool.</desc>
    <defs></defs>
    <g id="6-screen---Why-VX-token" stroke="none" stroke-width="1" fill="none" fill-rule="evenodd" transform="translate(-994.000000, -417.000000)" stroke-linecap="round" stroke-linejoin="round">
        <g id="Page-1" transform="translate(995.000000, 418.000000)" stroke-width="2.835">
            <path d="M77.3679,12.2739 C77.3679,12.2739 77.7859,16.4839 83.6259,17.6499 C88.5339,18.6299 93.4159,16.0249 93.4159,16.0249" id="Stroke-1" stroke="#03FF21"></path>
            <path d="M103.469,20.4385 C71.076,-0.5485 28.932,24.3325 19.123,31.6325 C14.789,27.0695 5.191,25.3215 0.417,25.2455 C18.439,4.4855 90.982,-14.2205 118.356,17.0325" id="Stroke-3" stroke="#FFFFFF"></path>
            <path d="M74.6369,19.751 C54.3579,25.043 42.7509,33.793 30.7089,54.844 C23.0849,50.543 9.1209,51.249 1.7859,53.805 C5.4359,43.039 17.1009,33.055 19.1229,31.632" id="Stroke-5" stroke="#FFFFFF"></path>
            <path d="M31.6736,53.313 C28.0236,60.765 25.1866,69.348 26.2516,75.888 C33.7516,69.209 48.0846,67.98 54.5916,70.356 C55.5636,60.775 58.1316,48.969 67.1046,37.715 C67.1046,37.715 80.2046,21.675 103.3256,20.722" id="Stroke-7" stroke="#FFFFFF"></path>
            <path d="M54.6345,67.98 C53.7515,74.876 54.6345,93.709 62.4455,103.137 C64.6755,91.042 73.5845,80.543 85.1065,76.205" id="Stroke-9" stroke="#FFFFFF"></path>
            <path d="M81.4153,60.815 C90.5073,38.573 115.8853,37.319 125.5043,39.388 C136.3333,41.719 137.9753,48.513 137.9753,48.513 C143.6023,43.647 146.6433,32.241 134.6293,24.028 C122.6143,15.816 111.2083,14.143 95.6963,25.397 C80.1843,36.651 78.6463,64.634 84.7293,75.888" id="Stroke-11" stroke="#03FF21"></path>
            <path d="M69.2341,12.7945 C71.5741,17.7935 75.9631,24.9825 93.4161,22.1105" id="Stroke-13" stroke="#FFFFFF"></path>
            <path d="M85.1062,76.2046 C85.1062,55.9466 104.4222,41.0556 134.3282,43.3996" id="Stroke-15" stroke="#03FF21"></path>
        </g>
    </g>
</svg>