<?xml version="1.0" encoding="UTF-8"?>
<svg width="201px" height="78px" viewBox="0 0 201 78" version="1.1" xmlns="http://www.w3.org/2000/svg" xmlns:xlink="http://www.w3.org/1999/xlink">
    <!-- Generator: sketchtool 47.1 (45422) - http://www.bohemiancoding.com/sketch -->
    <title>86F5AFC6-EC87-42E5-95C5-70CEB48D50AA</title>
    <desc>Created with sketchtool.</desc>
    <defs></defs>
    <g id="Layout" stroke="none" stroke-width="1" fill="none" fill-rule="evenodd">
        <g id="6-screen---Why-VX-token" transform="translate(-137.000000, -717.000000)" stroke-width="2">
            <g id="$1-tn" transform="translate(138.000000, 718.000000)">
                <path d="M24.1704183,75.3 L24.1704183,65.8851064 C33.4625856,65.087234 40.8063952,60.6989362 40.8063952,49.6085106 C40.8063952,29.7414894 12.7050828,34.9276596 12.7050828,25.2734043 C12.7050828,21.8425532 15.5526824,20.1670213 21.2478818,20.087234 C27.0929547,20.0074468 33.0129646,21.6829787 37.4342377,25.0340426 L37.4342377,13.8638298 C33.9871434,11.7893617 29.1162492,10.3531915 24.1704183,9.87446809 L24.1704183,0.3 L16.0023034,0.3 L16.0023034,9.79468085 C7.53444131,10.9914894 1.23974733,16.0180851 1.23974733,25.4329787 C1.23974733,45.2202128 29.2661229,39.7148936 29.2661229,50.1670213 C29.2661229,54.156383 25.8939654,55.512766 19.7491451,55.512766 C13.7541985,55.512766 6.93494665,53.837234 0.94,49.6085106 L0.94,61.0180851 C5.13646265,63.5712766 10.4569778,65.2468085 16.0023034,65.8053191 L16.0023034,75.3 L24.1704183,75.3 Z" id="Path" stroke="#03FF21"></path>
                <polygon id="Path" stroke="#FFFFFF" points="72.0222961 10.6723404 59.6577186 15.6989362 59.6577186 26.4702128 69.2496333 22.6404255 69.2496333 54.6351064 59.6577186 54.6351064 59.6577186 64.9276596 88.7332099 64.9276596 88.7332099 54.6351064 80.1904109 54.6351064 80.1904109 10.6723404"></polygon>
                <polygon id="Path" stroke="#03FF21" points="104.62106 11 104.62106 21.2214286 119.910029 21.2214286 119.910029 64 130.505641 64 130.505641 21.2214286 145.79461 21.2214286 145.79461 11"></polygon>
                <path d="M166.202309,63 L166.202309,36.1828571 C166.202309,33.8057143 166.13254,31.2057143 165.993,29.0514286 L188.737942,63 L198.575478,63 L198.575478,11 L188.110014,11 L188.110014,37.8171429 C188.110014,40.1942857 188.179784,42.7942857 188.319323,44.9485714 L165.574381,11 L155.736845,11 L155.736845,63 L166.202309,63 Z" id="Path" stroke="#03FF21"></path>
            </g>
        </g>
    </g>
</svg>