<?xml version="1.0" encoding="UTF-8"?>
<svg width="97px" height="131px" viewBox="0 0 97 131" version="1.1" xmlns="http://www.w3.org/2000/svg" xmlns:xlink="http://www.w3.org/1999/xlink">
    <!-- Generator: sketchtool 48.1 (47250) - http://www.bohemiancoding.com/sketch -->
    <title>9F0C23BA-1E51-43ED-B3B0-6623943465B5</title>
    <desc>Created with sketchtool.</desc>
    <defs></defs>
    <g id="6-screen---Why-VX-token" stroke="none" stroke-width="1" fill="none" fill-rule="evenodd" transform="translate(-567.000000, -674.000000)">
        <g id="Page-1" transform="translate(568.000000, 675.000000)">
            <polyline id="Stroke-1" stroke="#00FF00" stroke-width="2.835" stroke-linecap="round" stroke-linejoin="round" points="61.9173 27.6669 92.6673 0.4169 70.1743 34.6109"></polyline>
            <path d="M85.8915,69.9452 C81.4175,73.4172 80.1675,74.1672 78.1675,74.4172 C76.1675,74.6672 72.2665,70.1672 71.7175,64.4172 C66.6675,64.1672 56.5525,65.9172 49.6095,54.6672" id="Stroke-3" stroke="#00FF00" stroke-width="2.835" stroke-linecap="round"></path>
            <path d="M49.4173,24.6669 C14.6673,24.1669 2.4173,63.4169 0.4173,75.6669 C17.6673,79.4169 41.9173,90.6049 55.9173,127.7609 C61.6673,120.1669 73.9173,101.6669 55.6673,74.9169 C56.1673,70.9169 57.7843,62.3759 57.7843,62.3759" id="Stroke-5" stroke="#00FF00" stroke-width="2.835" stroke-linecap="round" stroke-linejoin="round"></path>
            <path d="M49.1673,31.9169 C48.9173,27.6669 49.4173,17.9169 51.9173,10.4169 C57.9173,13.1669 61.1673,18.9169 61.9173,27.6669 C67.1673,32.1669 87.9173,49.1669 91.4173,53.6669 C94.9173,58.1669 93.9173,61.9169 92.6673,64.6669 C91.4173,67.4169 89.9173,70.9169 88.9173,71.6669 C87.9173,72.4169 82.9173,67.1669 82.1673,65.9169" id="Stroke-7" stroke="#FFFFFF" stroke-width="2.835" stroke-linecap="round" stroke-linejoin="round"></path>
            <path d="M65.2977,39.2504 C65.2977,40.5194 64.2697,41.5474 63.0007,41.5474 C61.7317,41.5474 60.7037,40.5194 60.7037,39.2504 C60.7037,37.9814 61.7317,36.9534 63.0007,36.9534 C64.2697,36.9534 65.2977,37.9814 65.2977,39.2504" id="Fill-9" fill="#00FF00"></path>
            <path d="M49.4173,24.6669 C49.4173,24.6669 31.4883,30.5839 22.0003,49.5839 C12.4973,68.6149 13.6003,79.8259 13.6003,79.8259" id="Stroke-11" stroke="#FFFFFF" stroke-width="2.835" stroke-linecap="round"></path>
        </g>
    </g>
</svg>