<?xml version="1.0" encoding="UTF-8"?>
<svg width="97px" height="97px" viewBox="0 0 97 97" version="1.1" xmlns="http://www.w3.org/2000/svg" xmlns:xlink="http://www.w3.org/1999/xlink">
    <!-- Generator: sketchtool 47.1 (45422) - http://www.bohemiancoding.com/sketch -->
    <title>712FE3F0-D513-4565-9C0E-4EA5516682F8</title>
    <desc>Created with sketchtool.</desc>
    <defs></defs>
    <g id="Layout" stroke="none" stroke-width="1" fill="none" fill-rule="evenodd" stroke-linecap="round" stroke-linejoin="round">
        <g id="6-screen---Why-VX-token" transform="translate(-993.000000, -700.000000)" stroke-width="2.835">
            <g id="Page-1" transform="translate(994.000000, 700.000000)">
                <path d="M31.3792,32.7611 L44.6362,45.6561" id="Stroke-1" stroke="#FFFFFF"></path>
                <path d="M50.242,51.6244 L80.919,81.9384" id="Stroke-2" stroke="#FFFFFF"></path>
                <g id="Group-11" transform="translate(0.000000, 0.949200)">
                    <path d="M50.8821,38.4906 L42.4691,30.0766 C40.6161,28.2236 39.7191,25.5916 40.0701,22.9976 C40.8501,17.0686 38.9581,10.8666 34.4141,6.3026 C29.7731,1.6616 23.4151,-0.2114 17.3881,0.6856 C16.4321,0.8226 16.0431,2.0116 16.7251,2.6946 L22.7521,8.7216 C25.6181,11.5886 25.6181,16.2296 22.7521,19.0776 L19.0461,22.7826 C16.1791,25.6496 11.5371,25.6496 8.6901,22.7826 L2.6441,16.7566 C1.9621,16.0736 0.7911,16.4636 0.6351,17.4196 C-0.2619,23.4466 1.6111,29.8036 6.2521,34.4456 C10.8161,38.9896 17.0181,40.8816 22.9461,40.1006 C25.5601,39.7506 28.1731,40.6476 30.0261,42.5006 L38.4291,50.9036" id="Stroke-3" stroke="#FFFFFF"></path>
                    <path d="M44.6365,57.1302 L75.0585,87.5522 C78.4905,90.9842 84.0495,90.9652 87.4815,87.5322 C90.9135,84.1002 90.9135,78.5412 87.5015,75.1092 L57.0985,44.7062" id="Stroke-5" stroke="#FFFFFF"></path>
                    <path d="M70.5921,30.4867 L82.2741,30.4867 L93.9561,7.1417 L88.1251,1.3107 L64.7601,12.9727 L64.7601,24.6547 L33.0101,56.3077 L27.2961,50.6137 L4.2821,73.6277 C-0.5149,78.4247 -0.5149,86.1867 4.2821,90.9847 C9.0801,95.7827 16.8421,95.7827 21.6401,90.9847 L44.6531,67.9707 L38.8221,62.1397 L70.5921,30.4867 Z" id="Stroke-7" stroke="#00FF00"></path>
                    <path d="M30.3289,65.0414 L13.0889,82.2814" id="Stroke-9" stroke="#00FF00"></path>
                </g>
            </g>
        </g>
    </g>
</svg>