<?xml version="1.0" encoding="UTF-8"?>
<svg width="133px" height="86px" viewBox="0 0 133 86" version="1.1" xmlns="http://www.w3.org/2000/svg" xmlns:xlink="http://www.w3.org/1999/xlink">
    <!-- Generator: sketchtool 47.1 (45422) - http://www.bohemiancoding.com/sketch -->
    <title>FF830F20-7AC0-4838-9448-DD7552698B8A</title>
    <desc>Created with sketchtool.</desc>
    <defs></defs>
    <g id="Layout" stroke="none" stroke-width="1" fill="none" fill-rule="evenodd">
        <g id="6-screen---Why-VX-token" transform="translate(-578.000000, -711.000000)">
            <g id="Page-1" transform="translate(579.000000, 712.000000)">
                <path d="M2.1163,0.4808 L24.2033,7.5728 C28.6783,9.0098 31.0093,13.9278 29.2883,18.3018 L16.7383,50.1998 C15.5133,53.3118 12.5093,55.3588 9.1643,55.3588 L1.7183,55.3588 C0.9993,55.3588 0.4173,54.7758 0.4173,54.0578 L0.4173,1.7188 C0.4173,0.8368 1.2763,0.2108 2.1163,0.4808 Z" id="Stroke-1" stroke="#00FF00" stroke-width="2.835" stroke-linecap="round" stroke-linejoin="round"></path>
                <path d="M29.3668,18.1019 L54.3708,16.3999" id="Stroke-3" stroke="#00FF00" stroke-width="2.835" stroke-linecap="round" stroke-linejoin="round"></path>
                <path d="M16.7726,50.1117 C16.7726,50.1117 44.6686,72.4117 50.4016,76.8227 C56.1346,81.2327 63.0446,86.0847 71.7176,81.9677 C74.0706,83.2907 82.1396,83.5257 83.4796,76.8227 C87.7426,77.1167 93.7226,76.7037 94.3576,70.8847 C98.6216,71.5297 106.1376,67.7037 103.1886,62.1187 C100.2386,56.5347 68.6306,30.9547 68.6306,30.9547" id="Stroke-5" stroke="#00FF00" stroke-width="2.835" stroke-linecap="round" stroke-linejoin="round"></path>
                <path d="M56.1349,66.5316 L71.7179,81.9686" id="Stroke-7" stroke="#00FF00" stroke-width="2.835" stroke-linecap="round" stroke-linejoin="round"></path>
                <path d="M65.2228,58.8549 L83.3028,76.7039" id="Stroke-9" stroke="#00FF00" stroke-width="2.835" stroke-linecap="round" stroke-linejoin="round"></path>
                <path d="M73.7599,50.2689 L94.4819,70.7949" id="Stroke-11" stroke="#00FF00" stroke-width="2.835" stroke-linecap="round" stroke-linejoin="round"></path>
                <path d="M102.9347,21.9896 C102.9347,21.9896 84.2137,15.2246 80.8327,13.9016 C77.4517,12.5776 68.1897,7.2366 58.7807,14.2446 C49.3717,21.2516 39.5027,31.8126 44.7407,36.9906 C49.9777,42.1686 58.7447,37.2946 59.6267,33.7066 C61.8957,33.9526 65.5377,33.4856 68.6307,30.9546" id="Stroke-13" stroke="#FFFFFF" stroke-width="2.835" stroke-linecap="round" stroke-linejoin="round"></path>
                <path d="M130.3756,7.2465 L130.3756,59.9995 C130.3756,60.6995 129.8086,61.2675 129.1086,61.2675 L123.1076,61.2675 C119.4356,61.2675 116.1526,58.9795 114.8806,55.5355 L103.4706,24.6515 C101.7896,20.0985 104.1246,15.0445 108.6826,13.3765 L128.6726,6.0565 C129.4996,5.7535 130.3756,6.3655 130.3756,7.2465 Z" id="Stroke-15" stroke="#FFFFFF" stroke-width="2.835" stroke-linecap="round" stroke-linejoin="round"></path>
                <path d="M114.8805,55.5355 L103.8565,61.8755" id="Stroke-17" stroke="#FFFFFF" stroke-width="2.835" stroke-linecap="round" stroke-linejoin="round"></path>
                <path d="M14.672,17.2513 C14.672,18.7073 13.491,19.8883 12.035,19.8883 C10.579,19.8883 9.398,18.7073 9.398,17.2513 C9.398,15.7943 10.579,14.6143 12.035,14.6143 C13.491,14.6143 14.672,15.7943 14.672,17.2513" id="Fill-19" fill="#FFFFFF"></path>
                <path d="M121.2462,21.8309 C121.2462,23.2879 120.0652,24.4679 118.6092,24.4679 C117.1532,24.4679 115.9732,23.2879 115.9732,21.8309 C115.9732,20.3749 117.1532,19.1939 118.6092,19.1939 C120.0652,19.1939 121.2462,20.3749 121.2462,21.8309" id="Fill-21" fill="#00FF00"></path>
            </g>
        </g>
    </g>
</svg>