<?xml version="1.0" encoding="UTF-8"?>
<svg width="80px" height="120px" viewBox="0 0 80 120" version="1.1" xmlns="http://www.w3.org/2000/svg" xmlns:xlink="http://www.w3.org/1999/xlink">
    <!-- Generator: sketchtool 48.1 (47250) - http://www.bohemiancoding.com/sketch -->
    <title>7A5B6A8D-BCAF-4FCF-BCDE-1E371ED09DE6</title>
    <desc>Created with sketchtool.</desc>
    <defs></defs>
    <g id="6-screen---Why-VX-token" stroke="none" stroke-width="1" fill="none" fill-rule="evenodd" transform="translate(-994.000000, -674.000000)" stroke-linecap="round" stroke-linejoin="round">
        <g id="Page-1" transform="translate(995.000000, 675.000000)" stroke-width="2.835">
            <path d="M58.7611,117.5428 L18.7171,117.5428 C8.6111,117.5428 0.4171,109.3498 0.4171,99.2428 L0.4171,54.8638 L77.0611,54.8638 L77.0611,99.2428 C77.0611,109.3498 68.8671,117.5428 58.7611,117.5428 Z" id="Stroke-1" stroke="#FFFFFF"></path>
            <path d="M16.974,54.864 L8.968,43.118 C0.471,30.654 3.688,13.661 16.153,5.165 C28.617,-3.332 45.609,-0.115 54.106,12.349 L66.43,30.429 L57.244,36.691 L44.948,18.652 C39.91,11.261 29.833,9.354 22.442,14.392 C15.051,19.43 13.144,29.506 18.182,36.897 L30.479,54.936" id="Stroke-3" stroke="#FFFFFF"></path>
            <polyline id="Stroke-5" stroke="#03FF21" points="25.0189 116.1258 25.0189 100.5348 18.3049 93.8208"></polyline>
            <polyline id="Stroke-7" stroke="#03FF21" points="33.9076 116.1258 33.9076 81.5328 27.2816 74.9068"></polyline>
            <polyline id="Stroke-9" stroke="#03FF21" points="43.6136 116.1258 43.6136 92.2428 50.2916 85.5648"></polyline>
            <polyline id="Stroke-11" stroke="#03FF21" points="52.3158 116.1258 52.3158 109.0278 58.3968 102.9458"></polyline>
            <path d="M19.7962,90.3387 C19.7962,93.0037 17.6362,95.1637 14.9712,95.1637 C12.3062,95.1637 10.1452,93.0037 10.1452,90.3387 C10.1452,87.6737 12.3062,85.5137 14.9712,85.5137 C17.6362,85.5137 19.7962,87.6737 19.7962,90.3387 Z" id="Stroke-13" stroke="#03FF21"></path>
            <path d="M28.7289,71.4656 C28.7289,74.1306 26.5679,76.2906 23.9029,76.2906 C21.2379,76.2906 19.0779,74.1306 19.0779,71.4656 C19.0779,68.7996 21.2379,66.6396 23.9029,66.6396 C26.5679,66.6396 28.7289,68.7996 28.7289,71.4656 Z" id="Stroke-15" stroke="#03FF21"></path>
            <path d="M58.2845,81.9314 C58.2845,84.5964 56.1245,86.7574 53.4595,86.7574 C50.7945,86.7574 48.6345,84.5964 48.6345,81.9314 C48.6345,79.2664 50.7945,77.1064 53.4595,77.1064 C56.1245,77.1064 58.2845,79.2664 58.2845,81.9314 Z" id="Stroke-17" stroke="#03FF21"></path>
            <path d="M66.6634,99.5652 C66.6634,102.2302 64.5034,104.3912 61.8384,104.3912 C59.1734,104.3912 57.0124,102.2302 57.0124,99.5652 C57.0124,96.9002 59.1734,94.7402 61.8384,94.7402 C64.5034,94.7402 66.6634,96.9002 66.6634,99.5652 Z" id="Stroke-19" stroke="#03FF21"></path>
        </g>
    </g>
</svg>