<?xml version="1.0" encoding="UTF-8"?>
<svg width="112px" height="111px" viewBox="0 0 112 111" version="1.1" xmlns="http://www.w3.org/2000/svg" xmlns:xlink="http://www.w3.org/1999/xlink">
    <!-- Generator: sketchtool 47.1 (45422) - http://www.bohemiancoding.com/sketch -->
    <title>87DD1793-7B53-4814-B5E9-4E78F47C54B9</title>
    <desc>Created with sketchtool.</desc>
    <defs></defs>
    <g id="Layout" stroke="none" stroke-width="1" fill="none" fill-rule="evenodd">
        <g id="6-screen---Why-VX-token" transform="translate(-138.000000, -411.000000)" stroke-width="2.835">
            <g id="Page-1" transform="translate(139.000000, 412.000000)">
                <path d="M52.3643,63.272 L32.2333,89.064 C26.8573,95.951 20.6973,100.973 16.0513,102.134 C8.5513,104.009 2.0983,101.135 2.7013,92.771" id="Stroke-1" stroke="#FFFFFF"></path>
                <path d="M47.6275,59.9414 C47.6275,59.9414 40.2595,66.9834 27.4285,82.9944 C17.9285,94.8494 7.2195,104.8404 2.9745,94.7554 C0.5885,89.0854 14.4965,80.1154 19.4325,76.2634 L45.2235,56.1314" id="Stroke-3" stroke="#FFFFFF"></path>
                <path d="M54.9053,45.7954 L75.0373,20.0044 C80.4123,13.1174 86.5723,8.0954 91.2183,6.9334 C98.7183,5.0584 105.3433,7.6094 104.7393,15.9744" id="Stroke-5" stroke="#FFFFFF"></path>
                <path d="M60.1402,48.6284 C60.1402,48.6284 67.0102,42.0844 79.8422,26.0734 C89.3422,14.2184 100.3032,3.9164 104.2952,14.3124 C106.5002,20.0544 92.7732,28.9524 87.8372,32.8044 L62.7092,52.4184" id="Stroke-7" stroke="#FFFFFF"></path>
                <path d="M3.4361,71.0147 C1.4971,65.5357 0.4351,59.6407 0.4171,53.4987 C0.4061,49.4377 0.8521,45.4827 1.7071,41.6817" id="Stroke-9" stroke="#FFFFFF" stroke-linecap="round"></path>
                <path d="M4.6251,32.6338 C9.8571,20.3428 19.6051,10.4338 31.7911,4.9928" id="Stroke-11" stroke="#00FF00" stroke-linecap="round"></path>
                <path d="M41.0963,1.8433 C44.9823,0.9223 49.0353,0.4293 53.2013,0.4183 C59.2363,0.4013 65.0383,1.3943 70.4463,3.2393" id="Stroke-13" stroke="#FFFFFF" stroke-linecap="round"></path>
                <path d="M19.8336,62.9268 C18.9916,59.9318 18.5376,56.7738 18.5286,53.5108 C18.5076,46.1078 20.7826,39.2328 24.6826,33.5618" id="Stroke-15" stroke="#FFFFFF" stroke-linecap="round"></path>
                <path d="M33.8062,24.4556 C39.4132,20.6156 46.1942,18.3606 53.5032,18.3396 C56.8762,18.3306 60.1402,18.7976 63.2302,19.6776" id="Stroke-17" stroke="#00FF00" stroke-linecap="round"></path>
                <path d="M106.2696,36.8599 C108.2716,42.3169 109.4036,48.1979 109.4916,54.3389 C109.5506,58.3999 109.1496,62.3599 108.3386,66.1709" id="Stroke-19" stroke="#00FF00" stroke-linecap="round"></path>
                <path d="M105.5264,75.252 C99.7964,89.157 88.3064,100.112 73.9884,105.1" id="Stroke-21" stroke="#FFFFFF" stroke-linecap="round" stroke-dasharray="39.968,9.516"></path>
                <path d="M69.4151,106.4634 C65.5401,107.4294 61.4931,107.9694 57.3271,108.0284 C51.2921,108.1154 45.4801,107.1904 40.0501,105.4074" id="Stroke-23" stroke="#FFFFFF" stroke-linecap="round"></path>
                <path d="M89.9718,45.1231 C90.8478,48.1081 91.3388,51.2601 91.3868,54.5221 C91.4918,61.8241 89.3578,68.6361 85.6208,74.3051" id="Stroke-25" stroke="#FFFFFF" stroke-linecap="round"></path>
                <path d="M76.1939,83.9287 C70.6799,87.7287 64.0199,89.9937 56.8219,90.0967 C53.4489,90.1457 50.1799,89.7167 47.0799,88.8717" id="Stroke-27" stroke="#00FF00" stroke-linecap="round"></path>
                <path d="M60.5255,48.0777 C64.1315,51.6837 64.1315,57.5297 60.5255,61.1357 C56.9195,64.7417 51.0725,64.7417 47.4665,61.1357 C43.8605,57.5297 43.8605,51.6837 47.4665,48.0777 C51.0725,44.4717 56.9195,44.4717 60.5255,48.0777 Z" id="Stroke-29" stroke="#00FF00"></path>
                <path d="M56.3751,52.2276 C57.6891,53.5416 57.6891,55.6716 56.3751,56.9856 C55.0611,58.2996 52.9311,58.2996 51.6171,56.9856 C50.3031,55.6716 50.3031,53.5416 51.6171,52.2276 C52.9311,50.9146 55.0611,50.9146 56.3751,52.2276 Z" id="Stroke-31" stroke="#00FF00"></path>
            </g>
        </g>
    </g>
</svg>