<?xml version="1.0" encoding="UTF-8"?>
<svg width="28px" height="28px" viewBox="0 0 28 28" version="1.1" xmlns="http://www.w3.org/2000/svg" xmlns:xlink="http://www.w3.org/1999/xlink">
    <!-- Generator: sketchtool 47.1 (45422) - http://www.bohemiancoding.com/sketch -->
    <title>490192CD-D345-4B9B-B4B2-C3A07B5DB16C</title>
    <desc>Created with sketchtool.</desc>
    <defs></defs>
    <g id="Symbols" stroke="none" stroke-width="1" fill="none" fill-rule="evenodd">
        <g id="Socials/Light" transform="translate(-182.000000, -42.000000)" fill="#8E8E8E">
            <path d="M195.4676,57.0393 C195.4666,56.9733 195.4096,56.8513 195.3726,56.8493 C195.0916,56.8333 194.8316,56.8403 194.5106,56.8403 L194.5106,57.0793 C194.5106,57.8643 194.5036,58.6483 194.5116,59.4333 C194.5126,59.6013 194.4396,59.6903 194.2996,59.7503 C193.9806,59.8893 193.7466,59.7533 193.7356,59.3873 C193.7126,58.6233 193.7126,57.8583 193.7026,57.0933 C193.7016,57.0163 193.7026,56.9393 193.7026,56.8353 C193.4266,56.8353 193.1776,56.8423 192.9286,56.8333 C192.7776,56.8273 192.7366,56.8893 192.7386,57.0313 C192.7506,57.8423 192.7346,58.6543 192.7766,59.4643 C192.7916,59.7613 192.8886,60.0813 193.0376,60.3383 C193.3466,60.8743 194.0316,60.8893 194.4146,60.4043 C194.4676,60.3393 194.5106,60.2673 194.5576,60.2003 C194.6236,60.3613 194.6456,60.5893 194.7596,60.6523 C194.9016,60.7313 195.1186,60.6673 195.3026,60.6773 C195.4356,60.6833 195.4746,60.6263 195.4726,60.5023 C195.4676,60.1523 195.4706,59.8033 195.4706,59.4543 C195.4706,58.6483 195.4736,57.8443 195.4676,57.0393 M192.4945,55.5159 C191.5715,55.5179 190.6505,55.5189 189.7275,55.5159 C189.6015,55.5159 189.5755,55.5719 189.5785,55.6839 C189.5845,55.8749 189.5985,56.0679 189.5835,56.2569 C189.5695,56.4349 189.6455,56.4869 189.8185,56.4779 C190.0845,56.4649 190.3405,56.4749 190.6615,56.4749 L190.6615,56.7439 L190.6615,59.9869 L190.6615,60.6729 C190.6615,60.6729 191.3035,60.6739 191.6235,60.6739 L191.6235,56.4739 C191.9445,56.4739 192.2095,56.4709 192.5035,56.4759 C192.6195,56.4779 192.6605,56.4429 192.6565,56.3189 C192.6485,56.1009 192.6495,55.8839 192.6555,55.6659 C192.6585,55.5539 192.6025,55.5159 192.4945,55.5159 M195.5863,52.3724 C195.8213,52.3624 195.9863,52.2444 196.0593,52.0204 C196.2293,51.4974 196.2323,50.9714 196.0583,50.4514 C195.9763,50.2044 195.8033,50.0904 195.5713,50.0904 C195.3423,50.0904 195.1643,50.2034 195.0903,50.4554 C195.0173,50.7044 194.9393,50.9884 194.9393,51.2314 C194.9393,51.4754 195.0183,51.7684 195.0933,52.0234 C195.1653,52.2674 195.3543,52.3824 195.5863,52.3724 M197.6742,59.4954 C197.6182,59.7404 197.4602,59.8244 197.1952,59.7874 C196.9802,59.7564 196.8742,59.6274 196.8742,59.3904 C196.8732,58.9744 196.8732,58.5594 196.8742,58.1444 C196.8752,57.9014 197.0102,57.7474 197.2472,57.7164 C197.4382,57.6904 197.6132,57.8044 197.6632,58.0294 C197.7192,58.2854 197.7252,59.2724 197.6742,59.4954 M198.3422,57.1954 C198.0832,56.7244 197.4292,56.6014 197.0772,57.0444 L197.0772,57.1174 C197.0772,57.1064 197.0262,57.1054 197.0332,57.0954 C197.0472,57.0754 197.0632,57.0624 197.0772,57.0444 L197.0772,55.2314 L196.2132,55.2314 C195.9512,55.2314 195.9162,55.1934 195.9162,55.4514 C195.9162,57.0344 195.9112,58.5984 195.9112,60.1814 C195.9112,60.6944 195.9092,60.6844 196.4312,60.6844 C196.7462,60.6844 196.7452,60.6804 196.8022,60.3684 C196.8042,60.3584 196.8202,60.3504 196.8582,60.3214 C196.8672,60.3414 196.8762,60.3674 196.8902,60.3894 C197.2592,60.9484 198.0452,60.8034 198.3442,60.3324 C198.4522,60.1624 198.5432,59.9724 198.5972,59.7784 C198.7502,59.2314 198.7742,58.6664 198.6682,58.1134 C198.6082,57.7964 198.4982,57.4774 198.3422,57.1954 M203.1727,59.5516 C203.1727,60.7096 202.2347,61.6476 201.0767,61.6476 L190.1907,61.6476 C189.0327,61.6476 188.0947,60.7096 188.0947,59.5516 L188.0947,56.3646 C188.0947,55.2076 189.0327,54.2686 190.1907,54.2686 L201.0767,54.2686 C202.2347,54.2686 203.1727,55.2076 203.1727,56.3646 L203.1727,59.5516 Z M190.7017,47.7576 C190.7467,47.7596 190.8067,47.8446 190.8297,47.9036 C191.0997,48.5816 191.3637,49.2636 191.6297,49.9436 C191.6557,50.0106 191.6837,50.0766 191.7267,50.1806 C192.0327,49.3996 192.3267,48.6596 192.6117,47.9156 C192.6587,47.7926 192.7137,47.7416 192.8517,47.7466 C193.1797,47.7576 193.5097,47.7506 193.8717,47.7506 C193.8387,47.8336 193.8157,47.8976 193.7877,47.9596 C193.3047,49.0336 192.8197,50.1086 192.3407,51.1846 C192.2947,51.2886 192.2707,51.4256 192.2687,51.5396 C192.2617,52.1186 192.2657,52.6646 192.2657,53.3066 L191.1677,53.3066 C191.1637,53.3066 191.1577,53.1566 191.1567,53.0876 C191.1567,52.5666 191.1637,52.0386 191.1517,51.5176 C191.1487,51.3656 191.1147,51.1996 191.0527,51.0606 C190.5957,50.0256 190.1277,48.9926 189.6627,47.9596 C189.6367,47.9006 189.6157,47.8386 189.5817,47.7526 C189.9697,47.7526 190.3367,47.7456 190.7017,47.7576 L190.7017,47.7576 Z M195.6307,49.0976 C196.2967,49.1166 196.7767,49.4336 197.0457,50.0356 C197.3787,50.7806 197.3807,51.5516 197.0987,52.3086 C196.8257,53.0426 196.2207,53.4156 195.4657,53.3656 C194.7087,53.3156 194.1637,52.8556 193.9647,52.0696 C193.8957,51.7976 193.8477,51.5306 193.8367,51.2336 C193.8547,50.7946 193.9207,50.3736 194.1217,49.9836 C194.4367,49.3716 194.9437,49.0786 195.6307,49.0976 L195.6307,49.0976 Z M197.9177,49.2226 C197.9177,49.2046 197.9277,49.1356 197.9357,49.1356 L199.0027,49.1356 L199.0027,49.4046 C199.0027,50.0776 199.0107,50.7506 199.0127,51.4236 C199.0127,51.5816 199.0177,51.7406 199.0367,51.8976 C199.0577,52.0746 199.0937,52.2616 199.2887,52.3376 C199.5027,52.4206 199.7117,52.3696 199.8837,52.2316 C199.9427,52.1856 199.9697,52.0766 199.9697,51.9966 C199.9767,51.1386 199.9647,50.2816 199.9647,49.4236 L199.9647,49.1356 L201.2477,49.1356 L201.2477,53.2906 C200.9267,53.2906 200.6337,53.2946 200.3727,53.2846 C200.3347,53.2836 200.2377,53.2216 200.2247,53.1776 C200.1817,53.0356 200.1337,52.8886 200.0927,52.7106 C200.0267,52.8046 199.9737,52.8686 199.9287,52.9296 C199.4697,53.5536 198.5607,53.5206 198.1947,52.8396 C198.0497,52.5696 197.9537,52.2306 197.9417,51.9256 C197.9057,51.0296 197.9207,50.1196 197.9177,49.2226 L197.9177,49.2226 Z M195.6337,41.9996 C188.1047,41.9996 181.9997,48.1036 181.9997,55.6336 C181.9997,63.1636 188.1047,69.2676 195.6337,69.2676 C203.1637,69.2676 209.2677,63.1636 209.2677,55.6336 C209.2677,48.1036 203.1637,41.9996 195.6337,41.9996 L195.6337,41.9996 Z M200.6581,58.365 C200.5201,58.365 200.3831,58.363 200.2451,58.361 C200.2331,58.36 200.2341,58.045 200.2891,57.916 C200.3551,57.762 200.4931,57.697 200.6581,57.716 C200.8261,57.736 200.8981,57.86 200.9331,58.01 C200.9341,58.016 200.9341,58.023 200.9361,58.03 C200.9911,58.344 200.9731,58.365 200.6581,58.365 M200.9571,56.813 C200.2561,56.624 199.6351,56.96 199.3621,57.691 C199.1391,58.288 199.1171,58.909 199.2631,59.521 C199.6131,60.979 200.9071,60.948 201.7311,60.418 C201.7861,60.382 201.8561,60.288 201.8451,60.24 C201.7941,60.019 201.7151,59.802 201.6411,59.567 C201.3941,59.696 201.1431,59.827 200.7961,59.79 C200.4811,59.756 200.1741,59.402 200.2261,59.081 L201.8991,59.081 C201.9091,58.439 201.9391,58.11 201.7831,57.644 C201.6441,57.23 201.4051,56.934 200.9571,56.813 M197.0775,57.1175 L197.0775,57.0445 C197.0635,57.0625 197.0465,57.0755 197.0335,57.0955 C197.0265,57.1055 197.0775,57.1065 197.0775,57.1175" id="youtube-icon"></path>
        </g>
    </g>
</svg>